solid OpenSCAD_Model
  facet normal 0 0 -1
    outer loop
      vertex -38.55 0 -12.7
      vertex -37.7076 8.015 -12.7
      vertex -37.7076 -8.015 -12.7
    endloop
  endfacet
  facet normal 0 0 -1
    outer loop
      vertex -37.7076 -8.015 -12.7
      vertex -37.7076 8.015 -12.7
      vertex -35.2172 15.6797 -12.7
    endloop
  endfacet
  facet normal 0 0 -1
    outer loop
      vertex -37.7076 -8.015 -12.7
      vertex -35.2172 15.6797 -12.7
      vertex -31.1876 22.6591 -12.7
    endloop
  endfacet
  facet normal 0 0 -1
    outer loop
      vertex -31.563 14.0528 -12.7
      vertex -31.1876 22.6591 -12.7
      vertex -25.795 28.6482 -12.7
    endloop
  endfacet
  facet normal 0 0 -1
    outer loop
      vertex -23.1185 25.6757 -12.7
      vertex -25.795 28.6482 -12.7
      vertex -19.275 33.3853 -12.7
    endloop
  endfacet
  facet normal 0 0 -1
    outer loop
      vertex -17.275 29.9212 -12.7
      vertex -19.275 33.3853 -12.7
      vertex -11.9126 36.6632 -12.7
    endloop
  endfacet
  facet normal 0 0 -1
    outer loop
      vertex -10.6765 32.859 -12.7
      vertex -11.9126 36.6632 -12.7
      vertex -4.02957 38.3388 -12.7
    endloop
  endfacet
  facet normal 0 0 -1
    outer loop
      vertex -3.61146 34.3607 -12.7
      vertex -4.02957 38.3388 -12.7
      vertex 4.02957 38.3388 -12.7
    endloop
  endfacet
  facet normal 0 0 -1
    outer loop
      vertex 3.61146 34.3607 -12.7
      vertex 4.02957 38.3388 -12.7
      vertex 11.9126 36.6632 -12.7
    endloop
  endfacet
  facet normal 0 0 -1
    outer loop
      vertex 10.6765 32.859 -12.7
      vertex 11.9126 36.6632 -12.7
      vertex 19.275 33.3853 -12.7
    endloop
  endfacet
  facet normal 0 0 -1
    outer loop
      vertex 17.275 29.9212 -12.7
      vertex 19.275 33.3853 -12.7
      vertex 25.795 28.6482 -12.7
    endloop
  endfacet
  facet normal 0 0 -1
    outer loop
      vertex 23.1185 25.6757 -12.7
      vertex 25.795 28.6482 -12.7
      vertex 31.1876 22.6591 -12.7
    endloop
  endfacet
  facet normal 0 0 -1
    outer loop
      vertex 27.9515 20.308 -12.7
      vertex 31.1876 22.6591 -12.7
      vertex 35.2172 15.6797 -12.7
    endloop
  endfacet
  facet normal 0 0 -1
    outer loop
      vertex 31.563 14.0528 -12.7
      vertex 35.2172 15.6797 -12.7
      vertex 37.7076 8.015 -12.7
    endloop
  endfacet
  facet normal 0 0 -1
    outer loop
      vertex 34.55 0 -12.7
      vertex 37.7076 8.015 -12.7
      vertex 38.55 0 -12.7
    endloop
  endfacet
  facet normal 0 0 -1
    outer loop
      vertex 33.795 -7.18335 -12.7
      vertex 38.55 0 -12.7
      vertex 37.7076 -8.015 -12.7
    endloop
  endfacet
  facet normal 0 0 -1
    outer loop
      vertex 31.563 -14.0528 -12.7
      vertex 37.7076 -8.015 -12.7
      vertex 35.2172 -15.6797 -12.7
    endloop
  endfacet
  facet normal 0 0 -1
    outer loop
      vertex 27.9515 -20.308 -12.7
      vertex 35.2172 -15.6797 -12.7
      vertex 31.1876 -22.6591 -12.7
    endloop
  endfacet
  facet normal 0 0 -1
    outer loop
      vertex 23.1185 -25.6757 -12.7
      vertex 31.1876 -22.6591 -12.7
      vertex 25.795 -28.6482 -12.7
    endloop
  endfacet
  facet normal 0 0 -1
    outer loop
      vertex 17.275 -29.9212 -12.7
      vertex 25.795 -28.6482 -12.7
      vertex 19.275 -33.3853 -12.7
    endloop
  endfacet
  facet normal 0 0 -1
    outer loop
      vertex 10.6765 -32.859 -12.7
      vertex 19.275 -33.3853 -12.7
      vertex 11.9126 -36.6632 -12.7
    endloop
  endfacet
  facet normal 0 0 -1
    outer loop
      vertex 3.61146 -34.3607 -12.7
      vertex 11.9126 -36.6632 -12.7
      vertex 4.02957 -38.3388 -12.7
    endloop
  endfacet
  facet normal 0 0 -1
    outer loop
      vertex -3.61146 -34.3607 -12.7
      vertex 4.02957 -38.3388 -12.7
      vertex -4.02957 -38.3388 -12.7
    endloop
  endfacet
  facet normal 0 0 -1
    outer loop
      vertex -17.275 -29.9212 -12.7
      vertex -4.02957 -38.3388 -12.7
      vertex -11.9126 -36.6632 -12.7
    endloop
  endfacet
  facet normal 0 0 -1
    outer loop
      vertex -23.1185 -25.6757 -12.7
      vertex -11.9126 -36.6632 -12.7
      vertex -19.275 -33.3853 -12.7
    endloop
  endfacet
  facet normal 0 0 -1
    outer loop
      vertex -37.7076 -8.015 -12.7
      vertex -19.275 -33.3853 -12.7
      vertex -25.795 -28.6482 -12.7
    endloop
  endfacet
  facet normal 0 0 -1
    outer loop
      vertex -37.7076 -8.015 -12.7
      vertex -25.795 -28.6482 -12.7
      vertex -31.1876 -22.6591 -12.7
    endloop
  endfacet
  facet normal 0 0 -1
    outer loop
      vertex -37.7076 -8.015 -12.7
      vertex -31.1876 -22.6591 -12.7
      vertex -35.2172 -15.6797 -12.7
    endloop
  endfacet
  facet normal 0 0 -1
    outer loop
      vertex -33.795 -7.18335 -12.7
      vertex -37.7076 -8.015 -12.7
      vertex -34.55 0 -12.7
    endloop
  endfacet
  facet normal 0 0 -1
    outer loop
      vertex 10.6765 -32.859 -12.7
      vertex 11.9126 -36.6632 -12.7
      vertex 3.61146 -34.3607 -12.7
    endloop
  endfacet
  facet normal 0 0 -1
    outer loop
      vertex -31.563 -14.0528 -12.7
      vertex -37.7076 -8.015 -12.7
      vertex -33.795 -7.18335 -12.7
    endloop
  endfacet
  facet normal 0 0 -1
    outer loop
      vertex -27.9515 -20.308 -12.7
      vertex -37.7076 -8.015 -12.7
      vertex -31.563 -14.0528 -12.7
    endloop
  endfacet
  facet normal 0 0 -1
    outer loop
      vertex -17.275 -29.9212 -12.7
      vertex -11.9126 -36.6632 -12.7
      vertex -23.1185 -25.6757 -12.7
    endloop
  endfacet
  facet normal 0 0 -1
    outer loop
      vertex -37.7076 -8.015 -12.7
      vertex -27.9515 -20.308 -12.7
      vertex -19.275 -33.3853 -12.7
    endloop
  endfacet
  facet normal 0 0 -1
    outer loop
      vertex -27.9515 -20.308 -12.7
      vertex -23.1185 -25.6757 -12.7
      vertex -19.275 -33.3853 -12.7
    endloop
  endfacet
  facet normal 0 0 -1
    outer loop
      vertex -10.6765 -32.859 -12.7
      vertex -4.02957 -38.3388 -12.7
      vertex -17.275 -29.9212 -12.7
    endloop
  endfacet
  facet normal 0 0 -1
    outer loop
      vertex -3.61146 -34.3607 -12.7
      vertex -4.02957 -38.3388 -12.7
      vertex -10.6765 -32.859 -12.7
    endloop
  endfacet
  facet normal 0 0 -1
    outer loop
      vertex 33.795 7.18335 -12.7
      vertex 37.7076 8.015 -12.7
      vertex 34.55 0 -12.7
    endloop
  endfacet
  facet normal 0 0 -1
    outer loop
      vertex 27.9515 20.308 -12.7
      vertex 35.2172 15.6797 -12.7
      vertex 31.563 14.0528 -12.7
    endloop
  endfacet
  facet normal 0 0 -1
    outer loop
      vertex 31.563 14.0528 -12.7
      vertex 37.7076 8.015 -12.7
      vertex 33.795 7.18335 -12.7
    endloop
  endfacet
  facet normal 0 0 -1
    outer loop
      vertex 34.55 0 -12.7
      vertex 38.55 0 -12.7
      vertex 33.795 -7.18335 -12.7
    endloop
  endfacet
  facet normal 0 0 -1
    outer loop
      vertex 33.795 -7.18335 -12.7
      vertex 37.7076 -8.015 -12.7
      vertex 31.563 -14.0528 -12.7
    endloop
  endfacet
  facet normal 0 0 -1
    outer loop
      vertex 31.563 -14.0528 -12.7
      vertex 35.2172 -15.6797 -12.7
      vertex 27.9515 -20.308 -12.7
    endloop
  endfacet
  facet normal 0 0 -1
    outer loop
      vertex 27.9515 -20.308 -12.7
      vertex 31.1876 -22.6591 -12.7
      vertex 23.1185 -25.6757 -12.7
    endloop
  endfacet
  facet normal 0 0 -1
    outer loop
      vertex 23.1185 -25.6757 -12.7
      vertex 25.795 -28.6482 -12.7
      vertex 17.275 -29.9212 -12.7
    endloop
  endfacet
  facet normal 0 0 -1
    outer loop
      vertex 17.275 -29.9212 -12.7
      vertex 19.275 -33.3853 -12.7
      vertex 10.6765 -32.859 -12.7
    endloop
  endfacet
  facet normal 0 0 -1
    outer loop
      vertex -27.9515 20.308 -12.7
      vertex -25.795 28.6482 -12.7
      vertex -23.1185 25.6757 -12.7
    endloop
  endfacet
  facet normal 0 0 -1
    outer loop
      vertex -31.563 14.0528 -12.7
      vertex -25.795 28.6482 -12.7
      vertex -27.9515 20.308 -12.7
    endloop
  endfacet
  facet normal 0 0 -1
    outer loop
      vertex -33.795 7.18335 -12.7
      vertex -31.1876 22.6591 -12.7
      vertex -31.563 14.0528 -12.7
    endloop
  endfacet
  facet normal 0 0 -1
    outer loop
      vertex -37.7076 -8.015 -12.7
      vertex -31.1876 22.6591 -12.7
      vertex -33.795 7.18335 -12.7
    endloop
  endfacet
  facet normal 0 0 -1
    outer loop
      vertex -23.1185 25.6757 -12.7
      vertex -19.275 33.3853 -12.7
      vertex -17.275 29.9212 -12.7
    endloop
  endfacet
  facet normal 0 0 -1
    outer loop
      vertex -34.55 0 -12.7
      vertex -37.7076 -8.015 -12.7
      vertex -33.795 7.18335 -12.7
    endloop
  endfacet
  facet normal 0 0 -1
    outer loop
      vertex -17.275 29.9212 -12.7
      vertex -11.9126 36.6632 -12.7
      vertex -10.6765 32.859 -12.7
    endloop
  endfacet
  facet normal 0 0 -1
    outer loop
      vertex -10.6765 32.859 -12.7
      vertex -4.02957 38.3388 -12.7
      vertex -3.61146 34.3607 -12.7
    endloop
  endfacet
  facet normal 0 0 -1
    outer loop
      vertex -3.61146 34.3607 -12.7
      vertex 4.02957 38.3388 -12.7
      vertex 3.61146 34.3607 -12.7
    endloop
  endfacet
  facet normal 0 0 -1
    outer loop
      vertex 3.61146 34.3607 -12.7
      vertex 11.9126 36.6632 -12.7
      vertex 10.6765 32.859 -12.7
    endloop
  endfacet
  facet normal 0 0 -1
    outer loop
      vertex 10.6765 32.859 -12.7
      vertex 19.275 33.3853 -12.7
      vertex 17.275 29.9212 -12.7
    endloop
  endfacet
  facet normal 0 0 -1
    outer loop
      vertex 17.275 29.9212 -12.7
      vertex 25.795 28.6482 -12.7
      vertex 23.1185 25.6757 -12.7
    endloop
  endfacet
  facet normal 0 0 -1
    outer loop
      vertex 23.1185 25.6757 -12.7
      vertex 31.1876 22.6591 -12.7
      vertex 27.9515 20.308 -12.7
    endloop
  endfacet
  facet normal 0 0 -1
    outer loop
      vertex 3.61146 -34.3607 -12.7
      vertex 4.02957 -38.3388 -12.7
      vertex -3.61146 -34.3607 -12.7
    endloop
  endfacet
  facet normal -0.994522 0.104528 0
    outer loop
      vertex -38.55 0 -12.7
      vertex -38.55 0 14.7
      vertex -37.7076 8.015 -12.7
    endloop
  endfacet
  facet normal -0.994522 0.104528 0
    outer loop
      vertex -37.7076 8.015 -12.7
      vertex -38.55 0 14.7
      vertex -37.7076 8.015 14.7
    endloop
  endfacet
  facet normal -0.994522 -0.104528 0
    outer loop
      vertex -38.55 0 -12.7
      vertex -37.7076 -8.015 -12.7
      vertex -38.55 0 14.7
    endloop
  endfacet
  facet normal -0.994522 -0.104528 0
    outer loop
      vertex -38.55 0 14.7
      vertex -37.7076 -8.015 -12.7
      vertex -37.7076 -8.015 14.7
    endloop
  endfacet
  facet normal -0.951057 -0.309017 0
    outer loop
      vertex -37.7076 -8.015 -12.7
      vertex -35.2172 -15.6797 -12.7
      vertex -37.7076 -8.015 14.7
    endloop
  endfacet
  facet normal -0.951057 -0.309017 0
    outer loop
      vertex -37.7076 -8.015 14.7
      vertex -35.2172 -15.6797 -12.7
      vertex -35.2172 -15.6797 14.7
    endloop
  endfacet
  facet normal -0.866025 -0.5 0
    outer loop
      vertex -35.2172 -15.6797 -12.7
      vertex -31.1876 -22.6591 -12.7
      vertex -35.2172 -15.6797 14.7
    endloop
  endfacet
  facet normal -0.866025 -0.5 0
    outer loop
      vertex -35.2172 -15.6797 14.7
      vertex -31.1876 -22.6591 -12.7
      vertex -31.1876 -22.6591 14.7
    endloop
  endfacet
  facet normal -0.743145 -0.669131 0
    outer loop
      vertex -31.1876 -22.6591 -12.7
      vertex -25.795 -28.6482 -12.7
      vertex -31.1876 -22.6591 14.7
    endloop
  endfacet
  facet normal -0.743145 -0.669131 0
    outer loop
      vertex -31.1876 -22.6591 14.7
      vertex -25.795 -28.6482 -12.7
      vertex -25.795 -28.6482 14.7
    endloop
  endfacet
  facet normal -0.587785 -0.809017 0
    outer loop
      vertex -25.795 -28.6482 14.7
      vertex -25.795 -28.6482 -12.7
      vertex -19.275 -33.3853 -12.7
    endloop
  endfacet
  facet normal -0.587785 -0.809017 0
    outer loop
      vertex -19.275 -33.3853 14.7
      vertex -25.795 -28.6482 14.7
      vertex -19.275 -33.3853 -12.7
    endloop
  endfacet
  facet normal -0.406737 -0.913545 0
    outer loop
      vertex -19.275 -33.3853 14.7
      vertex -19.275 -33.3853 -12.7
      vertex -11.9126 -36.6632 -12.7
    endloop
  endfacet
  facet normal -0.406737 -0.913545 0
    outer loop
      vertex -11.9126 -36.6632 14.7
      vertex -19.275 -33.3853 14.7
      vertex -11.9126 -36.6632 -12.7
    endloop
  endfacet
  facet normal -0.207912 -0.978148 0
    outer loop
      vertex -11.9126 -36.6632 14.7
      vertex -11.9126 -36.6632 -12.7
      vertex -4.02957 -38.3388 -12.7
    endloop
  endfacet
  facet normal -0.207912 -0.978148 0
    outer loop
      vertex -4.02957 -38.3388 14.7
      vertex -11.9126 -36.6632 14.7
      vertex -4.02957 -38.3388 -12.7
    endloop
  endfacet
  facet normal 0 -1 0
    outer loop
      vertex -4.02957 -38.3388 14.7
      vertex -4.02957 -38.3388 -12.7
      vertex 4.02957 -38.3388 -12.7
    endloop
  endfacet
  facet normal 0 -1 0
    outer loop
      vertex 4.02957 -38.3388 14.7
      vertex -4.02957 -38.3388 14.7
      vertex 4.02957 -38.3388 -12.7
    endloop
  endfacet
  facet normal 0.207912 -0.978148 0
    outer loop
      vertex 4.02957 -38.3388 14.7
      vertex 4.02957 -38.3388 -12.7
      vertex 11.9126 -36.6632 -12.7
    endloop
  endfacet
  facet normal 0.207912 -0.978148 0
    outer loop
      vertex 11.9126 -36.6632 14.7
      vertex 4.02957 -38.3388 14.7
      vertex 11.9126 -36.6632 -12.7
    endloop
  endfacet
  facet normal 0.406737 -0.913545 0
    outer loop
      vertex 11.9126 -36.6632 14.7
      vertex 11.9126 -36.6632 -12.7
      vertex 19.275 -33.3853 -12.7
    endloop
  endfacet
  facet normal 0.406737 -0.913545 0
    outer loop
      vertex 19.275 -33.3853 14.7
      vertex 11.9126 -36.6632 14.7
      vertex 19.275 -33.3853 -12.7
    endloop
  endfacet
  facet normal 0.587785 -0.809017 0
    outer loop
      vertex 19.275 -33.3853 14.7
      vertex 19.275 -33.3853 -12.7
      vertex 25.795 -28.6482 -12.7
    endloop
  endfacet
  facet normal 0.587785 -0.809017 0
    outer loop
      vertex 25.795 -28.6482 14.7
      vertex 19.275 -33.3853 14.7
      vertex 25.795 -28.6482 -12.7
    endloop
  endfacet
  facet normal 0.743145 -0.669131 0
    outer loop
      vertex 25.795 -28.6482 14.7
      vertex 25.795 -28.6482 -12.7
      vertex 31.1876 -22.6591 -12.7
    endloop
  endfacet
  facet normal 0.743145 -0.669131 0
    outer loop
      vertex 31.1876 -22.6591 14.7
      vertex 25.795 -28.6482 14.7
      vertex 31.1876 -22.6591 -12.7
    endloop
  endfacet
  facet normal 0.866025 -0.5 0
    outer loop
      vertex 31.1876 -22.6591 14.7
      vertex 31.1876 -22.6591 -12.7
      vertex 35.2172 -15.6797 -12.7
    endloop
  endfacet
  facet normal 0.866025 -0.5 0
    outer loop
      vertex 35.2172 -15.6797 14.7
      vertex 31.1876 -22.6591 14.7
      vertex 35.2172 -15.6797 -12.7
    endloop
  endfacet
  facet normal 0.951057 -0.309017 0
    outer loop
      vertex 35.2172 -15.6797 14.7
      vertex 35.2172 -15.6797 -12.7
      vertex 37.7076 -8.015 -12.7
    endloop
  endfacet
  facet normal 0.951057 -0.309017 0
    outer loop
      vertex 37.7076 -8.015 14.7
      vertex 35.2172 -15.6797 14.7
      vertex 37.7076 -8.015 -12.7
    endloop
  endfacet
  facet normal 0.994522 -0.104528 0
    outer loop
      vertex 37.7076 -8.015 14.7
      vertex 37.7076 -8.015 -12.7
      vertex 38.55 0 -12.7
    endloop
  endfacet
  facet normal 0.994522 -0.104528 0
    outer loop
      vertex 38.55 0 14.7
      vertex 37.7076 -8.015 14.7
      vertex 38.55 0 -12.7
    endloop
  endfacet
  facet normal 0.994522 0.104528 0
    outer loop
      vertex 38.55 0 -12.7
      vertex 37.7076 8.015 -12.7
      vertex 37.7076 8.015 14.7
    endloop
  endfacet
  facet normal 0.994522 0.104528 0
    outer loop
      vertex 38.55 0 14.7
      vertex 38.55 0 -12.7
      vertex 37.7076 8.015 14.7
    endloop
  endfacet
  facet normal 0.951057 0.309017 0
    outer loop
      vertex 37.7076 8.015 -12.7
      vertex 35.2172 15.6797 -12.7
      vertex 35.2172 15.6797 14.7
    endloop
  endfacet
  facet normal 0.951057 0.309017 0
    outer loop
      vertex 37.7076 8.015 14.7
      vertex 37.7076 8.015 -12.7
      vertex 35.2172 15.6797 14.7
    endloop
  endfacet
  facet normal 0.866025 0.5 0
    outer loop
      vertex 35.2172 15.6797 -12.7
      vertex 31.1876 22.6591 -12.7
      vertex 31.1876 22.6591 14.7
    endloop
  endfacet
  facet normal 0.866025 0.5 0
    outer loop
      vertex 35.2172 15.6797 14.7
      vertex 35.2172 15.6797 -12.7
      vertex 31.1876 22.6591 14.7
    endloop
  endfacet
  facet normal 0.743145 0.669131 0
    outer loop
      vertex 31.1876 22.6591 -12.7
      vertex 25.795 28.6482 -12.7
      vertex 25.795 28.6482 14.7
    endloop
  endfacet
  facet normal 0.743145 0.669131 0
    outer loop
      vertex 31.1876 22.6591 14.7
      vertex 31.1876 22.6591 -12.7
      vertex 25.795 28.6482 14.7
    endloop
  endfacet
  facet normal 0.587785 0.809017 0
    outer loop
      vertex 19.275 33.3853 -12.7
      vertex 19.275 33.3853 14.7
      vertex 25.795 28.6482 -12.7
    endloop
  endfacet
  facet normal 0.587785 0.809017 0
    outer loop
      vertex 25.795 28.6482 -12.7
      vertex 19.275 33.3853 14.7
      vertex 25.795 28.6482 14.7
    endloop
  endfacet
  facet normal 0.406737 0.913545 0
    outer loop
      vertex 11.9126 36.6632 -12.7
      vertex 11.9126 36.6632 14.7
      vertex 19.275 33.3853 -12.7
    endloop
  endfacet
  facet normal 0.406737 0.913545 0
    outer loop
      vertex 19.275 33.3853 -12.7
      vertex 11.9126 36.6632 14.7
      vertex 19.275 33.3853 14.7
    endloop
  endfacet
  facet normal 0.207912 0.978148 0
    outer loop
      vertex 4.02957 38.3388 -12.7
      vertex 4.02957 38.3388 14.7
      vertex 11.9126 36.6632 -12.7
    endloop
  endfacet
  facet normal 0.207912 0.978148 0
    outer loop
      vertex 11.9126 36.6632 -12.7
      vertex 4.02957 38.3388 14.7
      vertex 11.9126 36.6632 14.7
    endloop
  endfacet
  facet normal 0 1 0
    outer loop
      vertex -4.02957 38.3388 -12.7
      vertex -4.02957 38.3388 14.7
      vertex 4.02957 38.3388 -12.7
    endloop
  endfacet
  facet normal 0 1 0
    outer loop
      vertex 4.02957 38.3388 -12.7
      vertex -4.02957 38.3388 14.7
      vertex 4.02957 38.3388 14.7
    endloop
  endfacet
  facet normal -0.207912 0.978148 0
    outer loop
      vertex -11.9126 36.6632 -12.7
      vertex -11.9126 36.6632 14.7
      vertex -4.02957 38.3388 -12.7
    endloop
  endfacet
  facet normal -0.207912 0.978148 0
    outer loop
      vertex -4.02957 38.3388 -12.7
      vertex -11.9126 36.6632 14.7
      vertex -4.02957 38.3388 14.7
    endloop
  endfacet
  facet normal -0.406737 0.913545 0
    outer loop
      vertex -19.275 33.3853 -12.7
      vertex -19.275 33.3853 14.7
      vertex -11.9126 36.6632 -12.7
    endloop
  endfacet
  facet normal -0.406737 0.913545 0
    outer loop
      vertex -11.9126 36.6632 -12.7
      vertex -19.275 33.3853 14.7
      vertex -11.9126 36.6632 14.7
    endloop
  endfacet
  facet normal -0.587785 0.809017 0
    outer loop
      vertex -25.795 28.6482 -12.7
      vertex -25.795 28.6482 14.7
      vertex -19.275 33.3853 -12.7
    endloop
  endfacet
  facet normal -0.587785 0.809017 0
    outer loop
      vertex -19.275 33.3853 -12.7
      vertex -25.795 28.6482 14.7
      vertex -19.275 33.3853 14.7
    endloop
  endfacet
  facet normal -0.743145 0.669131 0
    outer loop
      vertex -31.1876 22.6591 -12.7
      vertex -31.1876 22.6591 14.7
      vertex -25.795 28.6482 -12.7
    endloop
  endfacet
  facet normal -0.743145 0.669131 0
    outer loop
      vertex -25.795 28.6482 -12.7
      vertex -31.1876 22.6591 14.7
      vertex -25.795 28.6482 14.7
    endloop
  endfacet
  facet normal -0.866025 0.5 0
    outer loop
      vertex -35.2172 15.6797 -12.7
      vertex -35.2172 15.6797 14.7
      vertex -31.1876 22.6591 -12.7
    endloop
  endfacet
  facet normal -0.866025 0.5 0
    outer loop
      vertex -31.1876 22.6591 -12.7
      vertex -35.2172 15.6797 14.7
      vertex -31.1876 22.6591 14.7
    endloop
  endfacet
  facet normal -0.951057 0.309017 0
    outer loop
      vertex -37.7076 8.015 -12.7
      vertex -37.7076 8.015 14.7
      vertex -35.2172 15.6797 -12.7
    endloop
  endfacet
  facet normal -0.951057 0.309017 0
    outer loop
      vertex -35.2172 15.6797 -12.7
      vertex -37.7076 8.015 14.7
      vertex -35.2172 15.6797 14.7
    endloop
  endfacet
  facet normal 0.994522 -0.104528 0
    outer loop
      vertex -33.795 7.18335 -12.7
      vertex -33.795 7.18335 12.7
      vertex -34.55 0 12.7
    endloop
  endfacet
  facet normal 0.994522 -0.104528 0
    outer loop
      vertex -34.55 0 -12.7
      vertex -33.795 7.18335 -12.7
      vertex -34.55 0 12.7
    endloop
  endfacet
  facet normal 0.994522 0.104528 0
    outer loop
      vertex -34.55 0 12.7
      vertex -33.795 -7.18335 12.7
      vertex -33.795 -7.18335 -12.7
    endloop
  endfacet
  facet normal 0.994522 0.104528 0
    outer loop
      vertex -34.55 0 -12.7
      vertex -34.55 0 12.7
      vertex -33.795 -7.18335 -12.7
    endloop
  endfacet
  facet normal 0.951057 -0.309017 0
    outer loop
      vertex -31.563 14.0528 -12.7
      vertex -31.563 14.0528 12.7
      vertex -33.795 7.18335 12.7
    endloop
  endfacet
  facet normal 0.951057 -0.309017 0
    outer loop
      vertex -33.795 7.18335 -12.7
      vertex -31.563 14.0528 -12.7
      vertex -33.795 7.18335 12.7
    endloop
  endfacet
  facet normal 0.866025 -0.5 0
    outer loop
      vertex -27.9515 20.308 -12.7
      vertex -27.9515 20.308 12.7
      vertex -31.563 14.0528 12.7
    endloop
  endfacet
  facet normal 0.866025 -0.5 0
    outer loop
      vertex -31.563 14.0528 -12.7
      vertex -27.9515 20.308 -12.7
      vertex -31.563 14.0528 12.7
    endloop
  endfacet
  facet normal 0.743145 -0.669131 0
    outer loop
      vertex -23.1185 25.6757 -12.7
      vertex -23.1185 25.6757 12.7
      vertex -27.9515 20.308 12.7
    endloop
  endfacet
  facet normal 0.743145 -0.669131 0
    outer loop
      vertex -27.9515 20.308 -12.7
      vertex -23.1185 25.6757 -12.7
      vertex -27.9515 20.308 12.7
    endloop
  endfacet
  facet normal 0.587785 -0.809017 0
    outer loop
      vertex -17.275 29.9212 -12.7
      vertex -17.275 29.9212 12.7
      vertex -23.1185 25.6757 12.7
    endloop
  endfacet
  facet normal 0.587785 -0.809017 0
    outer loop
      vertex -23.1185 25.6757 -12.7
      vertex -17.275 29.9212 -12.7
      vertex -23.1185 25.6757 12.7
    endloop
  endfacet
  facet normal 0.406737 -0.913545 0
    outer loop
      vertex -10.6765 32.859 -12.7
      vertex -10.6765 32.859 12.7
      vertex -17.275 29.9212 12.7
    endloop
  endfacet
  facet normal 0.406737 -0.913545 0
    outer loop
      vertex -17.275 29.9212 -12.7
      vertex -10.6765 32.859 -12.7
      vertex -17.275 29.9212 12.7
    endloop
  endfacet
  facet normal 0.207912 -0.978148 0
    outer loop
      vertex -3.61146 34.3607 -12.7
      vertex -3.61146 34.3607 12.7
      vertex -10.6765 32.859 12.7
    endloop
  endfacet
  facet normal 0.207912 -0.978148 0
    outer loop
      vertex -10.6765 32.859 -12.7
      vertex -3.61146 34.3607 -12.7
      vertex -10.6765 32.859 12.7
    endloop
  endfacet
  facet normal 0 -1 0
    outer loop
      vertex 3.61146 34.3607 -12.7
      vertex 3.61146 34.3607 12.7
      vertex -3.61146 34.3607 12.7
    endloop
  endfacet
  facet normal 0 -1 0
    outer loop
      vertex -3.61146 34.3607 -12.7
      vertex 3.61146 34.3607 -12.7
      vertex -3.61146 34.3607 12.7
    endloop
  endfacet
  facet normal -0.207912 -0.978148 0
    outer loop
      vertex 10.6765 32.859 -12.7
      vertex 10.6765 32.859 12.7
      vertex 3.61146 34.3607 12.7
    endloop
  endfacet
  facet normal -0.207912 -0.978148 0
    outer loop
      vertex 3.61146 34.3607 -12.7
      vertex 10.6765 32.859 -12.7
      vertex 3.61146 34.3607 12.7
    endloop
  endfacet
  facet normal -0.406737 -0.913545 0
    outer loop
      vertex 17.275 29.9212 -12.7
      vertex 17.275 29.9212 12.7
      vertex 10.6765 32.859 12.7
    endloop
  endfacet
  facet normal -0.406737 -0.913545 0
    outer loop
      vertex 10.6765 32.859 -12.7
      vertex 17.275 29.9212 -12.7
      vertex 10.6765 32.859 12.7
    endloop
  endfacet
  facet normal -0.587785 -0.809017 0
    outer loop
      vertex 23.1185 25.6757 -12.7
      vertex 23.1185 25.6757 12.7
      vertex 17.275 29.9212 12.7
    endloop
  endfacet
  facet normal -0.587785 -0.809017 0
    outer loop
      vertex 17.275 29.9212 -12.7
      vertex 23.1185 25.6757 -12.7
      vertex 17.275 29.9212 12.7
    endloop
  endfacet
  facet normal -0.743145 -0.669131 0
    outer loop
      vertex 27.9515 20.308 12.7
      vertex 23.1185 25.6757 12.7
      vertex 27.9515 20.308 -12.7
    endloop
  endfacet
  facet normal -0.743145 -0.669131 0
    outer loop
      vertex 27.9515 20.308 -12.7
      vertex 23.1185 25.6757 12.7
      vertex 23.1185 25.6757 -12.7
    endloop
  endfacet
  facet normal -0.866025 -0.5 0
    outer loop
      vertex 31.563 14.0528 12.7
      vertex 27.9515 20.308 12.7
      vertex 31.563 14.0528 -12.7
    endloop
  endfacet
  facet normal -0.866025 -0.5 0
    outer loop
      vertex 31.563 14.0528 -12.7
      vertex 27.9515 20.308 12.7
      vertex 27.9515 20.308 -12.7
    endloop
  endfacet
  facet normal -0.951057 -0.309017 0
    outer loop
      vertex 33.795 7.18335 12.7
      vertex 31.563 14.0528 12.7
      vertex 33.795 7.18335 -12.7
    endloop
  endfacet
  facet normal -0.951057 -0.309017 0
    outer loop
      vertex 33.795 7.18335 -12.7
      vertex 31.563 14.0528 12.7
      vertex 31.563 14.0528 -12.7
    endloop
  endfacet
  facet normal -0.994522 -0.104528 0
    outer loop
      vertex 34.55 0 12.7
      vertex 33.795 7.18335 12.7
      vertex 34.55 0 -12.7
    endloop
  endfacet
  facet normal -0.994522 -0.104528 0
    outer loop
      vertex 34.55 0 -12.7
      vertex 33.795 7.18335 12.7
      vertex 33.795 7.18335 -12.7
    endloop
  endfacet
  facet normal -0.994522 0.104528 0
    outer loop
      vertex 34.55 0 12.7
      vertex 34.55 0 -12.7
      vertex 33.795 -7.18335 12.7
    endloop
  endfacet
  facet normal -0.994522 0.104528 0
    outer loop
      vertex 33.795 -7.18335 12.7
      vertex 34.55 0 -12.7
      vertex 33.795 -7.18335 -12.7
    endloop
  endfacet
  facet normal -0.951057 0.309017 0
    outer loop
      vertex 33.795 -7.18335 12.7
      vertex 33.795 -7.18335 -12.7
      vertex 31.563 -14.0528 12.7
    endloop
  endfacet
  facet normal -0.951057 0.309017 0
    outer loop
      vertex 31.563 -14.0528 12.7
      vertex 33.795 -7.18335 -12.7
      vertex 31.563 -14.0528 -12.7
    endloop
  endfacet
  facet normal -0.866025 0.5 0
    outer loop
      vertex 31.563 -14.0528 12.7
      vertex 31.563 -14.0528 -12.7
      vertex 27.9515 -20.308 12.7
    endloop
  endfacet
  facet normal -0.866025 0.5 0
    outer loop
      vertex 27.9515 -20.308 12.7
      vertex 31.563 -14.0528 -12.7
      vertex 27.9515 -20.308 -12.7
    endloop
  endfacet
  facet normal -0.743145 0.669131 0
    outer loop
      vertex 27.9515 -20.308 12.7
      vertex 27.9515 -20.308 -12.7
      vertex 23.1185 -25.6757 12.7
    endloop
  endfacet
  facet normal -0.743145 0.669131 0
    outer loop
      vertex 23.1185 -25.6757 12.7
      vertex 27.9515 -20.308 -12.7
      vertex 23.1185 -25.6757 -12.7
    endloop
  endfacet
  facet normal -0.587785 0.809017 0
    outer loop
      vertex 23.1185 -25.6757 12.7
      vertex 23.1185 -25.6757 -12.7
      vertex 17.275 -29.9212 12.7
    endloop
  endfacet
  facet normal -0.587785 0.809017 0
    outer loop
      vertex 17.275 -29.9212 12.7
      vertex 23.1185 -25.6757 -12.7
      vertex 17.275 -29.9212 -12.7
    endloop
  endfacet
  facet normal -0.406737 0.913545 0
    outer loop
      vertex 17.275 -29.9212 12.7
      vertex 17.275 -29.9212 -12.7
      vertex 10.6765 -32.859 12.7
    endloop
  endfacet
  facet normal -0.406737 0.913545 0
    outer loop
      vertex 10.6765 -32.859 12.7
      vertex 17.275 -29.9212 -12.7
      vertex 10.6765 -32.859 -12.7
    endloop
  endfacet
  facet normal -0.207912 0.978148 0
    outer loop
      vertex 10.6765 -32.859 12.7
      vertex 10.6765 -32.859 -12.7
      vertex 3.61146 -34.3607 12.7
    endloop
  endfacet
  facet normal -0.207912 0.978148 0
    outer loop
      vertex 3.61146 -34.3607 12.7
      vertex 10.6765 -32.859 -12.7
      vertex 3.61146 -34.3607 -12.7
    endloop
  endfacet
  facet normal 0 1 0
    outer loop
      vertex 3.61146 -34.3607 12.7
      vertex 3.61146 -34.3607 -12.7
      vertex -3.61146 -34.3607 12.7
    endloop
  endfacet
  facet normal 0 1 0
    outer loop
      vertex -3.61146 -34.3607 12.7
      vertex 3.61146 -34.3607 -12.7
      vertex -3.61146 -34.3607 -12.7
    endloop
  endfacet
  facet normal 0.207912 0.978148 0
    outer loop
      vertex -3.61146 -34.3607 12.7
      vertex -3.61146 -34.3607 -12.7
      vertex -10.6765 -32.859 12.7
    endloop
  endfacet
  facet normal 0.207912 0.978148 0
    outer loop
      vertex -10.6765 -32.859 12.7
      vertex -3.61146 -34.3607 -12.7
      vertex -10.6765 -32.859 -12.7
    endloop
  endfacet
  facet normal 0.406737 0.913545 0
    outer loop
      vertex -10.6765 -32.859 12.7
      vertex -10.6765 -32.859 -12.7
      vertex -17.275 -29.9212 12.7
    endloop
  endfacet
  facet normal 0.406737 0.913545 0
    outer loop
      vertex -17.275 -29.9212 12.7
      vertex -10.6765 -32.859 -12.7
      vertex -17.275 -29.9212 -12.7
    endloop
  endfacet
  facet normal 0.587785 0.809017 0
    outer loop
      vertex -17.275 -29.9212 12.7
      vertex -17.275 -29.9212 -12.7
      vertex -23.1185 -25.6757 12.7
    endloop
  endfacet
  facet normal 0.587785 0.809017 0
    outer loop
      vertex -23.1185 -25.6757 12.7
      vertex -17.275 -29.9212 -12.7
      vertex -23.1185 -25.6757 -12.7
    endloop
  endfacet
  facet normal 0.743145 0.669131 0
    outer loop
      vertex -27.9515 -20.308 12.7
      vertex -23.1185 -25.6757 12.7
      vertex -23.1185 -25.6757 -12.7
    endloop
  endfacet
  facet normal 0.743145 0.669131 0
    outer loop
      vertex -27.9515 -20.308 -12.7
      vertex -27.9515 -20.308 12.7
      vertex -23.1185 -25.6757 -12.7
    endloop
  endfacet
  facet normal 0.866025 0.5 0
    outer loop
      vertex -31.563 -14.0528 12.7
      vertex -27.9515 -20.308 12.7
      vertex -27.9515 -20.308 -12.7
    endloop
  endfacet
  facet normal 0.866025 0.5 0
    outer loop
      vertex -31.563 -14.0528 -12.7
      vertex -31.563 -14.0528 12.7
      vertex -27.9515 -20.308 -12.7
    endloop
  endfacet
  facet normal 0.951057 0.309017 0
    outer loop
      vertex -33.795 -7.18335 12.7
      vertex -31.563 -14.0528 12.7
      vertex -31.563 -14.0528 -12.7
    endloop
  endfacet
  facet normal 0.951057 0.309017 0
    outer loop
      vertex -33.795 -7.18335 -12.7
      vertex -33.795 -7.18335 12.7
      vertex -31.563 -14.0528 -12.7
    endloop
  endfacet
  facet normal 0 0 1
    outer loop
      vertex -37.7076 8.015 14.7
      vertex -38.55 0 14.7
      vertex -37.7076 -8.015 14.7
    endloop
  endfacet
  facet normal 0 0 1
    outer loop
      vertex -31.1876 -22.6591 14.7
      vertex -37.7076 8.015 14.7
      vertex -35.2172 -15.6797 14.7
    endloop
  endfacet
  facet normal 0 0 1
    outer loop
      vertex -35.2172 -15.6797 14.7
      vertex -37.7076 8.015 14.7
      vertex -37.7076 -8.015 14.7
    endloop
  endfacet
  facet normal 0 0 1
    outer loop
      vertex -25.795 -28.6482 14.7
      vertex -37.7076 8.015 14.7
      vertex -31.1876 -22.6591 14.7
    endloop
  endfacet
  facet normal 0 0 1
    outer loop
      vertex -19.275 -33.3853 14.7
      vertex -37.7076 8.015 14.7
      vertex -25.795 -28.6482 14.7
    endloop
  endfacet
  facet normal 0 0 1
    outer loop
      vertex -11.9126 -36.6632 14.7
      vertex -37.7076 8.015 14.7
      vertex -19.275 -33.3853 14.7
    endloop
  endfacet
  facet normal 0 0 1
    outer loop
      vertex -4.02957 -38.3388 14.7
      vertex -37.7076 8.015 14.7
      vertex -11.9126 -36.6632 14.7
    endloop
  endfacet
  facet normal 0 0 1
    outer loop
      vertex 4.02957 -38.3388 14.7
      vertex -37.7076 8.015 14.7
      vertex -4.02957 -38.3388 14.7
    endloop
  endfacet
  facet normal 0 0 1
    outer loop
      vertex 11.9126 -36.6632 14.7
      vertex -37.7076 8.015 14.7
      vertex 4.02957 -38.3388 14.7
    endloop
  endfacet
  facet normal 0 0 1
    outer loop
      vertex 19.275 -33.3853 14.7
      vertex -37.7076 8.015 14.7
      vertex 11.9126 -36.6632 14.7
    endloop
  endfacet
  facet normal 0 0 1
    outer loop
      vertex 25.795 -28.6482 14.7
      vertex -37.7076 8.015 14.7
      vertex 19.275 -33.3853 14.7
    endloop
  endfacet
  facet normal 0 0 1
    outer loop
      vertex 31.1876 -22.6591 14.7
      vertex -37.7076 8.015 14.7
      vertex 25.795 -28.6482 14.7
    endloop
  endfacet
  facet normal 0 0 1
    outer loop
      vertex 35.2172 -15.6797 14.7
      vertex -37.7076 8.015 14.7
      vertex 31.1876 -22.6591 14.7
    endloop
  endfacet
  facet normal 0 0 1
    outer loop
      vertex 37.7076 -8.015 14.7
      vertex -37.7076 8.015 14.7
      vertex 35.2172 -15.6797 14.7
    endloop
  endfacet
  facet normal 0 0 1
    outer loop
      vertex 18.3479 -2.85317 14.7
      vertex -37.7076 8.015 14.7
      vertex 37.7076 -8.015 14.7
    endloop
  endfacet
  facet normal 0 0 1
    outer loop
      vertex 35.2172 15.6797 14.7
      vertex -37.7076 8.015 14.7
      vertex 37.7076 8.015 14.7
    endloop
  endfacet
  facet normal 0 0 1
    outer loop
      vertex 31.1876 22.6591 14.7
      vertex -37.7076 8.015 14.7
      vertex 35.2172 15.6797 14.7
    endloop
  endfacet
  facet normal 0 0 1
    outer loop
      vertex 25.795 28.6482 14.7
      vertex -37.7076 8.015 14.7
      vertex 31.1876 22.6591 14.7
    endloop
  endfacet
  facet normal 0 0 1
    outer loop
      vertex 19.275 33.3853 14.7
      vertex -37.7076 8.015 14.7
      vertex 25.795 28.6482 14.7
    endloop
  endfacet
  facet normal 0 0 1
    outer loop
      vertex 11.9126 36.6632 14.7
      vertex -37.7076 8.015 14.7
      vertex 19.275 33.3853 14.7
    endloop
  endfacet
  facet normal 0 0 1
    outer loop
      vertex 4.02957 38.3388 14.7
      vertex -37.7076 8.015 14.7
      vertex 11.9126 36.6632 14.7
    endloop
  endfacet
  facet normal 0 0 1
    outer loop
      vertex -4.02957 38.3388 14.7
      vertex -37.7076 8.015 14.7
      vertex 4.02957 38.3388 14.7
    endloop
  endfacet
  facet normal 0 0 1
    outer loop
      vertex -11.9126 36.6632 14.7
      vertex -37.7076 8.015 14.7
      vertex -4.02957 38.3388 14.7
    endloop
  endfacet
  facet normal 0 0 1
    outer loop
      vertex -19.275 33.3853 14.7
      vertex -37.7076 8.015 14.7
      vertex -11.9126 36.6632 14.7
    endloop
  endfacet
  facet normal 0 0 1
    outer loop
      vertex -25.795 28.6482 14.7
      vertex -37.7076 8.015 14.7
      vertex -19.275 33.3853 14.7
    endloop
  endfacet
  facet normal 0 0 1
    outer loop
      vertex -31.1876 22.6591 14.7
      vertex -37.7076 8.015 14.7
      vertex -25.795 28.6482 14.7
    endloop
  endfacet
  facet normal 0 0 1
    outer loop
      vertex -35.2172 15.6797 14.7
      vertex -37.7076 8.015 14.7
      vertex -31.1876 22.6591 14.7
    endloop
  endfacet
  facet normal 0 0 1
    outer loop
      vertex 16.275 0 14.7
      vertex -37.7076 8.015 14.7
      vertex 16.8479 -1.76336 14.7
    endloop
  endfacet
  facet normal 0 0 1
    outer loop
      vertex 21.7021 -1.76336 14.7
      vertex 20.2021 -2.85317 14.7
      vertex 37.7076 -8.015 14.7
    endloop
  endfacet
  facet normal 0 0 1
    outer loop
      vertex 16.8479 1.76336 14.7
      vertex -37.7076 8.015 14.7
      vertex 16.275 0 14.7
    endloop
  endfacet
  facet normal 0 0 1
    outer loop
      vertex 21.7021 1.76336 14.7
      vertex 22.275 0 14.7
      vertex 38.55 0 14.7
    endloop
  endfacet
  facet normal 0 0 1
    outer loop
      vertex 37.7076 8.015 14.7
      vertex -37.7076 8.015 14.7
      vertex 18.3479 2.85317 14.7
    endloop
  endfacet
  facet normal 0 0 1
    outer loop
      vertex 37.7076 8.015 14.7
      vertex 20.2021 2.85317 14.7
      vertex 38.55 0 14.7
    endloop
  endfacet
  facet normal 0 0 1
    outer loop
      vertex 37.7076 8.015 14.7
      vertex 18.3479 2.85317 14.7
      vertex 20.2021 2.85317 14.7
    endloop
  endfacet
  facet normal 0 0 1
    outer loop
      vertex 22.275 0 14.7
      vertex 21.7021 -1.76336 14.7
      vertex 38.55 0 14.7
    endloop
  endfacet
  facet normal 0 0 1
    outer loop
      vertex 20.2021 2.85317 14.7
      vertex 21.7021 1.76336 14.7
      vertex 38.55 0 14.7
    endloop
  endfacet
  facet normal 0 0 1
    outer loop
      vertex 38.55 0 14.7
      vertex 21.7021 -1.76336 14.7
      vertex 37.7076 -8.015 14.7
    endloop
  endfacet
  facet normal 0 0 1
    outer loop
      vertex 20.2021 -2.85317 14.7
      vertex 18.3479 -2.85317 14.7
      vertex 37.7076 -8.015 14.7
    endloop
  endfacet
  facet normal 0 0 1
    outer loop
      vertex 18.3479 -2.85317 14.7
      vertex 16.8479 -1.76336 14.7
      vertex -37.7076 8.015 14.7
    endloop
  endfacet
  facet normal 0 0 1
    outer loop
      vertex 16.8479 1.76336 14.7
      vertex 18.3479 2.85317 14.7
      vertex -37.7076 8.015 14.7
    endloop
  endfacet
  facet normal 0 0 -1
    outer loop
      vertex -31.563 14.0528 12.7
      vertex -27.9515 20.308 12.7
      vertex -33.795 7.18335 12.7
    endloop
  endfacet
  facet normal 0 0 -1
    outer loop
      vertex -33.795 7.18335 12.7
      vertex -27.9515 20.308 12.7
      vertex -23.1185 25.6757 12.7
    endloop
  endfacet
  facet normal 0 0 -1
    outer loop
      vertex -33.795 7.18335 12.7
      vertex -23.1185 25.6757 12.7
      vertex -17.275 29.9212 12.7
    endloop
  endfacet
  facet normal 0 0 -1
    outer loop
      vertex -33.795 7.18335 12.7
      vertex -17.275 29.9212 12.7
      vertex -10.6765 32.859 12.7
    endloop
  endfacet
  facet normal 0 0 -1
    outer loop
      vertex -33.795 7.18335 12.7
      vertex -10.6765 32.859 12.7
      vertex -3.61146 34.3607 12.7
    endloop
  endfacet
  facet normal 0 0 -1
    outer loop
      vertex -33.795 7.18335 12.7
      vertex -3.61146 34.3607 12.7
      vertex 3.61146 34.3607 12.7
    endloop
  endfacet
  facet normal 0 0 -1
    outer loop
      vertex -33.795 7.18335 12.7
      vertex 3.61146 34.3607 12.7
      vertex 10.6765 32.859 12.7
    endloop
  endfacet
  facet normal 0 0 -1
    outer loop
      vertex -33.795 7.18335 12.7
      vertex 10.6765 32.859 12.7
      vertex 17.275 29.9212 12.7
    endloop
  endfacet
  facet normal 0 0 -1
    outer loop
      vertex -33.795 7.18335 12.7
      vertex 17.275 29.9212 12.7
      vertex 23.1185 25.6757 12.7
    endloop
  endfacet
  facet normal 0 0 -1
    outer loop
      vertex 1.66462 15.8378 12.7
      vertex 23.1185 25.6757 12.7
      vertex 27.9515 20.308 12.7
    endloop
  endfacet
  facet normal 0 0 -1
    outer loop
      vertex 7.9625 13.7915 12.7
      vertex 27.9515 20.308 12.7
      vertex 31.563 14.0528 12.7
    endloop
  endfacet
  facet normal 0 0 -1
    outer loop
      vertex 12.8836 9.36048 12.7
      vertex 31.563 14.0528 12.7
      vertex 33.795 7.18335 12.7
    endloop
  endfacet
  facet normal 0 0 -1
    outer loop
      vertex 20.2021 2.85317 12.7
      vertex 33.795 7.18335 12.7
      vertex 34.55 0 12.7
    endloop
  endfacet
  facet normal 0 0 -1
    outer loop
      vertex 21.7021 -1.76336 12.7
      vertex 34.55 0 12.7
      vertex 33.795 -7.18335 12.7
    endloop
  endfacet
  facet normal 0 0 -1
    outer loop
      vertex 14.5482 -6.47728 12.7
      vertex 33.795 -7.18335 12.7
      vertex 31.563 -14.0528 12.7
    endloop
  endfacet
  facet normal 0 0 -1
    outer loop
      vertex 10.6559 -11.8346 12.7
      vertex 31.563 -14.0528 12.7
      vertex 27.9515 -20.308 12.7
    endloop
  endfacet
  facet normal 0 0 -1
    outer loop
      vertex 4.9211 -15.1456 12.7
      vertex 27.9515 -20.308 12.7
      vertex 23.1185 -25.6757 12.7
    endloop
  endfacet
  facet normal 0 0 -1
    outer loop
      vertex -1.66462 -15.8378 12.7
      vertex 23.1185 -25.6757 12.7
      vertex 17.275 -29.9212 12.7
    endloop
  endfacet
  facet normal 0 0 -1
    outer loop
      vertex -7.9625 -13.7915 12.7
      vertex 17.275 -29.9212 12.7
      vertex 10.6765 -32.859 12.7
    endloop
  endfacet
  facet normal 0 0 -1
    outer loop
      vertex -33.795 7.18335 12.7
      vertex 10.6765 -32.859 12.7
      vertex 3.61146 -34.3607 12.7
    endloop
  endfacet
  facet normal 0 0 -1
    outer loop
      vertex -33.795 7.18335 12.7
      vertex 3.61146 -34.3607 12.7
      vertex -3.61146 -34.3607 12.7
    endloop
  endfacet
  facet normal 0 0 -1
    outer loop
      vertex -33.795 7.18335 12.7
      vertex -3.61146 -34.3607 12.7
      vertex -10.6765 -32.859 12.7
    endloop
  endfacet
  facet normal 0 0 -1
    outer loop
      vertex -33.795 7.18335 12.7
      vertex -10.6765 -32.859 12.7
      vertex -17.275 -29.9212 12.7
    endloop
  endfacet
  facet normal 0 0 -1
    outer loop
      vertex -33.795 7.18335 12.7
      vertex -17.275 -29.9212 12.7
      vertex -23.1185 -25.6757 12.7
    endloop
  endfacet
  facet normal 0 0 -1
    outer loop
      vertex -33.795 7.18335 12.7
      vertex -23.1185 -25.6757 12.7
      vertex -27.9515 -20.308 12.7
    endloop
  endfacet
  facet normal 0 0 -1
    outer loop
      vertex -33.795 7.18335 12.7
      vertex -27.9515 -20.308 12.7
      vertex -31.563 -14.0528 12.7
    endloop
  endfacet
  facet normal 0 0 -1
    outer loop
      vertex -33.795 7.18335 12.7
      vertex -31.563 -14.0528 12.7
      vertex -33.795 -7.18335 12.7
    endloop
  endfacet
  facet normal 0 0 -1
    outer loop
      vertex -33.795 7.18335 12.7
      vertex -33.795 -7.18335 12.7
      vertex -34.55 0 12.7
    endloop
  endfacet
  facet normal 0 0 -1
    outer loop
      vertex -14.5482 -6.47728 12.7
      vertex -33.795 7.18335 12.7
      vertex -15.577 -3.31099 12.7
    endloop
  endfacet
  facet normal 0 0 -1
    outer loop
      vertex -12.8836 -9.36048 12.7
      vertex -33.795 7.18335 12.7
      vertex -14.5482 -6.47728 12.7
    endloop
  endfacet
  facet normal 0 0 -1
    outer loop
      vertex -7.9625 -13.7915 12.7
      vertex 10.6765 -32.859 12.7
      vertex -10.6559 -11.8346 12.7
    endloop
  endfacet
  facet normal 0 0 -1
    outer loop
      vertex -33.795 7.18335 12.7
      vertex -12.8836 -9.36048 12.7
      vertex -10.6559 -11.8346 12.7
    endloop
  endfacet
  facet normal 0 0 -1
    outer loop
      vertex -33.795 7.18335 12.7
      vertex -10.6559 -11.8346 12.7
      vertex 10.6765 -32.859 12.7
    endloop
  endfacet
  facet normal 0 0 -1
    outer loop
      vertex -4.9211 -15.1456 12.7
      vertex 17.275 -29.9212 12.7
      vertex -7.9625 -13.7915 12.7
    endloop
  endfacet
  facet normal 0 0 -1
    outer loop
      vertex -1.66462 -15.8378 12.7
      vertex 17.275 -29.9212 12.7
      vertex -4.9211 -15.1456 12.7
    endloop
  endfacet
  facet normal 0 0 -1
    outer loop
      vertex 1.66462 -15.8378 12.7
      vertex 23.1185 -25.6757 12.7
      vertex -1.66462 -15.8378 12.7
    endloop
  endfacet
  facet normal 0 0 -1
    outer loop
      vertex 4.9211 -15.1456 12.7
      vertex 23.1185 -25.6757 12.7
      vertex 1.66462 -15.8378 12.7
    endloop
  endfacet
  facet normal 0 0 -1
    outer loop
      vertex 7.9625 -13.7915 12.7
      vertex 27.9515 -20.308 12.7
      vertex 4.9211 -15.1456 12.7
    endloop
  endfacet
  facet normal 0 0 -1
    outer loop
      vertex 10.6559 -11.8346 12.7
      vertex 27.9515 -20.308 12.7
      vertex 7.9625 -13.7915 12.7
    endloop
  endfacet
  facet normal 0 0 -1
    outer loop
      vertex 15.925 0 12.7
      vertex 16.8479 -1.76336 12.7
      vertex 15.577 -3.31099 12.7
    endloop
  endfacet
  facet normal 0 0 -1
    outer loop
      vertex 12.8836 -9.36048 12.7
      vertex 31.563 -14.0528 12.7
      vertex 10.6559 -11.8346 12.7
    endloop
  endfacet
  facet normal 0 0 -1
    outer loop
      vertex 16.8479 -1.76336 12.7
      vertex 18.3479 -2.85317 12.7
      vertex 15.577 -3.31099 12.7
    endloop
  endfacet
  facet normal 0 0 -1
    outer loop
      vertex 15.577 -3.31099 12.7
      vertex 33.795 -7.18335 12.7
      vertex 14.5482 -6.47728 12.7
    endloop
  endfacet
  facet normal 0 0 -1
    outer loop
      vertex 18.3479 -2.85317 12.7
      vertex 33.795 -7.18335 12.7
      vertex 15.577 -3.31099 12.7
    endloop
  endfacet
  facet normal 0 0 -1
    outer loop
      vertex 15.577 3.31099 12.7
      vertex 16.275 0 12.7
      vertex 15.925 0 12.7
    endloop
  endfacet
  facet normal 0 0 -1
    outer loop
      vertex 21.7021 -1.76336 12.7
      vertex 33.795 -7.18335 12.7
      vertex 20.2021 -2.85317 12.7
    endloop
  endfacet
  facet normal 0 0 -1
    outer loop
      vertex 14.5482 6.47728 12.7
      vertex 33.795 7.18335 12.7
      vertex 15.577 3.31099 12.7
    endloop
  endfacet
  facet normal 0 0 -1
    outer loop
      vertex 10.6559 11.8346 12.7
      vertex 31.563 14.0528 12.7
      vertex 12.8836 9.36048 12.7
    endloop
  endfacet
  facet normal 0 0 -1
    outer loop
      vertex 7.9625 13.7915 12.7
      vertex 31.563 14.0528 12.7
      vertex 10.6559 11.8346 12.7
    endloop
  endfacet
  facet normal 0 0 -1
    outer loop
      vertex 4.9211 15.1456 12.7
      vertex 27.9515 20.308 12.7
      vertex 7.9625 13.7915 12.7
    endloop
  endfacet
  facet normal 0 0 -1
    outer loop
      vertex 1.66462 15.8378 12.7
      vertex 27.9515 20.308 12.7
      vertex 4.9211 15.1456 12.7
    endloop
  endfacet
  facet normal 0 0 -1
    outer loop
      vertex -1.66462 15.8378 12.7
      vertex 23.1185 25.6757 12.7
      vertex 1.66462 15.8378 12.7
    endloop
  endfacet
  facet normal 0 0 -1
    outer loop
      vertex -7.9625 13.7915 12.7
      vertex -33.795 7.18335 12.7
      vertex -4.9211 15.1456 12.7
    endloop
  endfacet
  facet normal 0 0 -1
    outer loop
      vertex -4.9211 15.1456 12.7
      vertex 23.1185 25.6757 12.7
      vertex -1.66462 15.8378 12.7
    endloop
  endfacet
  facet normal 0 0 -1
    outer loop
      vertex -33.795 7.18335 12.7
      vertex 23.1185 25.6757 12.7
      vertex -4.9211 15.1456 12.7
    endloop
  endfacet
  facet normal 0 0 -1
    outer loop
      vertex -10.6559 11.8346 12.7
      vertex -33.795 7.18335 12.7
      vertex -7.9625 13.7915 12.7
    endloop
  endfacet
  facet normal 0 0 -1
    outer loop
      vertex -12.8836 9.36048 12.7
      vertex -33.795 7.18335 12.7
      vertex -10.6559 11.8346 12.7
    endloop
  endfacet
  facet normal 0 0 -1
    outer loop
      vertex -14.5482 6.47728 12.7
      vertex -33.795 7.18335 12.7
      vertex -12.8836 9.36048 12.7
    endloop
  endfacet
  facet normal 0 0 -1
    outer loop
      vertex -15.577 3.31099 12.7
      vertex -33.795 7.18335 12.7
      vertex -14.5482 6.47728 12.7
    endloop
  endfacet
  facet normal 0 0 -1
    outer loop
      vertex -15.925 0 12.7
      vertex -33.795 7.18335 12.7
      vertex -15.577 3.31099 12.7
    endloop
  endfacet
  facet normal 0 0 -1
    outer loop
      vertex 15.577 3.31099 12.7
      vertex 16.8479 1.76336 12.7
      vertex 16.275 0 12.7
    endloop
  endfacet
  facet normal 0 0 -1
    outer loop
      vertex 16.8479 -1.76336 12.7
      vertex 15.925 0 12.7
      vertex 16.275 0 12.7
    endloop
  endfacet
  facet normal 0 0 -1
    outer loop
      vertex 20.2021 2.85317 12.7
      vertex 34.55 0 12.7
      vertex 21.7021 1.76336 12.7
    endloop
  endfacet
  facet normal 0 0 -1
    outer loop
      vertex 18.3479 -2.85317 12.7
      vertex 20.2021 -2.85317 12.7
      vertex 33.795 -7.18335 12.7
    endloop
  endfacet
  facet normal 0 0 -1
    outer loop
      vertex 22.275 0 12.7
      vertex 34.55 0 12.7
      vertex 21.7021 -1.76336 12.7
    endloop
  endfacet
  facet normal 0 0 -1
    outer loop
      vertex 12.8836 9.36048 12.7
      vertex 33.795 7.18335 12.7
      vertex 14.5482 6.47728 12.7
    endloop
  endfacet
  facet normal 0 0 -1
    outer loop
      vertex 15.577 3.31099 12.7
      vertex 33.795 7.18335 12.7
      vertex 20.2021 2.85317 12.7
    endloop
  endfacet
  facet normal 0 0 -1
    outer loop
      vertex 16.8479 1.76336 12.7
      vertex 15.577 3.31099 12.7
      vertex 18.3479 2.85317 12.7
    endloop
  endfacet
  facet normal 0 0 -1
    outer loop
      vertex 15.577 3.31099 12.7
      vertex 20.2021 2.85317 12.7
      vertex 18.3479 2.85317 12.7
    endloop
  endfacet
  facet normal 0 0 -1
    outer loop
      vertex -15.577 -3.31099 12.7
      vertex -33.795 7.18335 12.7
      vertex -15.925 0 12.7
    endloop
  endfacet
  facet normal 0 0 -1
    outer loop
      vertex 14.5482 -6.47728 12.7
      vertex 31.563 -14.0528 12.7
      vertex 12.8836 -9.36048 12.7
    endloop
  endfacet
  facet normal 0 0 -1
    outer loop
      vertex 21.7021 1.76336 12.7
      vertex 34.55 0 12.7
      vertex 22.275 0 12.7
    endloop
  endfacet
  facet normal 0.951057 0.309017 0
    outer loop
      vertex 16.275 0 14.7
      vertex 16.8479 -1.76336 14.7
      vertex 16.8479 -1.76336 12.7
    endloop
  endfacet
  facet normal 0.951057 0.309017 0
    outer loop
      vertex 16.275 0 12.7
      vertex 16.275 0 14.7
      vertex 16.8479 -1.76336 12.7
    endloop
  endfacet
  facet normal 0.587785 0.809017 0
    outer loop
      vertex 18.3479 -2.85317 14.7
      vertex 18.3479 -2.85317 12.7
      vertex 16.8479 -1.76336 14.7
    endloop
  endfacet
  facet normal 0.587785 0.809017 0
    outer loop
      vertex 16.8479 -1.76336 14.7
      vertex 18.3479 -2.85317 12.7
      vertex 16.8479 -1.76336 12.7
    endloop
  endfacet
  facet normal 0 1 0
    outer loop
      vertex 20.2021 -2.85317 14.7
      vertex 20.2021 -2.85317 12.7
      vertex 18.3479 -2.85317 14.7
    endloop
  endfacet
  facet normal 0 1 0
    outer loop
      vertex 18.3479 -2.85317 14.7
      vertex 20.2021 -2.85317 12.7
      vertex 18.3479 -2.85317 12.7
    endloop
  endfacet
  facet normal -0.587785 0.809017 0
    outer loop
      vertex 21.7021 -1.76336 14.7
      vertex 21.7021 -1.76336 12.7
      vertex 20.2021 -2.85317 14.7
    endloop
  endfacet
  facet normal -0.587785 0.809017 0
    outer loop
      vertex 20.2021 -2.85317 14.7
      vertex 21.7021 -1.76336 12.7
      vertex 20.2021 -2.85317 12.7
    endloop
  endfacet
  facet normal -0.951057 0.309017 0
    outer loop
      vertex 22.275 0 14.7
      vertex 22.275 0 12.7
      vertex 21.7021 -1.76336 14.7
    endloop
  endfacet
  facet normal -0.951057 0.309017 0
    outer loop
      vertex 21.7021 -1.76336 14.7
      vertex 22.275 0 12.7
      vertex 21.7021 -1.76336 12.7
    endloop
  endfacet
  facet normal -0.951057 -0.309017 0
    outer loop
      vertex 22.275 0 14.7
      vertex 21.7021 1.76336 14.7
      vertex 22.275 0 12.7
    endloop
  endfacet
  facet normal -0.951057 -0.309017 0
    outer loop
      vertex 22.275 0 12.7
      vertex 21.7021 1.76336 14.7
      vertex 21.7021 1.76336 12.7
    endloop
  endfacet
  facet normal -0.587785 -0.809017 0
    outer loop
      vertex 21.7021 1.76336 12.7
      vertex 21.7021 1.76336 14.7
      vertex 20.2021 2.85317 14.7
    endloop
  endfacet
  facet normal -0.587785 -0.809017 0
    outer loop
      vertex 20.2021 2.85317 12.7
      vertex 21.7021 1.76336 12.7
      vertex 20.2021 2.85317 14.7
    endloop
  endfacet
  facet normal 0 -1 0
    outer loop
      vertex 20.2021 2.85317 12.7
      vertex 20.2021 2.85317 14.7
      vertex 18.3479 2.85317 14.7
    endloop
  endfacet
  facet normal 0 -1 0
    outer loop
      vertex 18.3479 2.85317 12.7
      vertex 20.2021 2.85317 12.7
      vertex 18.3479 2.85317 14.7
    endloop
  endfacet
  facet normal 0.587785 -0.809017 0
    outer loop
      vertex 18.3479 2.85317 12.7
      vertex 18.3479 2.85317 14.7
      vertex 16.8479 1.76336 14.7
    endloop
  endfacet
  facet normal 0.587785 -0.809017 0
    outer loop
      vertex 16.8479 1.76336 12.7
      vertex 18.3479 2.85317 12.7
      vertex 16.8479 1.76336 14.7
    endloop
  endfacet
  facet normal 0.951057 -0.309017 0
    outer loop
      vertex 16.8479 1.76336 12.7
      vertex 16.8479 1.76336 14.7
      vertex 16.275 0 14.7
    endloop
  endfacet
  facet normal 0.951057 -0.309017 0
    outer loop
      vertex 16.275 0 12.7
      vertex 16.8479 1.76336 12.7
      vertex 16.275 0 14.7
    endloop
  endfacet
  facet normal -0.951056 -0.309017 0
    outer loop
      vertex -15.577 -3.31099 4.7
      vertex -14.5482 -6.47728 4.7
      vertex -15.577 -3.31099 12.7
    endloop
  endfacet
  facet normal -0.951056 -0.309017 0
    outer loop
      vertex -15.577 -3.31099 12.7
      vertex -14.5482 -6.47728 4.7
      vertex -14.5482 -6.47728 12.7
    endloop
  endfacet
  facet normal -0.994522 -0.104528 0
    outer loop
      vertex -15.925 0 4.7
      vertex -15.577 -3.31099 4.7
      vertex -15.925 0 12.7
    endloop
  endfacet
  facet normal -0.994522 -0.104528 0
    outer loop
      vertex -15.925 0 12.7
      vertex -15.577 -3.31099 4.7
      vertex -15.577 -3.31099 12.7
    endloop
  endfacet
  facet normal -0.994522 0.104528 0
    outer loop
      vertex -15.925 0 4.7
      vertex -15.925 0 12.7
      vertex -15.577 3.31099 4.7
    endloop
  endfacet
  facet normal -0.994522 0.104528 0
    outer loop
      vertex -15.577 3.31099 4.7
      vertex -15.925 0 12.7
      vertex -15.577 3.31099 12.7
    endloop
  endfacet
  facet normal -0.951056 0.309017 0
    outer loop
      vertex -15.577 3.31099 4.7
      vertex -15.577 3.31099 12.7
      vertex -14.5482 6.47728 4.7
    endloop
  endfacet
  facet normal -0.951056 0.309017 0
    outer loop
      vertex -14.5482 6.47728 4.7
      vertex -15.577 3.31099 12.7
      vertex -14.5482 6.47728 12.7
    endloop
  endfacet
  facet normal -0.866025 0.5 0
    outer loop
      vertex -14.5482 6.47728 4.7
      vertex -14.5482 6.47728 12.7
      vertex -12.8836 9.36048 4.7
    endloop
  endfacet
  facet normal -0.866025 0.5 0
    outer loop
      vertex -12.8836 9.36048 4.7
      vertex -14.5482 6.47728 12.7
      vertex -12.8836 9.36048 12.7
    endloop
  endfacet
  facet normal -0.743145 0.669131 0
    outer loop
      vertex -12.8836 9.36048 4.7
      vertex -12.8836 9.36048 12.7
      vertex -10.6559 11.8346 4.7
    endloop
  endfacet
  facet normal -0.743145 0.669131 0
    outer loop
      vertex -10.6559 11.8346 4.7
      vertex -12.8836 9.36048 12.7
      vertex -10.6559 11.8346 12.7
    endloop
  endfacet
  facet normal -0.587785 0.809017 0
    outer loop
      vertex -10.6559 11.8346 4.7
      vertex -10.6559 11.8346 12.7
      vertex -7.9625 13.7915 4.7
    endloop
  endfacet
  facet normal -0.587785 0.809017 0
    outer loop
      vertex -7.9625 13.7915 4.7
      vertex -10.6559 11.8346 12.7
      vertex -7.9625 13.7915 12.7
    endloop
  endfacet
  facet normal -0.406737 0.913545 0
    outer loop
      vertex -7.9625 13.7915 4.7
      vertex -7.9625 13.7915 12.7
      vertex -4.9211 15.1456 4.7
    endloop
  endfacet
  facet normal -0.406737 0.913545 0
    outer loop
      vertex -4.9211 15.1456 4.7
      vertex -7.9625 13.7915 12.7
      vertex -4.9211 15.1456 12.7
    endloop
  endfacet
  facet normal -0.207912 0.978148 0
    outer loop
      vertex -4.9211 15.1456 4.7
      vertex -4.9211 15.1456 12.7
      vertex -1.66462 15.8378 4.7
    endloop
  endfacet
  facet normal -0.207912 0.978148 0
    outer loop
      vertex -1.66462 15.8378 4.7
      vertex -4.9211 15.1456 12.7
      vertex -1.66462 15.8378 12.7
    endloop
  endfacet
  facet normal 0 1 0
    outer loop
      vertex -1.66462 15.8378 4.7
      vertex -1.66462 15.8378 12.7
      vertex 1.66462 15.8378 4.7
    endloop
  endfacet
  facet normal 0 1 0
    outer loop
      vertex 1.66462 15.8378 4.7
      vertex -1.66462 15.8378 12.7
      vertex 1.66462 15.8378 12.7
    endloop
  endfacet
  facet normal 0.207912 0.978148 0
    outer loop
      vertex 1.66462 15.8378 4.7
      vertex 1.66462 15.8378 12.7
      vertex 4.9211 15.1456 4.7
    endloop
  endfacet
  facet normal 0.207912 0.978148 0
    outer loop
      vertex 4.9211 15.1456 4.7
      vertex 1.66462 15.8378 12.7
      vertex 4.9211 15.1456 12.7
    endloop
  endfacet
  facet normal 0.406737 0.913545 0
    outer loop
      vertex 4.9211 15.1456 4.7
      vertex 4.9211 15.1456 12.7
      vertex 7.9625 13.7915 4.7
    endloop
  endfacet
  facet normal 0.406737 0.913545 0
    outer loop
      vertex 7.9625 13.7915 4.7
      vertex 4.9211 15.1456 12.7
      vertex 7.9625 13.7915 12.7
    endloop
  endfacet
  facet normal 0.587785 0.809017 0
    outer loop
      vertex 7.9625 13.7915 4.7
      vertex 7.9625 13.7915 12.7
      vertex 10.6559 11.8346 4.7
    endloop
  endfacet
  facet normal 0.587785 0.809017 0
    outer loop
      vertex 10.6559 11.8346 4.7
      vertex 7.9625 13.7915 12.7
      vertex 10.6559 11.8346 12.7
    endloop
  endfacet
  facet normal 0.743145 0.669131 0
    outer loop
      vertex 12.8836 9.36048 4.7
      vertex 10.6559 11.8346 4.7
      vertex 10.6559 11.8346 12.7
    endloop
  endfacet
  facet normal 0.743145 0.669131 0
    outer loop
      vertex 12.8836 9.36048 12.7
      vertex 12.8836 9.36048 4.7
      vertex 10.6559 11.8346 12.7
    endloop
  endfacet
  facet normal 0.866025 0.5 0
    outer loop
      vertex 14.5482 6.47728 4.7
      vertex 12.8836 9.36048 4.7
      vertex 12.8836 9.36048 12.7
    endloop
  endfacet
  facet normal 0.866025 0.5 0
    outer loop
      vertex 14.5482 6.47728 12.7
      vertex 14.5482 6.47728 4.7
      vertex 12.8836 9.36048 12.7
    endloop
  endfacet
  facet normal 0.951056 0.309017 0
    outer loop
      vertex 15.577 3.31099 4.7
      vertex 14.5482 6.47728 4.7
      vertex 14.5482 6.47728 12.7
    endloop
  endfacet
  facet normal 0.951056 0.309017 0
    outer loop
      vertex 15.577 3.31099 12.7
      vertex 15.577 3.31099 4.7
      vertex 14.5482 6.47728 12.7
    endloop
  endfacet
  facet normal 0.994522 0.104528 0
    outer loop
      vertex 15.925 0 4.7
      vertex 15.577 3.31099 4.7
      vertex 15.577 3.31099 12.7
    endloop
  endfacet
  facet normal 0.994522 0.104528 0
    outer loop
      vertex 15.925 0 12.7
      vertex 15.925 0 4.7
      vertex 15.577 3.31099 12.7
    endloop
  endfacet
  facet normal 0.994522 -0.104528 0
    outer loop
      vertex 15.577 -3.31099 12.7
      vertex 15.577 -3.31099 4.7
      vertex 15.925 0 4.7
    endloop
  endfacet
  facet normal 0.994522 -0.104528 0
    outer loop
      vertex 15.925 0 12.7
      vertex 15.577 -3.31099 12.7
      vertex 15.925 0 4.7
    endloop
  endfacet
  facet normal 0.951056 -0.309017 0
    outer loop
      vertex 14.5482 -6.47728 12.7
      vertex 14.5482 -6.47728 4.7
      vertex 15.577 -3.31099 4.7
    endloop
  endfacet
  facet normal 0.951056 -0.309017 0
    outer loop
      vertex 15.577 -3.31099 12.7
      vertex 14.5482 -6.47728 12.7
      vertex 15.577 -3.31099 4.7
    endloop
  endfacet
  facet normal 0.866025 -0.5 0
    outer loop
      vertex 12.8836 -9.36048 12.7
      vertex 12.8836 -9.36048 4.7
      vertex 14.5482 -6.47728 4.7
    endloop
  endfacet
  facet normal 0.866025 -0.5 0
    outer loop
      vertex 14.5482 -6.47728 12.7
      vertex 12.8836 -9.36048 12.7
      vertex 14.5482 -6.47728 4.7
    endloop
  endfacet
  facet normal 0.743145 -0.669131 0
    outer loop
      vertex 10.6559 -11.8346 12.7
      vertex 10.6559 -11.8346 4.7
      vertex 12.8836 -9.36048 4.7
    endloop
  endfacet
  facet normal 0.743145 -0.669131 0
    outer loop
      vertex 12.8836 -9.36048 12.7
      vertex 10.6559 -11.8346 12.7
      vertex 12.8836 -9.36048 4.7
    endloop
  endfacet
  facet normal 0.587785 -0.809017 0
    outer loop
      vertex 7.9625 -13.7915 12.7
      vertex 7.9625 -13.7915 4.7
      vertex 10.6559 -11.8346 4.7
    endloop
  endfacet
  facet normal 0.587785 -0.809017 0
    outer loop
      vertex 10.6559 -11.8346 12.7
      vertex 7.9625 -13.7915 12.7
      vertex 10.6559 -11.8346 4.7
    endloop
  endfacet
  facet normal 0.406737 -0.913545 0
    outer loop
      vertex 4.9211 -15.1456 12.7
      vertex 4.9211 -15.1456 4.7
      vertex 7.9625 -13.7915 4.7
    endloop
  endfacet
  facet normal 0.406737 -0.913545 0
    outer loop
      vertex 7.9625 -13.7915 12.7
      vertex 4.9211 -15.1456 12.7
      vertex 7.9625 -13.7915 4.7
    endloop
  endfacet
  facet normal 0.207912 -0.978148 0
    outer loop
      vertex 1.66462 -15.8378 12.7
      vertex 1.66462 -15.8378 4.7
      vertex 4.9211 -15.1456 4.7
    endloop
  endfacet
  facet normal 0.207912 -0.978148 0
    outer loop
      vertex 4.9211 -15.1456 12.7
      vertex 1.66462 -15.8378 12.7
      vertex 4.9211 -15.1456 4.7
    endloop
  endfacet
  facet normal 0 -1 0
    outer loop
      vertex -1.66462 -15.8378 12.7
      vertex -1.66462 -15.8378 4.7
      vertex 1.66462 -15.8378 4.7
    endloop
  endfacet
  facet normal 0 -1 0
    outer loop
      vertex 1.66462 -15.8378 12.7
      vertex -1.66462 -15.8378 12.7
      vertex 1.66462 -15.8378 4.7
    endloop
  endfacet
  facet normal -0.207912 -0.978148 0
    outer loop
      vertex -4.9211 -15.1456 12.7
      vertex -4.9211 -15.1456 4.7
      vertex -1.66462 -15.8378 4.7
    endloop
  endfacet
  facet normal -0.207912 -0.978148 0
    outer loop
      vertex -1.66462 -15.8378 12.7
      vertex -4.9211 -15.1456 12.7
      vertex -1.66462 -15.8378 4.7
    endloop
  endfacet
  facet normal -0.406737 -0.913545 0
    outer loop
      vertex -7.9625 -13.7915 12.7
      vertex -7.9625 -13.7915 4.7
      vertex -4.9211 -15.1456 4.7
    endloop
  endfacet
  facet normal -0.406737 -0.913545 0
    outer loop
      vertex -4.9211 -15.1456 12.7
      vertex -7.9625 -13.7915 12.7
      vertex -4.9211 -15.1456 4.7
    endloop
  endfacet
  facet normal -0.587785 -0.809017 0
    outer loop
      vertex -10.6559 -11.8346 12.7
      vertex -10.6559 -11.8346 4.7
      vertex -7.9625 -13.7915 4.7
    endloop
  endfacet
  facet normal -0.587785 -0.809017 0
    outer loop
      vertex -7.9625 -13.7915 12.7
      vertex -10.6559 -11.8346 12.7
      vertex -7.9625 -13.7915 4.7
    endloop
  endfacet
  facet normal -0.743145 -0.669131 0
    outer loop
      vertex -12.8836 -9.36048 4.7
      vertex -10.6559 -11.8346 4.7
      vertex -12.8836 -9.36048 12.7
    endloop
  endfacet
  facet normal -0.743145 -0.669131 0
    outer loop
      vertex -12.8836 -9.36048 12.7
      vertex -10.6559 -11.8346 4.7
      vertex -10.6559 -11.8346 12.7
    endloop
  endfacet
  facet normal -0.866025 -0.5 0
    outer loop
      vertex -14.5482 -6.47728 4.7
      vertex -12.8836 -9.36048 4.7
      vertex -14.5482 -6.47728 12.7
    endloop
  endfacet
  facet normal -0.866025 -0.5 0
    outer loop
      vertex -14.5482 -6.47728 12.7
      vertex -12.8836 -9.36048 4.7
      vertex -12.8836 -9.36048 12.7
    endloop
  endfacet
  facet normal 0 0 -1
    outer loop
      vertex -15.925 0 4.7
      vertex -15.577 3.31099 4.7
      vertex -15.577 -3.31099 4.7
    endloop
  endfacet
  facet normal 0 0 -1
    outer loop
      vertex -15.577 -3.31099 4.7
      vertex -15.577 3.31099 4.7
      vertex -14.5482 6.47728 4.7
    endloop
  endfacet
  facet normal 0 0 -1
    outer loop
      vertex -15.577 -3.31099 4.7
      vertex -14.5482 6.47728 4.7
      vertex -12.8836 9.36048 4.7
    endloop
  endfacet
  facet normal 0 0 -1
    outer loop
      vertex -15.577 -3.31099 4.7
      vertex -12.8836 9.36048 4.7
      vertex -10.6559 11.8346 4.7
    endloop
  endfacet
  facet normal 0 0 -1
    outer loop
      vertex -15.577 -3.31099 4.7
      vertex -10.6559 11.8346 4.7
      vertex -7.9625 13.7915 4.7
    endloop
  endfacet
  facet normal 0 0 -1
    outer loop
      vertex -9.64753 7.00934 4.7
      vertex -7.9625 13.7915 4.7
      vertex -4.9211 15.1456 4.7
    endloop
  endfacet
  facet normal 0 0 -1
    outer loop
      vertex -5.9625 10.3274 4.7
      vertex -4.9211 15.1456 4.7
      vertex -1.66462 15.8378 4.7
    endloop
  endfacet
  facet normal 0 0 -1
    outer loop
      vertex -3.68503 11.3413 4.7
      vertex -1.66462 15.8378 4.7
      vertex 1.66462 15.8378 4.7
    endloop
  endfacet
  facet normal 0 0 -1
    outer loop
      vertex 1.2465 11.8597 4.7
      vertex 1.66462 15.8378 4.7
      vertex 4.9211 15.1456 4.7
    endloop
  endfacet
  facet normal 0 0 -1
    outer loop
      vertex 3.68503 11.3413 4.7
      vertex 4.9211 15.1456 4.7
      vertex 7.9625 13.7915 4.7
    endloop
  endfacet
  facet normal 0 0 -1
    outer loop
      vertex 5.9625 10.3274 4.7
      vertex 7.9625 13.7915 4.7
      vertex 10.6559 11.8346 4.7
    endloop
  endfacet
  facet normal 0 0 -1
    outer loop
      vertex 7.97938 8.862 4.7
      vertex 10.6559 11.8346 4.7
      vertex 12.8836 9.36048 4.7
    endloop
  endfacet
  facet normal 0 0 -1
    outer loop
      vertex 9.64753 7.00934 4.7
      vertex 12.8836 9.36048 4.7
      vertex 14.5482 6.47728 4.7
    endloop
  endfacet
  facet normal 0 0 -1
    outer loop
      vertex 10.894 4.85033 4.7
      vertex 14.5482 6.47728 4.7
      vertex 15.577 3.31099 4.7
    endloop
  endfacet
  facet normal 0 0 -1
    outer loop
      vertex 11.925 0 4.7
      vertex 15.577 3.31099 4.7
      vertex 15.925 0 4.7
    endloop
  endfacet
  facet normal 0 0 -1
    outer loop
      vertex 11.6644 -2.47935 4.7
      vertex 15.925 0 4.7
      vertex 15.577 -3.31099 4.7
    endloop
  endfacet
  facet normal 0 0 -1
    outer loop
      vertex 10.894 -4.85033 4.7
      vertex 15.577 -3.31099 4.7
      vertex 14.5482 -6.47728 4.7
    endloop
  endfacet
  facet normal 0 0 -1
    outer loop
      vertex 9.64753 -7.00934 4.7
      vertex 14.5482 -6.47728 4.7
      vertex 12.8836 -9.36048 4.7
    endloop
  endfacet
  facet normal 0 0 -1
    outer loop
      vertex 7.97938 -8.862 4.7
      vertex 12.8836 -9.36048 4.7
      vertex 10.6559 -11.8346 4.7
    endloop
  endfacet
  facet normal 0 0 -1
    outer loop
      vertex 3.68503 -11.3413 4.7
      vertex 10.6559 -11.8346 4.7
      vertex 7.9625 -13.7915 4.7
    endloop
  endfacet
  facet normal 0 0 -1
    outer loop
      vertex 1.2465 -11.8597 4.7
      vertex 7.9625 -13.7915 4.7
      vertex 4.9211 -15.1456 4.7
    endloop
  endfacet
  facet normal 0 0 -1
    outer loop
      vertex -3.68503 -11.3413 4.7
      vertex 4.9211 -15.1456 4.7
      vertex 1.66462 -15.8378 4.7
    endloop
  endfacet
  facet normal 0 0 -1
    outer loop
      vertex -5.9625 -10.3274 4.7
      vertex 1.66462 -15.8378 4.7
      vertex -1.66462 -15.8378 4.7
    endloop
  endfacet
  facet normal 0 0 -1
    outer loop
      vertex -15.577 -3.31099 4.7
      vertex -1.66462 -15.8378 4.7
      vertex -4.9211 -15.1456 4.7
    endloop
  endfacet
  facet normal 0 0 -1
    outer loop
      vertex -15.577 -3.31099 4.7
      vertex -4.9211 -15.1456 4.7
      vertex -7.9625 -13.7915 4.7
    endloop
  endfacet
  facet normal 0 0 -1
    outer loop
      vertex -15.577 -3.31099 4.7
      vertex -7.9625 -13.7915 4.7
      vertex -10.6559 -11.8346 4.7
    endloop
  endfacet
  facet normal 0 0 -1
    outer loop
      vertex -15.577 -3.31099 4.7
      vertex -10.6559 -11.8346 4.7
      vertex -12.8836 -9.36048 4.7
    endloop
  endfacet
  facet normal 0 0 -1
    outer loop
      vertex -15.577 -3.31099 4.7
      vertex -12.8836 -9.36048 4.7
      vertex -14.5482 -6.47728 4.7
    endloop
  endfacet
  facet normal 0 0 -1
    outer loop
      vertex -11.6644 -2.47935 4.7
      vertex -15.577 -3.31099 4.7
      vertex -11.925 0 4.7
    endloop
  endfacet
  facet normal 0 0 -1
    outer loop
      vertex 10.894 -4.85033 4.7
      vertex 14.5482 -6.47728 4.7
      vertex 9.64753 -7.00934 4.7
    endloop
  endfacet
  facet normal 0 0 -1
    outer loop
      vertex -10.894 -4.85033 4.7
      vertex -15.577 -3.31099 4.7
      vertex -11.6644 -2.47935 4.7
    endloop
  endfacet
  facet normal 0 0 -1
    outer loop
      vertex -9.64753 -7.00934 4.7
      vertex -15.577 -3.31099 4.7
      vertex -10.894 -4.85033 4.7
    endloop
  endfacet
  facet normal 0 0 -1
    outer loop
      vertex -7.97938 -8.862 4.7
      vertex -15.577 -3.31099 4.7
      vertex -9.64753 -7.00934 4.7
    endloop
  endfacet
  facet normal 0 0 -1
    outer loop
      vertex -3.68503 -11.3413 4.7
      vertex 1.66462 -15.8378 4.7
      vertex -5.9625 -10.3274 4.7
    endloop
  endfacet
  facet normal 0 0 -1
    outer loop
      vertex -15.577 -3.31099 4.7
      vertex -7.97938 -8.862 4.7
      vertex -1.66462 -15.8378 4.7
    endloop
  endfacet
  facet normal 0 0 -1
    outer loop
      vertex -7.97938 -8.862 4.7
      vertex -5.9625 -10.3274 4.7
      vertex -1.66462 -15.8378 4.7
    endloop
  endfacet
  facet normal 0 0 -1
    outer loop
      vertex -1.2465 -11.8597 4.7
      vertex 4.9211 -15.1456 4.7
      vertex -3.68503 -11.3413 4.7
    endloop
  endfacet
  facet normal 0 0 -1
    outer loop
      vertex 1.2465 -11.8597 4.7
      vertex 4.9211 -15.1456 4.7
      vertex -1.2465 -11.8597 4.7
    endloop
  endfacet
  facet normal 0 0 -1
    outer loop
      vertex 5.9625 -10.3274 4.7
      vertex 10.6559 -11.8346 4.7
      vertex 3.68503 -11.3413 4.7
    endloop
  endfacet
  facet normal 0 0 -1
    outer loop
      vertex 7.97938 -8.862 4.7
      vertex 10.6559 -11.8346 4.7
      vertex 5.9625 -10.3274 4.7
    endloop
  endfacet
  facet normal 0 0 -1
    outer loop
      vertex 3.68503 -11.3413 4.7
      vertex 7.9625 -13.7915 4.7
      vertex 1.2465 -11.8597 4.7
    endloop
  endfacet
  facet normal 0 0 -1
    outer loop
      vertex 11.6644 2.47935 4.7
      vertex 15.577 3.31099 4.7
      vertex 11.925 0 4.7
    endloop
  endfacet
  facet normal 0 0 -1
    outer loop
      vertex 9.64753 7.00934 4.7
      vertex 14.5482 6.47728 4.7
      vertex 10.894 4.85033 4.7
    endloop
  endfacet
  facet normal 0 0 -1
    outer loop
      vertex 10.894 4.85033 4.7
      vertex 15.577 3.31099 4.7
      vertex 11.6644 2.47935 4.7
    endloop
  endfacet
  facet normal 0 0 -1
    outer loop
      vertex 11.925 0 4.7
      vertex 15.925 0 4.7
      vertex 11.6644 -2.47935 4.7
    endloop
  endfacet
  facet normal 0 0 -1
    outer loop
      vertex 11.6644 -2.47935 4.7
      vertex 15.577 -3.31099 4.7
      vertex 10.894 -4.85033 4.7
    endloop
  endfacet
  facet normal 0 0 -1
    outer loop
      vertex -1.2465 11.8597 4.7
      vertex 1.66462 15.8378 4.7
      vertex 1.2465 11.8597 4.7
    endloop
  endfacet
  facet normal 0 0 -1
    outer loop
      vertex -3.68503 11.3413 4.7
      vertex 1.66462 15.8378 4.7
      vertex -1.2465 11.8597 4.7
    endloop
  endfacet
  facet normal 0 0 -1
    outer loop
      vertex 1.2465 11.8597 4.7
      vertex 4.9211 15.1456 4.7
      vertex 3.68503 11.3413 4.7
    endloop
  endfacet
  facet normal 0 0 -1
    outer loop
      vertex -7.97938 8.862 4.7
      vertex -4.9211 15.1456 4.7
      vertex -5.9625 10.3274 4.7
    endloop
  endfacet
  facet normal 0 0 -1
    outer loop
      vertex -10.894 4.85033 4.7
      vertex -7.9625 13.7915 4.7
      vertex -9.64753 7.00934 4.7
    endloop
  endfacet
  facet normal 0 0 -1
    outer loop
      vertex -11.6644 2.47935 4.7
      vertex -15.577 -3.31099 4.7
      vertex -10.894 4.85033 4.7
    endloop
  endfacet
  facet normal 0 0 -1
    outer loop
      vertex -15.577 -3.31099 4.7
      vertex -7.9625 13.7915 4.7
      vertex -10.894 4.85033 4.7
    endloop
  endfacet
  facet normal 0 0 -1
    outer loop
      vertex 3.68503 11.3413 4.7
      vertex 7.9625 13.7915 4.7
      vertex 5.9625 10.3274 4.7
    endloop
  endfacet
  facet normal 0 0 -1
    outer loop
      vertex -11.925 0 4.7
      vertex -15.577 -3.31099 4.7
      vertex -11.6644 2.47935 4.7
    endloop
  endfacet
  facet normal 0 0 -1
    outer loop
      vertex -9.64753 7.00934 4.7
      vertex -4.9211 15.1456 4.7
      vertex -7.97938 8.862 4.7
    endloop
  endfacet
  facet normal 0 0 -1
    outer loop
      vertex -5.9625 10.3274 4.7
      vertex -1.66462 15.8378 4.7
      vertex -3.68503 11.3413 4.7
    endloop
  endfacet
  facet normal 0 0 -1
    outer loop
      vertex 5.9625 10.3274 4.7
      vertex 10.6559 11.8346 4.7
      vertex 7.97938 8.862 4.7
    endloop
  endfacet
  facet normal 0 0 -1
    outer loop
      vertex 7.97938 8.862 4.7
      vertex 12.8836 9.36048 4.7
      vertex 9.64753 7.00934 4.7
    endloop
  endfacet
  facet normal 0 0 -1
    outer loop
      vertex 9.64753 -7.00934 4.7
      vertex 12.8836 -9.36048 4.7
      vertex 7.97938 -8.862 4.7
    endloop
  endfacet
  facet normal 0.994522 -0.104529 0
    outer loop
      vertex -11.6644 2.47935 4.7
      vertex -11.6644 2.47935 12.7
      vertex -11.925 0 12.7
    endloop
  endfacet
  facet normal 0.994522 -0.104529 0
    outer loop
      vertex -11.925 0 4.7
      vertex -11.6644 2.47935 4.7
      vertex -11.925 0 12.7
    endloop
  endfacet
  facet normal 0.994522 0.104529 0
    outer loop
      vertex -11.925 0 12.7
      vertex -11.6644 -2.47935 12.7
      vertex -11.6644 -2.47935 4.7
    endloop
  endfacet
  facet normal 0.994522 0.104529 0
    outer loop
      vertex -11.925 0 4.7
      vertex -11.925 0 12.7
      vertex -11.6644 -2.47935 4.7
    endloop
  endfacet
  facet normal 0.951057 -0.309017 0
    outer loop
      vertex -10.894 4.85033 4.7
      vertex -10.894 4.85033 12.7
      vertex -11.6644 2.47935 12.7
    endloop
  endfacet
  facet normal 0.951057 -0.309017 0
    outer loop
      vertex -11.6644 2.47935 4.7
      vertex -10.894 4.85033 4.7
      vertex -11.6644 2.47935 12.7
    endloop
  endfacet
  facet normal 0.866025 -0.5 0
    outer loop
      vertex -9.64753 7.00934 4.7
      vertex -9.64753 7.00934 12.7
      vertex -10.894 4.85033 12.7
    endloop
  endfacet
  facet normal 0.866025 -0.5 0
    outer loop
      vertex -10.894 4.85033 4.7
      vertex -9.64753 7.00934 4.7
      vertex -10.894 4.85033 12.7
    endloop
  endfacet
  facet normal 0.743145 -0.669131 0
    outer loop
      vertex -7.97938 8.862 4.7
      vertex -7.97938 8.862 12.7
      vertex -9.64753 7.00934 12.7
    endloop
  endfacet
  facet normal 0.743145 -0.669131 0
    outer loop
      vertex -9.64753 7.00934 4.7
      vertex -7.97938 8.862 4.7
      vertex -9.64753 7.00934 12.7
    endloop
  endfacet
  facet normal 0.587785 -0.809017 0
    outer loop
      vertex -5.9625 10.3274 4.7
      vertex -5.9625 10.3274 12.7
      vertex -7.97938 8.862 12.7
    endloop
  endfacet
  facet normal 0.587785 -0.809017 0
    outer loop
      vertex -7.97938 8.862 4.7
      vertex -5.9625 10.3274 4.7
      vertex -7.97938 8.862 12.7
    endloop
  endfacet
  facet normal 0.406737 -0.913545 0
    outer loop
      vertex -3.68503 11.3413 4.7
      vertex -3.68503 11.3413 12.7
      vertex -5.9625 10.3274 12.7
    endloop
  endfacet
  facet normal 0.406737 -0.913545 0
    outer loop
      vertex -5.9625 10.3274 4.7
      vertex -3.68503 11.3413 4.7
      vertex -5.9625 10.3274 12.7
    endloop
  endfacet
  facet normal 0.207912 -0.978148 0
    outer loop
      vertex -1.2465 11.8597 4.7
      vertex -1.2465 11.8597 12.7
      vertex -3.68503 11.3413 12.7
    endloop
  endfacet
  facet normal 0.207912 -0.978148 0
    outer loop
      vertex -3.68503 11.3413 4.7
      vertex -1.2465 11.8597 4.7
      vertex -3.68503 11.3413 12.7
    endloop
  endfacet
  facet normal 0 -1 0
    outer loop
      vertex 1.2465 11.8597 4.7
      vertex 1.2465 11.8597 12.7
      vertex -1.2465 11.8597 12.7
    endloop
  endfacet
  facet normal 0 -1 0
    outer loop
      vertex -1.2465 11.8597 4.7
      vertex 1.2465 11.8597 4.7
      vertex -1.2465 11.8597 12.7
    endloop
  endfacet
  facet normal -0.207912 -0.978148 0
    outer loop
      vertex 3.68503 11.3413 4.7
      vertex 3.68503 11.3413 12.7
      vertex 1.2465 11.8597 12.7
    endloop
  endfacet
  facet normal -0.207912 -0.978148 0
    outer loop
      vertex 1.2465 11.8597 4.7
      vertex 3.68503 11.3413 4.7
      vertex 1.2465 11.8597 12.7
    endloop
  endfacet
  facet normal -0.406737 -0.913545 0
    outer loop
      vertex 5.9625 10.3274 4.7
      vertex 5.9625 10.3274 12.7
      vertex 3.68503 11.3413 12.7
    endloop
  endfacet
  facet normal -0.406737 -0.913545 0
    outer loop
      vertex 3.68503 11.3413 4.7
      vertex 5.9625 10.3274 4.7
      vertex 3.68503 11.3413 12.7
    endloop
  endfacet
  facet normal -0.587785 -0.809017 0
    outer loop
      vertex 7.97938 8.862 4.7
      vertex 7.97938 8.862 12.7
      vertex 5.9625 10.3274 12.7
    endloop
  endfacet
  facet normal -0.587785 -0.809017 0
    outer loop
      vertex 5.9625 10.3274 4.7
      vertex 7.97938 8.862 4.7
      vertex 5.9625 10.3274 12.7
    endloop
  endfacet
  facet normal -0.743145 -0.669131 0
    outer loop
      vertex 9.64753 7.00934 12.7
      vertex 7.97938 8.862 12.7
      vertex 9.64753 7.00934 4.7
    endloop
  endfacet
  facet normal -0.743145 -0.669131 0
    outer loop
      vertex 9.64753 7.00934 4.7
      vertex 7.97938 8.862 12.7
      vertex 7.97938 8.862 4.7
    endloop
  endfacet
  facet normal -0.866025 -0.5 0
    outer loop
      vertex 10.894 4.85033 12.7
      vertex 9.64753 7.00934 12.7
      vertex 10.894 4.85033 4.7
    endloop
  endfacet
  facet normal -0.866025 -0.5 0
    outer loop
      vertex 10.894 4.85033 4.7
      vertex 9.64753 7.00934 12.7
      vertex 9.64753 7.00934 4.7
    endloop
  endfacet
  facet normal -0.951057 -0.309017 0
    outer loop
      vertex 11.6644 2.47935 12.7
      vertex 10.894 4.85033 12.7
      vertex 11.6644 2.47935 4.7
    endloop
  endfacet
  facet normal -0.951057 -0.309017 0
    outer loop
      vertex 11.6644 2.47935 4.7
      vertex 10.894 4.85033 12.7
      vertex 10.894 4.85033 4.7
    endloop
  endfacet
  facet normal -0.994522 -0.104529 0
    outer loop
      vertex 11.925 0 12.7
      vertex 11.6644 2.47935 12.7
      vertex 11.925 0 4.7
    endloop
  endfacet
  facet normal -0.994522 -0.104529 0
    outer loop
      vertex 11.925 0 4.7
      vertex 11.6644 2.47935 12.7
      vertex 11.6644 2.47935 4.7
    endloop
  endfacet
  facet normal -0.994522 0.104529 0
    outer loop
      vertex 11.925 0 12.7
      vertex 11.925 0 4.7
      vertex 11.6644 -2.47935 12.7
    endloop
  endfacet
  facet normal -0.994522 0.104529 0
    outer loop
      vertex 11.6644 -2.47935 12.7
      vertex 11.925 0 4.7
      vertex 11.6644 -2.47935 4.7
    endloop
  endfacet
  facet normal -0.951057 0.309017 0
    outer loop
      vertex 11.6644 -2.47935 12.7
      vertex 11.6644 -2.47935 4.7
      vertex 10.894 -4.85033 12.7
    endloop
  endfacet
  facet normal -0.951057 0.309017 0
    outer loop
      vertex 10.894 -4.85033 12.7
      vertex 11.6644 -2.47935 4.7
      vertex 10.894 -4.85033 4.7
    endloop
  endfacet
  facet normal -0.866025 0.5 0
    outer loop
      vertex 10.894 -4.85033 12.7
      vertex 10.894 -4.85033 4.7
      vertex 9.64753 -7.00934 12.7
    endloop
  endfacet
  facet normal -0.866025 0.5 0
    outer loop
      vertex 9.64753 -7.00934 12.7
      vertex 10.894 -4.85033 4.7
      vertex 9.64753 -7.00934 4.7
    endloop
  endfacet
  facet normal -0.743145 0.669131 0
    outer loop
      vertex 9.64753 -7.00934 12.7
      vertex 9.64753 -7.00934 4.7
      vertex 7.97938 -8.862 12.7
    endloop
  endfacet
  facet normal -0.743145 0.669131 0
    outer loop
      vertex 7.97938 -8.862 12.7
      vertex 9.64753 -7.00934 4.7
      vertex 7.97938 -8.862 4.7
    endloop
  endfacet
  facet normal -0.587785 0.809017 0
    outer loop
      vertex 7.97938 -8.862 12.7
      vertex 7.97938 -8.862 4.7
      vertex 5.9625 -10.3274 12.7
    endloop
  endfacet
  facet normal -0.587785 0.809017 0
    outer loop
      vertex 5.9625 -10.3274 12.7
      vertex 7.97938 -8.862 4.7
      vertex 5.9625 -10.3274 4.7
    endloop
  endfacet
  facet normal -0.406737 0.913545 0
    outer loop
      vertex 5.9625 -10.3274 12.7
      vertex 5.9625 -10.3274 4.7
      vertex 3.68503 -11.3413 12.7
    endloop
  endfacet
  facet normal -0.406737 0.913545 0
    outer loop
      vertex 3.68503 -11.3413 12.7
      vertex 5.9625 -10.3274 4.7
      vertex 3.68503 -11.3413 4.7
    endloop
  endfacet
  facet normal -0.207912 0.978148 0
    outer loop
      vertex 3.68503 -11.3413 12.7
      vertex 3.68503 -11.3413 4.7
      vertex 1.2465 -11.8597 12.7
    endloop
  endfacet
  facet normal -0.207912 0.978148 0
    outer loop
      vertex 1.2465 -11.8597 12.7
      vertex 3.68503 -11.3413 4.7
      vertex 1.2465 -11.8597 4.7
    endloop
  endfacet
  facet normal 0 1 0
    outer loop
      vertex 1.2465 -11.8597 12.7
      vertex 1.2465 -11.8597 4.7
      vertex -1.2465 -11.8597 12.7
    endloop
  endfacet
  facet normal 0 1 0
    outer loop
      vertex -1.2465 -11.8597 12.7
      vertex 1.2465 -11.8597 4.7
      vertex -1.2465 -11.8597 4.7
    endloop
  endfacet
  facet normal 0.207912 0.978148 0
    outer loop
      vertex -1.2465 -11.8597 12.7
      vertex -1.2465 -11.8597 4.7
      vertex -3.68503 -11.3413 12.7
    endloop
  endfacet
  facet normal 0.207912 0.978148 0
    outer loop
      vertex -3.68503 -11.3413 12.7
      vertex -1.2465 -11.8597 4.7
      vertex -3.68503 -11.3413 4.7
    endloop
  endfacet
  facet normal 0.406737 0.913545 0
    outer loop
      vertex -3.68503 -11.3413 12.7
      vertex -3.68503 -11.3413 4.7
      vertex -5.9625 -10.3274 12.7
    endloop
  endfacet
  facet normal 0.406737 0.913545 0
    outer loop
      vertex -5.9625 -10.3274 12.7
      vertex -3.68503 -11.3413 4.7
      vertex -5.9625 -10.3274 4.7
    endloop
  endfacet
  facet normal 0.587785 0.809017 0
    outer loop
      vertex -5.9625 -10.3274 12.7
      vertex -5.9625 -10.3274 4.7
      vertex -7.97938 -8.862 12.7
    endloop
  endfacet
  facet normal 0.587785 0.809017 0
    outer loop
      vertex -7.97938 -8.862 12.7
      vertex -5.9625 -10.3274 4.7
      vertex -7.97938 -8.862 4.7
    endloop
  endfacet
  facet normal 0.743145 0.669131 0
    outer loop
      vertex -9.64753 -7.00934 12.7
      vertex -7.97938 -8.862 12.7
      vertex -7.97938 -8.862 4.7
    endloop
  endfacet
  facet normal 0.743145 0.669131 0
    outer loop
      vertex -9.64753 -7.00934 4.7
      vertex -9.64753 -7.00934 12.7
      vertex -7.97938 -8.862 4.7
    endloop
  endfacet
  facet normal 0.866025 0.5 0
    outer loop
      vertex -10.894 -4.85033 12.7
      vertex -9.64753 -7.00934 12.7
      vertex -9.64753 -7.00934 4.7
    endloop
  endfacet
  facet normal 0.866025 0.5 0
    outer loop
      vertex -10.894 -4.85033 4.7
      vertex -10.894 -4.85033 12.7
      vertex -9.64753 -7.00934 4.7
    endloop
  endfacet
  facet normal 0.951057 0.309017 0
    outer loop
      vertex -11.6644 -2.47935 12.7
      vertex -10.894 -4.85033 12.7
      vertex -10.894 -4.85033 4.7
    endloop
  endfacet
  facet normal 0.951057 0.309017 0
    outer loop
      vertex -11.6644 -2.47935 4.7
      vertex -11.6644 -2.47935 12.7
      vertex -10.894 -4.85033 4.7
    endloop
  endfacet
  facet normal 0 0 -1
    outer loop
      vertex -10.894 4.85033 12.7
      vertex -9.64753 7.00934 12.7
      vertex -11.6644 2.47935 12.7
    endloop
  endfacet
  facet normal 0 0 -1
    outer loop
      vertex -11.6644 2.47935 12.7
      vertex -9.64753 7.00934 12.7
      vertex -7.97938 8.862 12.7
    endloop
  endfacet
  facet normal 0 0 -1
    outer loop
      vertex -11.6644 2.47935 12.7
      vertex -7.97938 8.862 12.7
      vertex -5.9625 10.3274 12.7
    endloop
  endfacet
  facet normal 0 0 -1
    outer loop
      vertex -11.6644 2.47935 12.7
      vertex -5.9625 10.3274 12.7
      vertex -3.68503 11.3413 12.7
    endloop
  endfacet
  facet normal 0 0 -1
    outer loop
      vertex -11.6644 2.47935 12.7
      vertex -3.68503 11.3413 12.7
      vertex -1.2465 11.8597 12.7
    endloop
  endfacet
  facet normal 0 0 -1
    outer loop
      vertex -11.6644 2.47935 12.7
      vertex -1.2465 11.8597 12.7
      vertex 1.2465 11.8597 12.7
    endloop
  endfacet
  facet normal 0 0 -1
    outer loop
      vertex -11.6644 2.47935 12.7
      vertex 1.2465 11.8597 12.7
      vertex 3.68503 11.3413 12.7
    endloop
  endfacet
  facet normal 0 0 -1
    outer loop
      vertex -11.6644 2.47935 12.7
      vertex 3.68503 11.3413 12.7
      vertex 5.9625 10.3274 12.7
    endloop
  endfacet
  facet normal 0 0 -1
    outer loop
      vertex -11.6644 2.47935 12.7
      vertex 5.9625 10.3274 12.7
      vertex 7.97938 8.862 12.7
    endloop
  endfacet
  facet normal 0 0 -1
    outer loop
      vertex -11.6644 2.47935 12.7
      vertex 7.97938 8.862 12.7
      vertex 9.64753 7.00934 12.7
    endloop
  endfacet
  facet normal 0 0 -1
    outer loop
      vertex -11.6644 2.47935 12.7
      vertex 9.64753 7.00934 12.7
      vertex 10.894 4.85033 12.7
    endloop
  endfacet
  facet normal 0 0 -1
    outer loop
      vertex -11.6644 2.47935 12.7
      vertex 10.894 4.85033 12.7
      vertex 11.6644 2.47935 12.7
    endloop
  endfacet
  facet normal 0 0 -1
    outer loop
      vertex -11.6644 2.47935 12.7
      vertex 11.6644 2.47935 12.7
      vertex 11.925 0 12.7
    endloop
  endfacet
  facet normal 0 0 -1
    outer loop
      vertex -11.6644 2.47935 12.7
      vertex 11.925 0 12.7
      vertex 11.6644 -2.47935 12.7
    endloop
  endfacet
  facet normal 0 0 -1
    outer loop
      vertex -11.6644 2.47935 12.7
      vertex 11.6644 -2.47935 12.7
      vertex 10.894 -4.85033 12.7
    endloop
  endfacet
  facet normal 0 0 -1
    outer loop
      vertex -11.6644 2.47935 12.7
      vertex 10.894 -4.85033 12.7
      vertex 9.64753 -7.00934 12.7
    endloop
  endfacet
  facet normal 0 0 -1
    outer loop
      vertex -11.6644 2.47935 12.7
      vertex 9.64753 -7.00934 12.7
      vertex 7.97938 -8.862 12.7
    endloop
  endfacet
  facet normal 0 0 -1
    outer loop
      vertex -11.6644 2.47935 12.7
      vertex 7.97938 -8.862 12.7
      vertex 5.9625 -10.3274 12.7
    endloop
  endfacet
  facet normal 0 0 -1
    outer loop
      vertex -11.6644 2.47935 12.7
      vertex 5.9625 -10.3274 12.7
      vertex 3.68503 -11.3413 12.7
    endloop
  endfacet
  facet normal 0 0 -1
    outer loop
      vertex -11.6644 2.47935 12.7
      vertex 3.68503 -11.3413 12.7
      vertex 1.2465 -11.8597 12.7
    endloop
  endfacet
  facet normal 0 0 -1
    outer loop
      vertex -11.6644 2.47935 12.7
      vertex 1.2465 -11.8597 12.7
      vertex -1.2465 -11.8597 12.7
    endloop
  endfacet
  facet normal 0 0 -1
    outer loop
      vertex -11.6644 2.47935 12.7
      vertex -1.2465 -11.8597 12.7
      vertex -3.68503 -11.3413 12.7
    endloop
  endfacet
  facet normal 0 0 -1
    outer loop
      vertex -11.6644 2.47935 12.7
      vertex -3.68503 -11.3413 12.7
      vertex -5.9625 -10.3274 12.7
    endloop
  endfacet
  facet normal 0 0 -1
    outer loop
      vertex -11.6644 2.47935 12.7
      vertex -5.9625 -10.3274 12.7
      vertex -7.97938 -8.862 12.7
    endloop
  endfacet
  facet normal 0 0 -1
    outer loop
      vertex -11.6644 2.47935 12.7
      vertex -7.97938 -8.862 12.7
      vertex -9.64753 -7.00934 12.7
    endloop
  endfacet
  facet normal 0 0 -1
    outer loop
      vertex -11.6644 2.47935 12.7
      vertex -9.64753 -7.00934 12.7
      vertex -10.894 -4.85033 12.7
    endloop
  endfacet
  facet normal 0 0 -1
    outer loop
      vertex -11.6644 2.47935 12.7
      vertex -10.894 -4.85033 12.7
      vertex -11.6644 -2.47935 12.7
    endloop
  endfacet
  facet normal 0 0 -1
    outer loop
      vertex -11.6644 2.47935 12.7
      vertex -11.6644 -2.47935 12.7
      vertex -11.925 0 12.7
    endloop
  endfacet
endsolid OpenSCAD_Model
