solid OpenSCAD_Model
  facet normal 0 0 -1
    outer loop
      vertex -41.55 0 -12.7
      vertex -40.642 8.63873 -12.7
      vertex -40.642 -8.63873 -12.7
    endloop
  endfacet
  facet normal 0 0 -1
    outer loop
      vertex -40.642 -8.63873 -12.7
      vertex -40.642 8.63873 -12.7
      vertex -37.9578 16.8999 -12.7
    endloop
  endfacet
  facet normal 0 0 -1
    outer loop
      vertex -37.7076 8.015 -12.7
      vertex -37.9578 16.8999 -12.7
      vertex -33.6147 24.4225 -12.7
    endloop
  endfacet
  facet normal 0 0 -1
    outer loop
      vertex -31.1876 22.6591 -12.7
      vertex -33.6147 24.4225 -12.7
      vertex -27.8024 30.8777 -12.7
    endloop
  endfacet
  facet normal 0 0 -1
    outer loop
      vertex -25.795 28.6482 -12.7
      vertex -27.8024 30.8777 -12.7
      vertex -20.775 35.9834 -12.7
    endloop
  endfacet
  facet normal 0 0 -1
    outer loop
      vertex -19.275 33.3853 -12.7
      vertex -20.775 35.9834 -12.7
      vertex -12.8397 39.5164 -12.7
    endloop
  endfacet
  facet normal 0 0 -1
    outer loop
      vertex -11.9126 36.6632 -12.7
      vertex -12.8397 39.5164 -12.7
      vertex -4.34316 41.3224 -12.7
    endloop
  endfacet
  facet normal 0 0 -1
    outer loop
      vertex -4.02957 38.3388 -12.7
      vertex -4.34316 41.3224 -12.7
      vertex 4.34316 41.3224 -12.7
    endloop
  endfacet
  facet normal 0 0 -1
    outer loop
      vertex 4.02957 38.3388 -12.7
      vertex 4.34316 41.3224 -12.7
      vertex 12.8397 39.5164 -12.7
    endloop
  endfacet
  facet normal 0 0 -1
    outer loop
      vertex 11.9126 36.6632 -12.7
      vertex 12.8397 39.5164 -12.7
      vertex 20.775 35.9834 -12.7
    endloop
  endfacet
  facet normal 0 0 -1
    outer loop
      vertex 19.275 33.3853 -12.7
      vertex 20.775 35.9834 -12.7
      vertex 27.8024 30.8777 -12.7
    endloop
  endfacet
  facet normal 0 0 -1
    outer loop
      vertex 25.795 28.6482 -12.7
      vertex 27.8024 30.8777 -12.7
      vertex 33.6147 24.4225 -12.7
    endloop
  endfacet
  facet normal 0 0 -1
    outer loop
      vertex 31.1876 22.6591 -12.7
      vertex 33.6147 24.4225 -12.7
      vertex 37.9578 16.8999 -12.7
    endloop
  endfacet
  facet normal 0 0 -1
    outer loop
      vertex 37.7076 8.015 -12.7
      vertex 37.9578 16.8999 -12.7
      vertex 40.642 8.63873 -12.7
    endloop
  endfacet
  facet normal 0 0 -1
    outer loop
      vertex 38.55 0 -12.7
      vertex 40.642 8.63873 -12.7
      vertex 41.55 0 -12.7
    endloop
  endfacet
  facet normal 0 0 -1
    outer loop
      vertex 37.7076 -8.015 -12.7
      vertex 41.55 0 -12.7
      vertex 40.642 -8.63873 -12.7
    endloop
  endfacet
  facet normal 0 0 -1
    outer loop
      vertex 35.2172 -15.6797 -12.7
      vertex 40.642 -8.63873 -12.7
      vertex 37.9578 -16.8999 -12.7
    endloop
  endfacet
  facet normal 0 0 -1
    outer loop
      vertex 31.1876 -22.6591 -12.7
      vertex 37.9578 -16.8999 -12.7
      vertex 33.6147 -24.4225 -12.7
    endloop
  endfacet
  facet normal 0 0 -1
    outer loop
      vertex 25.795 -28.6482 -12.7
      vertex 33.6147 -24.4225 -12.7
      vertex 27.8024 -30.8777 -12.7
    endloop
  endfacet
  facet normal 0 0 -1
    outer loop
      vertex 19.275 -33.3853 -12.7
      vertex 27.8024 -30.8777 -12.7
      vertex 20.775 -35.9834 -12.7
    endloop
  endfacet
  facet normal 0 0 -1
    outer loop
      vertex 11.9126 -36.6632 -12.7
      vertex 20.775 -35.9834 -12.7
      vertex 12.8397 -39.5164 -12.7
    endloop
  endfacet
  facet normal 0 0 -1
    outer loop
      vertex 4.02957 -38.3388 -12.7
      vertex 12.8397 -39.5164 -12.7
      vertex 4.34316 -41.3224 -12.7
    endloop
  endfacet
  facet normal 0 0 -1
    outer loop
      vertex -4.02957 -38.3388 -12.7
      vertex 4.34316 -41.3224 -12.7
      vertex -4.34316 -41.3224 -12.7
    endloop
  endfacet
  facet normal 0 0 -1
    outer loop
      vertex -11.9126 -36.6632 -12.7
      vertex -4.34316 -41.3224 -12.7
      vertex -12.8397 -39.5164 -12.7
    endloop
  endfacet
  facet normal 0 0 -1
    outer loop
      vertex -25.795 -28.6482 -12.7
      vertex -12.8397 -39.5164 -12.7
      vertex -20.775 -35.9834 -12.7
    endloop
  endfacet
  facet normal 0 0 -1
    outer loop
      vertex -31.1876 -22.6591 -12.7
      vertex -20.775 -35.9834 -12.7
      vertex -27.8024 -30.8777 -12.7
    endloop
  endfacet
  facet normal 0 0 -1
    outer loop
      vertex -40.642 -8.63873 -12.7
      vertex -27.8024 -30.8777 -12.7
      vertex -33.6147 -24.4225 -12.7
    endloop
  endfacet
  facet normal 0 0 -1
    outer loop
      vertex -40.642 -8.63873 -12.7
      vertex -33.6147 -24.4225 -12.7
      vertex -37.9578 -16.8999 -12.7
    endloop
  endfacet
  facet normal 0 0 -1
    outer loop
      vertex -37.7076 -8.015 -12.7
      vertex -40.642 -8.63873 -12.7
      vertex -38.55 0 -12.7
    endloop
  endfacet
  facet normal 0 0 -1
    outer loop
      vertex -35.2172 -15.6797 -12.7
      vertex -40.642 -8.63873 -12.7
      vertex -37.7076 -8.015 -12.7
    endloop
  endfacet
  facet normal 0 0 -1
    outer loop
      vertex -31.1876 -22.6591 -12.7
      vertex -40.642 -8.63873 -12.7
      vertex -35.2172 -15.6797 -12.7
    endloop
  endfacet
  facet normal 0 0 -1
    outer loop
      vertex -25.795 -28.6482 -12.7
      vertex -20.775 -35.9834 -12.7
      vertex -31.1876 -22.6591 -12.7
    endloop
  endfacet
  facet normal 0 0 -1
    outer loop
      vertex -40.642 -8.63873 -12.7
      vertex -31.1876 -22.6591 -12.7
      vertex -27.8024 -30.8777 -12.7
    endloop
  endfacet
  facet normal 0 0 -1
    outer loop
      vertex -19.275 -33.3853 -12.7
      vertex -12.8397 -39.5164 -12.7
      vertex -25.795 -28.6482 -12.7
    endloop
  endfacet
  facet normal 0 0 -1
    outer loop
      vertex -11.9126 -36.6632 -12.7
      vertex -12.8397 -39.5164 -12.7
      vertex -19.275 -33.3853 -12.7
    endloop
  endfacet
  facet normal 0 0 -1
    outer loop
      vertex 37.7076 8.015 -12.7
      vertex 40.642 8.63873 -12.7
      vertex 38.55 0 -12.7
    endloop
  endfacet
  facet normal 0 0 -1
    outer loop
      vertex 35.2172 15.6797 -12.7
      vertex 37.9578 16.8999 -12.7
      vertex 37.7076 8.015 -12.7
    endloop
  endfacet
  facet normal 0 0 -1
    outer loop
      vertex 38.55 0 -12.7
      vertex 41.55 0 -12.7
      vertex 37.7076 -8.015 -12.7
    endloop
  endfacet
  facet normal 0 0 -1
    outer loop
      vertex 37.7076 -8.015 -12.7
      vertex 40.642 -8.63873 -12.7
      vertex 35.2172 -15.6797 -12.7
    endloop
  endfacet
  facet normal 0 0 -1
    outer loop
      vertex 35.2172 -15.6797 -12.7
      vertex 37.9578 -16.8999 -12.7
      vertex 31.1876 -22.6591 -12.7
    endloop
  endfacet
  facet normal 0 0 -1
    outer loop
      vertex 31.1876 -22.6591 -12.7
      vertex 33.6147 -24.4225 -12.7
      vertex 25.795 -28.6482 -12.7
    endloop
  endfacet
  facet normal 0 0 -1
    outer loop
      vertex 25.795 -28.6482 -12.7
      vertex 27.8024 -30.8777 -12.7
      vertex 19.275 -33.3853 -12.7
    endloop
  endfacet
  facet normal 0 0 -1
    outer loop
      vertex 19.275 -33.3853 -12.7
      vertex 20.775 -35.9834 -12.7
      vertex 11.9126 -36.6632 -12.7
    endloop
  endfacet
  facet normal 0 0 -1
    outer loop
      vertex 11.9126 -36.6632 -12.7
      vertex 12.8397 -39.5164 -12.7
      vertex 4.02957 -38.3388 -12.7
    endloop
  endfacet
  facet normal 0 0 -1
    outer loop
      vertex 4.02957 -38.3388 -12.7
      vertex 4.34316 -41.3224 -12.7
      vertex -4.02957 -38.3388 -12.7
    endloop
  endfacet
  facet normal 0 0 -1
    outer loop
      vertex -4.02957 -38.3388 -12.7
      vertex -4.34316 -41.3224 -12.7
      vertex -11.9126 -36.6632 -12.7
    endloop
  endfacet
  facet normal 0 0 -1
    outer loop
      vertex -35.2172 15.6797 -12.7
      vertex -33.6147 24.4225 -12.7
      vertex -31.1876 22.6591 -12.7
    endloop
  endfacet
  facet normal 0 0 -1
    outer loop
      vertex -37.7076 8.015 -12.7
      vertex -33.6147 24.4225 -12.7
      vertex -35.2172 15.6797 -12.7
    endloop
  endfacet
  facet normal 0 0 -1
    outer loop
      vertex -40.642 -8.63873 -12.7
      vertex -37.9578 16.8999 -12.7
      vertex -37.7076 8.015 -12.7
    endloop
  endfacet
  facet normal 0 0 -1
    outer loop
      vertex -38.55 0 -12.7
      vertex -40.642 -8.63873 -12.7
      vertex -37.7076 8.015 -12.7
    endloop
  endfacet
  facet normal 0 0 -1
    outer loop
      vertex -31.1876 22.6591 -12.7
      vertex -27.8024 30.8777 -12.7
      vertex -25.795 28.6482 -12.7
    endloop
  endfacet
  facet normal 0 0 -1
    outer loop
      vertex -25.795 28.6482 -12.7
      vertex -20.775 35.9834 -12.7
      vertex -19.275 33.3853 -12.7
    endloop
  endfacet
  facet normal 0 0 -1
    outer loop
      vertex -19.275 33.3853 -12.7
      vertex -12.8397 39.5164 -12.7
      vertex -11.9126 36.6632 -12.7
    endloop
  endfacet
  facet normal 0 0 -1
    outer loop
      vertex -11.9126 36.6632 -12.7
      vertex -4.34316 41.3224 -12.7
      vertex -4.02957 38.3388 -12.7
    endloop
  endfacet
  facet normal 0 0 -1
    outer loop
      vertex -4.02957 38.3388 -12.7
      vertex 4.34316 41.3224 -12.7
      vertex 4.02957 38.3388 -12.7
    endloop
  endfacet
  facet normal 0 0 -1
    outer loop
      vertex 4.02957 38.3388 -12.7
      vertex 12.8397 39.5164 -12.7
      vertex 11.9126 36.6632 -12.7
    endloop
  endfacet
  facet normal 0 0 -1
    outer loop
      vertex 11.9126 36.6632 -12.7
      vertex 20.775 35.9834 -12.7
      vertex 19.275 33.3853 -12.7
    endloop
  endfacet
  facet normal 0 0 -1
    outer loop
      vertex 19.275 33.3853 -12.7
      vertex 27.8024 30.8777 -12.7
      vertex 25.795 28.6482 -12.7
    endloop
  endfacet
  facet normal 0 0 -1
    outer loop
      vertex 25.795 28.6482 -12.7
      vertex 33.6147 24.4225 -12.7
      vertex 31.1876 22.6591 -12.7
    endloop
  endfacet
  facet normal 0 0 -1
    outer loop
      vertex 31.1876 22.6591 -12.7
      vertex 37.9578 16.8999 -12.7
      vertex 35.2172 15.6797 -12.7
    endloop
  endfacet
  facet normal -0.994522 0.104528 0
    outer loop
      vertex -41.55 0 -12.7
      vertex -41.55 0 15.7
      vertex -40.642 8.63873 -12.7
    endloop
  endfacet
  facet normal -0.994522 0.104528 0
    outer loop
      vertex -40.642 8.63873 -12.7
      vertex -41.55 0 15.7
      vertex -40.642 8.63873 15.7
    endloop
  endfacet
  facet normal -0.994522 -0.104528 0
    outer loop
      vertex -41.55 0 -12.7
      vertex -40.642 -8.63873 -12.7
      vertex -41.55 0 15.7
    endloop
  endfacet
  facet normal -0.994522 -0.104528 0
    outer loop
      vertex -41.55 0 15.7
      vertex -40.642 -8.63873 -12.7
      vertex -40.642 -8.63873 15.7
    endloop
  endfacet
  facet normal -0.951057 -0.309017 0
    outer loop
      vertex -40.642 -8.63873 -12.7
      vertex -37.9578 -16.8999 -12.7
      vertex -40.642 -8.63873 15.7
    endloop
  endfacet
  facet normal -0.951057 -0.309017 0
    outer loop
      vertex -40.642 -8.63873 15.7
      vertex -37.9578 -16.8999 -12.7
      vertex -37.9578 -16.8999 15.7
    endloop
  endfacet
  facet normal -0.866025 -0.5 0
    outer loop
      vertex -37.9578 -16.8999 -12.7
      vertex -33.6147 -24.4225 -12.7
      vertex -37.9578 -16.8999 15.7
    endloop
  endfacet
  facet normal -0.866025 -0.5 0
    outer loop
      vertex -37.9578 -16.8999 15.7
      vertex -33.6147 -24.4225 -12.7
      vertex -33.6147 -24.4225 15.7
    endloop
  endfacet
  facet normal -0.743145 -0.669131 0
    outer loop
      vertex -33.6147 -24.4225 -12.7
      vertex -27.8024 -30.8777 -12.7
      vertex -33.6147 -24.4225 15.7
    endloop
  endfacet
  facet normal -0.743145 -0.669131 0
    outer loop
      vertex -33.6147 -24.4225 15.7
      vertex -27.8024 -30.8777 -12.7
      vertex -27.8024 -30.8777 15.7
    endloop
  endfacet
  facet normal -0.587785 -0.809017 0
    outer loop
      vertex -27.8024 -30.8777 15.7
      vertex -27.8024 -30.8777 -12.7
      vertex -20.775 -35.9834 -12.7
    endloop
  endfacet
  facet normal -0.587785 -0.809017 0
    outer loop
      vertex -20.775 -35.9834 15.7
      vertex -27.8024 -30.8777 15.7
      vertex -20.775 -35.9834 -12.7
    endloop
  endfacet
  facet normal -0.406737 -0.913545 0
    outer loop
      vertex -20.775 -35.9834 15.7
      vertex -20.775 -35.9834 -12.7
      vertex -12.8397 -39.5164 -12.7
    endloop
  endfacet
  facet normal -0.406737 -0.913545 0
    outer loop
      vertex -12.8397 -39.5164 15.7
      vertex -20.775 -35.9834 15.7
      vertex -12.8397 -39.5164 -12.7
    endloop
  endfacet
  facet normal -0.207912 -0.978148 0
    outer loop
      vertex -12.8397 -39.5164 15.7
      vertex -12.8397 -39.5164 -12.7
      vertex -4.34316 -41.3224 -12.7
    endloop
  endfacet
  facet normal -0.207912 -0.978148 0
    outer loop
      vertex -4.34316 -41.3224 15.7
      vertex -12.8397 -39.5164 15.7
      vertex -4.34316 -41.3224 -12.7
    endloop
  endfacet
  facet normal 0 -1 0
    outer loop
      vertex -4.34316 -41.3224 15.7
      vertex -4.34316 -41.3224 -12.7
      vertex 4.34316 -41.3224 -12.7
    endloop
  endfacet
  facet normal 0 -1 0
    outer loop
      vertex 4.34316 -41.3224 15.7
      vertex -4.34316 -41.3224 15.7
      vertex 4.34316 -41.3224 -12.7
    endloop
  endfacet
  facet normal 0.207912 -0.978148 0
    outer loop
      vertex 4.34316 -41.3224 15.7
      vertex 4.34316 -41.3224 -12.7
      vertex 12.8397 -39.5164 -12.7
    endloop
  endfacet
  facet normal 0.207912 -0.978148 0
    outer loop
      vertex 12.8397 -39.5164 15.7
      vertex 4.34316 -41.3224 15.7
      vertex 12.8397 -39.5164 -12.7
    endloop
  endfacet
  facet normal 0.406737 -0.913545 0
    outer loop
      vertex 12.8397 -39.5164 15.7
      vertex 12.8397 -39.5164 -12.7
      vertex 20.775 -35.9834 -12.7
    endloop
  endfacet
  facet normal 0.406737 -0.913545 0
    outer loop
      vertex 20.775 -35.9834 15.7
      vertex 12.8397 -39.5164 15.7
      vertex 20.775 -35.9834 -12.7
    endloop
  endfacet
  facet normal 0.587785 -0.809017 0
    outer loop
      vertex 20.775 -35.9834 15.7
      vertex 20.775 -35.9834 -12.7
      vertex 27.8024 -30.8777 -12.7
    endloop
  endfacet
  facet normal 0.587785 -0.809017 0
    outer loop
      vertex 27.8024 -30.8777 15.7
      vertex 20.775 -35.9834 15.7
      vertex 27.8024 -30.8777 -12.7
    endloop
  endfacet
  facet normal 0.743145 -0.669131 0
    outer loop
      vertex 27.8024 -30.8777 15.7
      vertex 27.8024 -30.8777 -12.7
      vertex 33.6147 -24.4225 -12.7
    endloop
  endfacet
  facet normal 0.743145 -0.669131 0
    outer loop
      vertex 33.6147 -24.4225 15.7
      vertex 27.8024 -30.8777 15.7
      vertex 33.6147 -24.4225 -12.7
    endloop
  endfacet
  facet normal 0.866025 -0.5 0
    outer loop
      vertex 33.6147 -24.4225 15.7
      vertex 33.6147 -24.4225 -12.7
      vertex 37.9578 -16.8999 -12.7
    endloop
  endfacet
  facet normal 0.866025 -0.5 0
    outer loop
      vertex 37.9578 -16.8999 15.7
      vertex 33.6147 -24.4225 15.7
      vertex 37.9578 -16.8999 -12.7
    endloop
  endfacet
  facet normal 0.951057 -0.309017 0
    outer loop
      vertex 37.9578 -16.8999 15.7
      vertex 37.9578 -16.8999 -12.7
      vertex 40.642 -8.63873 -12.7
    endloop
  endfacet
  facet normal 0.951057 -0.309017 0
    outer loop
      vertex 40.642 -8.63873 15.7
      vertex 37.9578 -16.8999 15.7
      vertex 40.642 -8.63873 -12.7
    endloop
  endfacet
  facet normal 0.994522 -0.104528 0
    outer loop
      vertex 40.642 -8.63873 15.7
      vertex 40.642 -8.63873 -12.7
      vertex 41.55 0 -12.7
    endloop
  endfacet
  facet normal 0.994522 -0.104528 0
    outer loop
      vertex 41.55 0 15.7
      vertex 40.642 -8.63873 15.7
      vertex 41.55 0 -12.7
    endloop
  endfacet
  facet normal 0.994522 0.104528 0
    outer loop
      vertex 41.55 0 -12.7
      vertex 40.642 8.63873 -12.7
      vertex 40.642 8.63873 15.7
    endloop
  endfacet
  facet normal 0.994522 0.104528 0
    outer loop
      vertex 41.55 0 15.7
      vertex 41.55 0 -12.7
      vertex 40.642 8.63873 15.7
    endloop
  endfacet
  facet normal 0.951057 0.309017 0
    outer loop
      vertex 40.642 8.63873 -12.7
      vertex 37.9578 16.8999 -12.7
      vertex 37.9578 16.8999 15.7
    endloop
  endfacet
  facet normal 0.951057 0.309017 0
    outer loop
      vertex 40.642 8.63873 15.7
      vertex 40.642 8.63873 -12.7
      vertex 37.9578 16.8999 15.7
    endloop
  endfacet
  facet normal 0.866025 0.5 0
    outer loop
      vertex 37.9578 16.8999 -12.7
      vertex 33.6147 24.4225 -12.7
      vertex 33.6147 24.4225 15.7
    endloop
  endfacet
  facet normal 0.866025 0.5 0
    outer loop
      vertex 37.9578 16.8999 15.7
      vertex 37.9578 16.8999 -12.7
      vertex 33.6147 24.4225 15.7
    endloop
  endfacet
  facet normal 0.743145 0.669131 0
    outer loop
      vertex 33.6147 24.4225 -12.7
      vertex 27.8024 30.8777 -12.7
      vertex 27.8024 30.8777 15.7
    endloop
  endfacet
  facet normal 0.743145 0.669131 0
    outer loop
      vertex 33.6147 24.4225 15.7
      vertex 33.6147 24.4225 -12.7
      vertex 27.8024 30.8777 15.7
    endloop
  endfacet
  facet normal 0.587785 0.809017 0
    outer loop
      vertex 20.775 35.9834 -12.7
      vertex 20.775 35.9834 15.7
      vertex 27.8024 30.8777 -12.7
    endloop
  endfacet
  facet normal 0.587785 0.809017 0
    outer loop
      vertex 27.8024 30.8777 -12.7
      vertex 20.775 35.9834 15.7
      vertex 27.8024 30.8777 15.7
    endloop
  endfacet
  facet normal 0.406737 0.913545 0
    outer loop
      vertex 12.8397 39.5164 -12.7
      vertex 12.8397 39.5164 15.7
      vertex 20.775 35.9834 -12.7
    endloop
  endfacet
  facet normal 0.406737 0.913545 0
    outer loop
      vertex 20.775 35.9834 -12.7
      vertex 12.8397 39.5164 15.7
      vertex 20.775 35.9834 15.7
    endloop
  endfacet
  facet normal 0.207912 0.978148 0
    outer loop
      vertex 4.34316 41.3224 -12.7
      vertex 4.34316 41.3224 15.7
      vertex 12.8397 39.5164 -12.7
    endloop
  endfacet
  facet normal 0.207912 0.978148 0
    outer loop
      vertex 12.8397 39.5164 -12.7
      vertex 4.34316 41.3224 15.7
      vertex 12.8397 39.5164 15.7
    endloop
  endfacet
  facet normal 0 1 0
    outer loop
      vertex -4.34316 41.3224 -12.7
      vertex -4.34316 41.3224 15.7
      vertex 4.34316 41.3224 -12.7
    endloop
  endfacet
  facet normal 0 1 0
    outer loop
      vertex 4.34316 41.3224 -12.7
      vertex -4.34316 41.3224 15.7
      vertex 4.34316 41.3224 15.7
    endloop
  endfacet
  facet normal -0.207912 0.978148 0
    outer loop
      vertex -12.8397 39.5164 -12.7
      vertex -12.8397 39.5164 15.7
      vertex -4.34316 41.3224 -12.7
    endloop
  endfacet
  facet normal -0.207912 0.978148 0
    outer loop
      vertex -4.34316 41.3224 -12.7
      vertex -12.8397 39.5164 15.7
      vertex -4.34316 41.3224 15.7
    endloop
  endfacet
  facet normal -0.406737 0.913545 0
    outer loop
      vertex -20.775 35.9834 -12.7
      vertex -20.775 35.9834 15.7
      vertex -12.8397 39.5164 -12.7
    endloop
  endfacet
  facet normal -0.406737 0.913545 0
    outer loop
      vertex -12.8397 39.5164 -12.7
      vertex -20.775 35.9834 15.7
      vertex -12.8397 39.5164 15.7
    endloop
  endfacet
  facet normal -0.587785 0.809017 0
    outer loop
      vertex -27.8024 30.8777 -12.7
      vertex -27.8024 30.8777 15.7
      vertex -20.775 35.9834 -12.7
    endloop
  endfacet
  facet normal -0.587785 0.809017 0
    outer loop
      vertex -20.775 35.9834 -12.7
      vertex -27.8024 30.8777 15.7
      vertex -20.775 35.9834 15.7
    endloop
  endfacet
  facet normal -0.743145 0.669131 0
    outer loop
      vertex -33.6147 24.4225 -12.7
      vertex -33.6147 24.4225 15.7
      vertex -27.8024 30.8777 -12.7
    endloop
  endfacet
  facet normal -0.743145 0.669131 0
    outer loop
      vertex -27.8024 30.8777 -12.7
      vertex -33.6147 24.4225 15.7
      vertex -27.8024 30.8777 15.7
    endloop
  endfacet
  facet normal -0.866025 0.5 0
    outer loop
      vertex -37.9578 16.8999 -12.7
      vertex -37.9578 16.8999 15.7
      vertex -33.6147 24.4225 -12.7
    endloop
  endfacet
  facet normal -0.866025 0.5 0
    outer loop
      vertex -33.6147 24.4225 -12.7
      vertex -37.9578 16.8999 15.7
      vertex -33.6147 24.4225 15.7
    endloop
  endfacet
  facet normal -0.951057 0.309017 0
    outer loop
      vertex -40.642 8.63873 -12.7
      vertex -40.642 8.63873 15.7
      vertex -37.9578 16.8999 -12.7
    endloop
  endfacet
  facet normal -0.951057 0.309017 0
    outer loop
      vertex -37.9578 16.8999 -12.7
      vertex -40.642 8.63873 15.7
      vertex -37.9578 16.8999 15.7
    endloop
  endfacet
  facet normal 0.994522 -0.104528 0
    outer loop
      vertex -37.7076 8.015 -12.7
      vertex -37.7076 8.015 12.7
      vertex -38.55 0 12.7
    endloop
  endfacet
  facet normal 0.994522 -0.104528 0
    outer loop
      vertex -38.55 0 -12.7
      vertex -37.7076 8.015 -12.7
      vertex -38.55 0 12.7
    endloop
  endfacet
  facet normal 0.994522 0.104528 0
    outer loop
      vertex -38.55 0 12.7
      vertex -37.7076 -8.015 12.7
      vertex -37.7076 -8.015 -12.7
    endloop
  endfacet
  facet normal 0.994522 0.104528 0
    outer loop
      vertex -38.55 0 -12.7
      vertex -38.55 0 12.7
      vertex -37.7076 -8.015 -12.7
    endloop
  endfacet
  facet normal 0.951057 -0.309017 0
    outer loop
      vertex -35.2172 15.6797 -12.7
      vertex -35.2172 15.6797 12.7
      vertex -37.7076 8.015 12.7
    endloop
  endfacet
  facet normal 0.951057 -0.309017 0
    outer loop
      vertex -37.7076 8.015 -12.7
      vertex -35.2172 15.6797 -12.7
      vertex -37.7076 8.015 12.7
    endloop
  endfacet
  facet normal 0.866025 -0.5 0
    outer loop
      vertex -31.1876 22.6591 -12.7
      vertex -31.1876 22.6591 12.7
      vertex -35.2172 15.6797 12.7
    endloop
  endfacet
  facet normal 0.866025 -0.5 0
    outer loop
      vertex -35.2172 15.6797 -12.7
      vertex -31.1876 22.6591 -12.7
      vertex -35.2172 15.6797 12.7
    endloop
  endfacet
  facet normal 0.743145 -0.669131 0
    outer loop
      vertex -25.795 28.6482 -12.7
      vertex -25.795 28.6482 12.7
      vertex -31.1876 22.6591 12.7
    endloop
  endfacet
  facet normal 0.743145 -0.669131 0
    outer loop
      vertex -31.1876 22.6591 -12.7
      vertex -25.795 28.6482 -12.7
      vertex -31.1876 22.6591 12.7
    endloop
  endfacet
  facet normal 0.587785 -0.809017 0
    outer loop
      vertex -19.275 33.3853 -12.7
      vertex -19.275 33.3853 12.7
      vertex -25.795 28.6482 12.7
    endloop
  endfacet
  facet normal 0.587785 -0.809017 0
    outer loop
      vertex -25.795 28.6482 -12.7
      vertex -19.275 33.3853 -12.7
      vertex -25.795 28.6482 12.7
    endloop
  endfacet
  facet normal 0.406737 -0.913545 0
    outer loop
      vertex -11.9126 36.6632 -12.7
      vertex -11.9126 36.6632 12.7
      vertex -19.275 33.3853 12.7
    endloop
  endfacet
  facet normal 0.406737 -0.913545 0
    outer loop
      vertex -19.275 33.3853 -12.7
      vertex -11.9126 36.6632 -12.7
      vertex -19.275 33.3853 12.7
    endloop
  endfacet
  facet normal 0.207912 -0.978148 0
    outer loop
      vertex -4.02957 38.3388 -12.7
      vertex -4.02957 38.3388 12.7
      vertex -11.9126 36.6632 12.7
    endloop
  endfacet
  facet normal 0.207912 -0.978148 0
    outer loop
      vertex -11.9126 36.6632 -12.7
      vertex -4.02957 38.3388 -12.7
      vertex -11.9126 36.6632 12.7
    endloop
  endfacet
  facet normal 0 -1 0
    outer loop
      vertex 4.02957 38.3388 -12.7
      vertex 4.02957 38.3388 12.7
      vertex -4.02957 38.3388 12.7
    endloop
  endfacet
  facet normal 0 -1 0
    outer loop
      vertex -4.02957 38.3388 -12.7
      vertex 4.02957 38.3388 -12.7
      vertex -4.02957 38.3388 12.7
    endloop
  endfacet
  facet normal -0.207912 -0.978148 0
    outer loop
      vertex 11.9126 36.6632 -12.7
      vertex 11.9126 36.6632 12.7
      vertex 4.02957 38.3388 12.7
    endloop
  endfacet
  facet normal -0.207912 -0.978148 0
    outer loop
      vertex 4.02957 38.3388 -12.7
      vertex 11.9126 36.6632 -12.7
      vertex 4.02957 38.3388 12.7
    endloop
  endfacet
  facet normal -0.406737 -0.913545 0
    outer loop
      vertex 19.275 33.3853 -12.7
      vertex 19.275 33.3853 12.7
      vertex 11.9126 36.6632 12.7
    endloop
  endfacet
  facet normal -0.406737 -0.913545 0
    outer loop
      vertex 11.9126 36.6632 -12.7
      vertex 19.275 33.3853 -12.7
      vertex 11.9126 36.6632 12.7
    endloop
  endfacet
  facet normal -0.587785 -0.809017 0
    outer loop
      vertex 25.795 28.6482 -12.7
      vertex 25.795 28.6482 12.7
      vertex 19.275 33.3853 12.7
    endloop
  endfacet
  facet normal -0.587785 -0.809017 0
    outer loop
      vertex 19.275 33.3853 -12.7
      vertex 25.795 28.6482 -12.7
      vertex 19.275 33.3853 12.7
    endloop
  endfacet
  facet normal -0.743145 -0.669131 0
    outer loop
      vertex 31.1876 22.6591 12.7
      vertex 25.795 28.6482 12.7
      vertex 31.1876 22.6591 -12.7
    endloop
  endfacet
  facet normal -0.743145 -0.669131 0
    outer loop
      vertex 31.1876 22.6591 -12.7
      vertex 25.795 28.6482 12.7
      vertex 25.795 28.6482 -12.7
    endloop
  endfacet
  facet normal -0.866025 -0.5 0
    outer loop
      vertex 35.2172 15.6797 12.7
      vertex 31.1876 22.6591 12.7
      vertex 35.2172 15.6797 -12.7
    endloop
  endfacet
  facet normal -0.866025 -0.5 0
    outer loop
      vertex 35.2172 15.6797 -12.7
      vertex 31.1876 22.6591 12.7
      vertex 31.1876 22.6591 -12.7
    endloop
  endfacet
  facet normal -0.951057 -0.309017 0
    outer loop
      vertex 37.7076 8.015 12.7
      vertex 35.2172 15.6797 12.7
      vertex 37.7076 8.015 -12.7
    endloop
  endfacet
  facet normal -0.951057 -0.309017 0
    outer loop
      vertex 37.7076 8.015 -12.7
      vertex 35.2172 15.6797 12.7
      vertex 35.2172 15.6797 -12.7
    endloop
  endfacet
  facet normal -0.994522 -0.104528 0
    outer loop
      vertex 38.55 0 12.7
      vertex 37.7076 8.015 12.7
      vertex 38.55 0 -12.7
    endloop
  endfacet
  facet normal -0.994522 -0.104528 0
    outer loop
      vertex 38.55 0 -12.7
      vertex 37.7076 8.015 12.7
      vertex 37.7076 8.015 -12.7
    endloop
  endfacet
  facet normal -0.994522 0.104528 0
    outer loop
      vertex 38.55 0 12.7
      vertex 38.55 0 -12.7
      vertex 37.7076 -8.015 12.7
    endloop
  endfacet
  facet normal -0.994522 0.104528 0
    outer loop
      vertex 37.7076 -8.015 12.7
      vertex 38.55 0 -12.7
      vertex 37.7076 -8.015 -12.7
    endloop
  endfacet
  facet normal -0.951057 0.309017 0
    outer loop
      vertex 37.7076 -8.015 12.7
      vertex 37.7076 -8.015 -12.7
      vertex 35.2172 -15.6797 12.7
    endloop
  endfacet
  facet normal -0.951057 0.309017 0
    outer loop
      vertex 35.2172 -15.6797 12.7
      vertex 37.7076 -8.015 -12.7
      vertex 35.2172 -15.6797 -12.7
    endloop
  endfacet
  facet normal -0.866025 0.5 0
    outer loop
      vertex 35.2172 -15.6797 12.7
      vertex 35.2172 -15.6797 -12.7
      vertex 31.1876 -22.6591 12.7
    endloop
  endfacet
  facet normal -0.866025 0.5 0
    outer loop
      vertex 31.1876 -22.6591 12.7
      vertex 35.2172 -15.6797 -12.7
      vertex 31.1876 -22.6591 -12.7
    endloop
  endfacet
  facet normal -0.743145 0.669131 0
    outer loop
      vertex 31.1876 -22.6591 12.7
      vertex 31.1876 -22.6591 -12.7
      vertex 25.795 -28.6482 12.7
    endloop
  endfacet
  facet normal -0.743145 0.669131 0
    outer loop
      vertex 25.795 -28.6482 12.7
      vertex 31.1876 -22.6591 -12.7
      vertex 25.795 -28.6482 -12.7
    endloop
  endfacet
  facet normal -0.587785 0.809017 0
    outer loop
      vertex 25.795 -28.6482 12.7
      vertex 25.795 -28.6482 -12.7
      vertex 19.275 -33.3853 12.7
    endloop
  endfacet
  facet normal -0.587785 0.809017 0
    outer loop
      vertex 19.275 -33.3853 12.7
      vertex 25.795 -28.6482 -12.7
      vertex 19.275 -33.3853 -12.7
    endloop
  endfacet
  facet normal -0.406737 0.913545 0
    outer loop
      vertex 19.275 -33.3853 12.7
      vertex 19.275 -33.3853 -12.7
      vertex 11.9126 -36.6632 12.7
    endloop
  endfacet
  facet normal -0.406737 0.913545 0
    outer loop
      vertex 11.9126 -36.6632 12.7
      vertex 19.275 -33.3853 -12.7
      vertex 11.9126 -36.6632 -12.7
    endloop
  endfacet
  facet normal -0.207912 0.978148 0
    outer loop
      vertex 11.9126 -36.6632 12.7
      vertex 11.9126 -36.6632 -12.7
      vertex 4.02957 -38.3388 12.7
    endloop
  endfacet
  facet normal -0.207912 0.978148 0
    outer loop
      vertex 4.02957 -38.3388 12.7
      vertex 11.9126 -36.6632 -12.7
      vertex 4.02957 -38.3388 -12.7
    endloop
  endfacet
  facet normal 0 1 0
    outer loop
      vertex 4.02957 -38.3388 12.7
      vertex 4.02957 -38.3388 -12.7
      vertex -4.02957 -38.3388 12.7
    endloop
  endfacet
  facet normal 0 1 0
    outer loop
      vertex -4.02957 -38.3388 12.7
      vertex 4.02957 -38.3388 -12.7
      vertex -4.02957 -38.3388 -12.7
    endloop
  endfacet
  facet normal 0.207912 0.978148 0
    outer loop
      vertex -4.02957 -38.3388 12.7
      vertex -4.02957 -38.3388 -12.7
      vertex -11.9126 -36.6632 12.7
    endloop
  endfacet
  facet normal 0.207912 0.978148 0
    outer loop
      vertex -11.9126 -36.6632 12.7
      vertex -4.02957 -38.3388 -12.7
      vertex -11.9126 -36.6632 -12.7
    endloop
  endfacet
  facet normal 0.406737 0.913545 0
    outer loop
      vertex -11.9126 -36.6632 12.7
      vertex -11.9126 -36.6632 -12.7
      vertex -19.275 -33.3853 12.7
    endloop
  endfacet
  facet normal 0.406737 0.913545 0
    outer loop
      vertex -19.275 -33.3853 12.7
      vertex -11.9126 -36.6632 -12.7
      vertex -19.275 -33.3853 -12.7
    endloop
  endfacet
  facet normal 0.587785 0.809017 0
    outer loop
      vertex -19.275 -33.3853 12.7
      vertex -19.275 -33.3853 -12.7
      vertex -25.795 -28.6482 12.7
    endloop
  endfacet
  facet normal 0.587785 0.809017 0
    outer loop
      vertex -25.795 -28.6482 12.7
      vertex -19.275 -33.3853 -12.7
      vertex -25.795 -28.6482 -12.7
    endloop
  endfacet
  facet normal 0.743145 0.669131 0
    outer loop
      vertex -31.1876 -22.6591 12.7
      vertex -25.795 -28.6482 12.7
      vertex -25.795 -28.6482 -12.7
    endloop
  endfacet
  facet normal 0.743145 0.669131 0
    outer loop
      vertex -31.1876 -22.6591 -12.7
      vertex -31.1876 -22.6591 12.7
      vertex -25.795 -28.6482 -12.7
    endloop
  endfacet
  facet normal 0.866025 0.5 0
    outer loop
      vertex -35.2172 -15.6797 12.7
      vertex -31.1876 -22.6591 12.7
      vertex -31.1876 -22.6591 -12.7
    endloop
  endfacet
  facet normal 0.866025 0.5 0
    outer loop
      vertex -35.2172 -15.6797 -12.7
      vertex -35.2172 -15.6797 12.7
      vertex -31.1876 -22.6591 -12.7
    endloop
  endfacet
  facet normal 0.951057 0.309017 0
    outer loop
      vertex -37.7076 -8.015 12.7
      vertex -35.2172 -15.6797 12.7
      vertex -35.2172 -15.6797 -12.7
    endloop
  endfacet
  facet normal 0.951057 0.309017 0
    outer loop
      vertex -37.7076 -8.015 -12.7
      vertex -37.7076 -8.015 12.7
      vertex -35.2172 -15.6797 -12.7
    endloop
  endfacet
  facet normal 0 0 1
    outer loop
      vertex -40.642 8.63873 15.7
      vertex -41.55 0 15.7
      vertex -40.642 -8.63873 15.7
    endloop
  endfacet
  facet normal 0 0 1
    outer loop
      vertex -33.6147 -24.4225 15.7
      vertex -40.642 8.63873 15.7
      vertex -37.9578 -16.8999 15.7
    endloop
  endfacet
  facet normal 0 0 1
    outer loop
      vertex -37.9578 -16.8999 15.7
      vertex -40.642 8.63873 15.7
      vertex -40.642 -8.63873 15.7
    endloop
  endfacet
  facet normal 0 0 1
    outer loop
      vertex -27.8024 -30.8777 15.7
      vertex -40.642 8.63873 15.7
      vertex -33.6147 -24.4225 15.7
    endloop
  endfacet
  facet normal 0 0 1
    outer loop
      vertex -20.775 -35.9834 15.7
      vertex -40.642 8.63873 15.7
      vertex -27.8024 -30.8777 15.7
    endloop
  endfacet
  facet normal 0 0 1
    outer loop
      vertex -12.8397 -39.5164 15.7
      vertex -40.642 8.63873 15.7
      vertex -20.775 -35.9834 15.7
    endloop
  endfacet
  facet normal 0 0 1
    outer loop
      vertex -4.34316 -41.3224 15.7
      vertex -40.642 8.63873 15.7
      vertex -12.8397 -39.5164 15.7
    endloop
  endfacet
  facet normal 0 0 1
    outer loop
      vertex 4.34316 -41.3224 15.7
      vertex -40.642 8.63873 15.7
      vertex -4.34316 -41.3224 15.7
    endloop
  endfacet
  facet normal 0 0 1
    outer loop
      vertex 12.8397 -39.5164 15.7
      vertex -40.642 8.63873 15.7
      vertex 4.34316 -41.3224 15.7
    endloop
  endfacet
  facet normal 0 0 1
    outer loop
      vertex 20.775 -35.9834 15.7
      vertex -40.642 8.63873 15.7
      vertex 12.8397 -39.5164 15.7
    endloop
  endfacet
  facet normal 0 0 1
    outer loop
      vertex 27.8024 -30.8777 15.7
      vertex -40.642 8.63873 15.7
      vertex 20.775 -35.9834 15.7
    endloop
  endfacet
  facet normal 0 0 1
    outer loop
      vertex 33.6147 -24.4225 15.7
      vertex -40.642 8.63873 15.7
      vertex 27.8024 -30.8777 15.7
    endloop
  endfacet
  facet normal 0 0 1
    outer loop
      vertex 37.9578 -16.8999 15.7
      vertex -40.642 8.63873 15.7
      vertex 33.6147 -24.4225 15.7
    endloop
  endfacet
  facet normal 0 0 1
    outer loop
      vertex 40.642 -8.63873 15.7
      vertex -40.642 8.63873 15.7
      vertex 37.9578 -16.8999 15.7
    endloop
  endfacet
  facet normal 0 0 1
    outer loop
      vertex 18.3479 -2.85317 15.7
      vertex -40.642 8.63873 15.7
      vertex 40.642 -8.63873 15.7
    endloop
  endfacet
  facet normal 0 0 1
    outer loop
      vertex 37.9578 16.8999 15.7
      vertex -40.642 8.63873 15.7
      vertex 40.642 8.63873 15.7
    endloop
  endfacet
  facet normal 0 0 1
    outer loop
      vertex 33.6147 24.4225 15.7
      vertex -40.642 8.63873 15.7
      vertex 37.9578 16.8999 15.7
    endloop
  endfacet
  facet normal 0 0 1
    outer loop
      vertex 27.8024 30.8777 15.7
      vertex -40.642 8.63873 15.7
      vertex 33.6147 24.4225 15.7
    endloop
  endfacet
  facet normal 0 0 1
    outer loop
      vertex 20.775 35.9834 15.7
      vertex -40.642 8.63873 15.7
      vertex 27.8024 30.8777 15.7
    endloop
  endfacet
  facet normal 0 0 1
    outer loop
      vertex 12.8397 39.5164 15.7
      vertex -40.642 8.63873 15.7
      vertex 20.775 35.9834 15.7
    endloop
  endfacet
  facet normal 0 0 1
    outer loop
      vertex 4.34316 41.3224 15.7
      vertex -40.642 8.63873 15.7
      vertex 12.8397 39.5164 15.7
    endloop
  endfacet
  facet normal 0 0 1
    outer loop
      vertex -4.34316 41.3224 15.7
      vertex -40.642 8.63873 15.7
      vertex 4.34316 41.3224 15.7
    endloop
  endfacet
  facet normal 0 0 1
    outer loop
      vertex -12.8397 39.5164 15.7
      vertex -40.642 8.63873 15.7
      vertex -4.34316 41.3224 15.7
    endloop
  endfacet
  facet normal 0 0 1
    outer loop
      vertex -20.775 35.9834 15.7
      vertex -40.642 8.63873 15.7
      vertex -12.8397 39.5164 15.7
    endloop
  endfacet
  facet normal 0 0 1
    outer loop
      vertex -27.8024 30.8777 15.7
      vertex -40.642 8.63873 15.7
      vertex -20.775 35.9834 15.7
    endloop
  endfacet
  facet normal 0 0 1
    outer loop
      vertex -33.6147 24.4225 15.7
      vertex -40.642 8.63873 15.7
      vertex -27.8024 30.8777 15.7
    endloop
  endfacet
  facet normal 0 0 1
    outer loop
      vertex -37.9578 16.8999 15.7
      vertex -40.642 8.63873 15.7
      vertex -33.6147 24.4225 15.7
    endloop
  endfacet
  facet normal 0 0 1
    outer loop
      vertex 16.275 0 15.7
      vertex -40.642 8.63873 15.7
      vertex 16.8479 -1.76336 15.7
    endloop
  endfacet
  facet normal 0 0 1
    outer loop
      vertex 21.7021 -1.76336 15.7
      vertex 20.2021 -2.85317 15.7
      vertex 40.642 -8.63873 15.7
    endloop
  endfacet
  facet normal 0 0 1
    outer loop
      vertex 16.8479 1.76336 15.7
      vertex -40.642 8.63873 15.7
      vertex 16.275 0 15.7
    endloop
  endfacet
  facet normal 0 0 1
    outer loop
      vertex 21.7021 1.76336 15.7
      vertex 22.275 0 15.7
      vertex 41.55 0 15.7
    endloop
  endfacet
  facet normal 0 0 1
    outer loop
      vertex 40.642 8.63873 15.7
      vertex -40.642 8.63873 15.7
      vertex 18.3479 2.85317 15.7
    endloop
  endfacet
  facet normal 0 0 1
    outer loop
      vertex 40.642 8.63873 15.7
      vertex 20.2021 2.85317 15.7
      vertex 41.55 0 15.7
    endloop
  endfacet
  facet normal 0 0 1
    outer loop
      vertex 40.642 8.63873 15.7
      vertex 18.3479 2.85317 15.7
      vertex 20.2021 2.85317 15.7
    endloop
  endfacet
  facet normal 0 0 1
    outer loop
      vertex 22.275 0 15.7
      vertex 21.7021 -1.76336 15.7
      vertex 41.55 0 15.7
    endloop
  endfacet
  facet normal 0 0 1
    outer loop
      vertex 20.2021 2.85317 15.7
      vertex 21.7021 1.76336 15.7
      vertex 41.55 0 15.7
    endloop
  endfacet
  facet normal 0 0 1
    outer loop
      vertex 41.55 0 15.7
      vertex 21.7021 -1.76336 15.7
      vertex 40.642 -8.63873 15.7
    endloop
  endfacet
  facet normal 0 0 1
    outer loop
      vertex 20.2021 -2.85317 15.7
      vertex 18.3479 -2.85317 15.7
      vertex 40.642 -8.63873 15.7
    endloop
  endfacet
  facet normal 0 0 1
    outer loop
      vertex 18.3479 -2.85317 15.7
      vertex 16.8479 -1.76336 15.7
      vertex -40.642 8.63873 15.7
    endloop
  endfacet
  facet normal 0 0 1
    outer loop
      vertex 16.8479 1.76336 15.7
      vertex 18.3479 2.85317 15.7
      vertex -40.642 8.63873 15.7
    endloop
  endfacet
  facet normal 0 0 -1
    outer loop
      vertex -35.2172 15.6797 12.7
      vertex -31.1876 22.6591 12.7
      vertex -37.7076 8.015 12.7
    endloop
  endfacet
  facet normal 0 0 -1
    outer loop
      vertex -37.7076 8.015 12.7
      vertex -31.1876 22.6591 12.7
      vertex -25.795 28.6482 12.7
    endloop
  endfacet
  facet normal 0 0 -1
    outer loop
      vertex -37.7076 8.015 12.7
      vertex -25.795 28.6482 12.7
      vertex -19.275 33.3853 12.7
    endloop
  endfacet
  facet normal 0 0 -1
    outer loop
      vertex -37.7076 8.015 12.7
      vertex -19.275 33.3853 12.7
      vertex -11.9126 36.6632 12.7
    endloop
  endfacet
  facet normal 0 0 -1
    outer loop
      vertex -37.7076 8.015 12.7
      vertex -11.9126 36.6632 12.7
      vertex -4.02957 38.3388 12.7
    endloop
  endfacet
  facet normal 0 0 -1
    outer loop
      vertex -37.7076 8.015 12.7
      vertex -4.02957 38.3388 12.7
      vertex 4.02957 38.3388 12.7
    endloop
  endfacet
  facet normal 0 0 -1
    outer loop
      vertex -37.7076 8.015 12.7
      vertex 4.02957 38.3388 12.7
      vertex 11.9126 36.6632 12.7
    endloop
  endfacet
  facet normal 0 0 -1
    outer loop
      vertex -37.7076 8.015 12.7
      vertex 11.9126 36.6632 12.7
      vertex 19.275 33.3853 12.7
    endloop
  endfacet
  facet normal 0 0 -1
    outer loop
      vertex -37.7076 8.015 12.7
      vertex 19.275 33.3853 12.7
      vertex 25.795 28.6482 12.7
    endloop
  endfacet
  facet normal 0 0 -1
    outer loop
      vertex 1.87367 17.8268 12.7
      vertex 25.795 28.6482 12.7
      vertex 31.1876 22.6591 12.7
    endloop
  endfacet
  facet normal 0 0 -1
    outer loop
      vertex 11.9942 13.3209 12.7
      vertex 31.1876 22.6591 12.7
      vertex 35.2172 15.6797 12.7
    endloop
  endfacet
  facet normal 0 0 -1
    outer loop
      vertex 14.5016 10.5361 12.7
      vertex 35.2172 15.6797 12.7
      vertex 37.7076 8.015 12.7
    endloop
  endfacet
  facet normal 0 0 -1
    outer loop
      vertex 20.2021 2.85317 12.7
      vertex 37.7076 8.015 12.7
      vertex 38.55 0 12.7
    endloop
  endfacet
  facet normal 0 0 -1
    outer loop
      vertex 17.5333 -3.72682 12.7
      vertex 38.55 0 12.7
      vertex 37.7076 -8.015 12.7
    endloop
  endfacet
  facet normal 0 0 -1
    outer loop
      vertex 16.3753 -7.29075 12.7
      vertex 37.7076 -8.015 12.7
      vertex 35.2172 -15.6797 12.7
    endloop
  endfacet
  facet normal 0 0 -1
    outer loop
      vertex 11.9942 -13.3209 12.7
      vertex 35.2172 -15.6797 12.7
      vertex 31.1876 -22.6591 12.7
    endloop
  endfacet
  facet normal 0 0 -1
    outer loop
      vertex 8.9625 -15.5235 12.7
      vertex 31.1876 -22.6591 12.7
      vertex 25.795 -28.6482 12.7
    endloop
  endfacet
  facet normal 0 0 -1
    outer loop
      vertex 1.87367 -17.8268 12.7
      vertex 25.795 -28.6482 12.7
      vertex 19.275 -33.3853 12.7
    endloop
  endfacet
  facet normal 0 0 -1
    outer loop
      vertex -8.9625 -15.5235 12.7
      vertex 19.275 -33.3853 12.7
      vertex 11.9126 -36.6632 12.7
    endloop
  endfacet
  facet normal 0 0 -1
    outer loop
      vertex -37.7076 8.015 12.7
      vertex 11.9126 -36.6632 12.7
      vertex 4.02957 -38.3388 12.7
    endloop
  endfacet
  facet normal 0 0 -1
    outer loop
      vertex -37.7076 8.015 12.7
      vertex 4.02957 -38.3388 12.7
      vertex -4.02957 -38.3388 12.7
    endloop
  endfacet
  facet normal 0 0 -1
    outer loop
      vertex -37.7076 8.015 12.7
      vertex -4.02957 -38.3388 12.7
      vertex -11.9126 -36.6632 12.7
    endloop
  endfacet
  facet normal 0 0 -1
    outer loop
      vertex -37.7076 8.015 12.7
      vertex -11.9126 -36.6632 12.7
      vertex -19.275 -33.3853 12.7
    endloop
  endfacet
  facet normal 0 0 -1
    outer loop
      vertex -37.7076 8.015 12.7
      vertex -19.275 -33.3853 12.7
      vertex -25.795 -28.6482 12.7
    endloop
  endfacet
  facet normal 0 0 -1
    outer loop
      vertex -37.7076 8.015 12.7
      vertex -25.795 -28.6482 12.7
      vertex -31.1876 -22.6591 12.7
    endloop
  endfacet
  facet normal 0 0 -1
    outer loop
      vertex -37.7076 8.015 12.7
      vertex -31.1876 -22.6591 12.7
      vertex -35.2172 -15.6797 12.7
    endloop
  endfacet
  facet normal 0 0 -1
    outer loop
      vertex -37.7076 8.015 12.7
      vertex -35.2172 -15.6797 12.7
      vertex -37.7076 -8.015 12.7
    endloop
  endfacet
  facet normal 0 0 -1
    outer loop
      vertex -37.7076 8.015 12.7
      vertex -37.7076 -8.015 12.7
      vertex -38.55 0 12.7
    endloop
  endfacet
  facet normal 0 0 -1
    outer loop
      vertex -14.5016 -10.5361 12.7
      vertex -37.7076 8.015 12.7
      vertex -16.3753 -7.29075 12.7
    endloop
  endfacet
  facet normal 0 0 -1
    outer loop
      vertex -37.7076 8.015 12.7
      vertex -17.5333 -3.72682 12.7
      vertex -16.3753 -7.29075 12.7
    endloop
  endfacet
  facet normal 0 0 -1
    outer loop
      vertex -8.9625 -15.5235 12.7
      vertex 11.9126 -36.6632 12.7
      vertex -11.9942 -13.3209 12.7
    endloop
  endfacet
  facet normal 0 0 -1
    outer loop
      vertex -37.7076 8.015 12.7
      vertex -14.5016 -10.5361 12.7
      vertex -11.9942 -13.3209 12.7
    endloop
  endfacet
  facet normal 0 0 -1
    outer loop
      vertex -37.7076 8.015 12.7
      vertex -11.9942 -13.3209 12.7
      vertex 11.9126 -36.6632 12.7
    endloop
  endfacet
  facet normal 0 0 -1
    outer loop
      vertex -5.53913 -17.0477 12.7
      vertex 19.275 -33.3853 12.7
      vertex -8.9625 -15.5235 12.7
    endloop
  endfacet
  facet normal 0 0 -1
    outer loop
      vertex -1.87367 -17.8268 12.7
      vertex 19.275 -33.3853 12.7
      vertex -5.53913 -17.0477 12.7
    endloop
  endfacet
  facet normal 0 0 -1
    outer loop
      vertex 1.87367 -17.8268 12.7
      vertex 19.275 -33.3853 12.7
      vertex -1.87367 -17.8268 12.7
    endloop
  endfacet
  facet normal 0 0 -1
    outer loop
      vertex 5.53913 -17.0477 12.7
      vertex 25.795 -28.6482 12.7
      vertex 1.87367 -17.8268 12.7
    endloop
  endfacet
  facet normal 0 0 -1
    outer loop
      vertex 8.9625 -15.5235 12.7
      vertex 25.795 -28.6482 12.7
      vertex 5.53913 -17.0477 12.7
    endloop
  endfacet
  facet normal 0 0 -1
    outer loop
      vertex 14.5016 -10.5361 12.7
      vertex 35.2172 -15.6797 12.7
      vertex 11.9942 -13.3209 12.7
    endloop
  endfacet
  facet normal 0 0 -1
    outer loop
      vertex -17.925 0 12.7
      vertex -37.7076 8.015 12.7
      vertex -17.5333 3.72682 12.7
    endloop
  endfacet
  facet normal 0 0 -1
    outer loop
      vertex 17.5333 -3.72682 12.7
      vertex 37.7076 -8.015 12.7
      vertex 16.3753 -7.29075 12.7
    endloop
  endfacet
  facet normal 0 0 -1
    outer loop
      vertex 20.2021 -2.85317 12.7
      vertex 38.55 0 12.7
      vertex 17.5333 -3.72682 12.7
    endloop
  endfacet
  facet normal 0 0 -1
    outer loop
      vertex 21.7021 -1.76336 12.7
      vertex 38.55 0 12.7
      vertex 20.2021 -2.85317 12.7
    endloop
  endfacet
  facet normal 0 0 -1
    outer loop
      vertex 20.2021 2.85317 12.7
      vertex 38.55 0 12.7
      vertex 21.7021 1.76336 12.7
    endloop
  endfacet
  facet normal 0 0 -1
    outer loop
      vertex 17.6764 -2.36526 12.7
      vertex 18.3479 -2.85317 12.7
      vertex 17.5333 -3.72682 12.7
    endloop
  endfacet
  facet normal 0 0 -1
    outer loop
      vertex 18.3479 -2.85317 12.7
      vertex 20.2021 -2.85317 12.7
      vertex 17.5333 -3.72682 12.7
    endloop
  endfacet
  facet normal 0 0 -1
    outer loop
      vertex 22.275 0 12.7
      vertex 38.55 0 12.7
      vertex 21.7021 -1.76336 12.7
    endloop
  endfacet
  facet normal 0 0 -1
    outer loop
      vertex 21.7021 1.76336 12.7
      vertex 38.55 0 12.7
      vertex 22.275 0 12.7
    endloop
  endfacet
  facet normal 0 0 -1
    outer loop
      vertex 17.5333 3.72682 12.7
      vertex 37.7076 8.015 12.7
      vertex 20.2021 2.85317 12.7
    endloop
  endfacet
  facet normal 0 0 -1
    outer loop
      vertex 17.5333 3.72682 12.7
      vertex 20.2021 2.85317 12.7
      vertex 18.3479 2.85317 12.7
    endloop
  endfacet
  facet normal 0 0 -1
    outer loop
      vertex 17.5333 3.72682 12.7
      vertex 18.3479 2.85317 12.7
      vertex 17.6764 2.36526 12.7
    endloop
  endfacet
  facet normal 0 0 -1
    outer loop
      vertex 16.3753 7.29075 12.7
      vertex 37.7076 8.015 12.7
      vertex 17.5333 3.72682 12.7
    endloop
  endfacet
  facet normal 0 0 -1
    outer loop
      vertex 14.5016 10.5361 12.7
      vertex 37.7076 8.015 12.7
      vertex 16.3753 7.29075 12.7
    endloop
  endfacet
  facet normal 0 0 -1
    outer loop
      vertex 11.9942 13.3209 12.7
      vertex 35.2172 15.6797 12.7
      vertex 14.5016 10.5361 12.7
    endloop
  endfacet
  facet normal 0 0 -1
    outer loop
      vertex 8.9625 15.5235 12.7
      vertex 31.1876 22.6591 12.7
      vertex 11.9942 13.3209 12.7
    endloop
  endfacet
  facet normal 0 0 -1
    outer loop
      vertex 1.87367 17.8268 12.7
      vertex 31.1876 22.6591 12.7
      vertex 5.53913 17.0477 12.7
    endloop
  endfacet
  facet normal 0 0 -1
    outer loop
      vertex 5.53913 17.0477 12.7
      vertex 31.1876 22.6591 12.7
      vertex 8.9625 15.5235 12.7
    endloop
  endfacet
  facet normal 0 0 -1
    outer loop
      vertex -1.87367 17.8268 12.7
      vertex 25.795 28.6482 12.7
      vertex 1.87367 17.8268 12.7
    endloop
  endfacet
  facet normal 0 0 -1
    outer loop
      vertex -8.9625 15.5235 12.7
      vertex -37.7076 8.015 12.7
      vertex -5.53913 17.0477 12.7
    endloop
  endfacet
  facet normal 0 0 -1
    outer loop
      vertex -5.53913 17.0477 12.7
      vertex 25.795 28.6482 12.7
      vertex -1.87367 17.8268 12.7
    endloop
  endfacet
  facet normal 0 0 -1
    outer loop
      vertex -37.7076 8.015 12.7
      vertex 25.795 28.6482 12.7
      vertex -5.53913 17.0477 12.7
    endloop
  endfacet
  facet normal 0 0 -1
    outer loop
      vertex -11.9942 13.3209 12.7
      vertex -37.7076 8.015 12.7
      vertex -8.9625 15.5235 12.7
    endloop
  endfacet
  facet normal 0 0 -1
    outer loop
      vertex -14.5016 10.5361 12.7
      vertex -37.7076 8.015 12.7
      vertex -11.9942 13.3209 12.7
    endloop
  endfacet
  facet normal 0 0 -1
    outer loop
      vertex -16.3753 7.29075 12.7
      vertex -37.7076 8.015 12.7
      vertex -14.5016 10.5361 12.7
    endloop
  endfacet
  facet normal 0 0 -1
    outer loop
      vertex -17.5333 3.72682 12.7
      vertex -37.7076 8.015 12.7
      vertex -16.3753 7.29075 12.7
    endloop
  endfacet
  facet normal 0 0 -1
    outer loop
      vertex -17.5333 -3.72682 12.7
      vertex -37.7076 8.015 12.7
      vertex -17.925 0 12.7
    endloop
  endfacet
  facet normal 0 0 -1
    outer loop
      vertex 16.3753 -7.29075 12.7
      vertex 35.2172 -15.6797 12.7
      vertex 14.5016 -10.5361 12.7
    endloop
  endfacet
  facet normal 0 0 -1
    outer loop
      vertex 11.9942 -13.3209 12.7
      vertex 31.1876 -22.6591 12.7
      vertex 8.9625 -15.5235 12.7
    endloop
  endfacet
  facet normal 0.951057 0.309017 0
    outer loop
      vertex 16.275 0 15.7
      vertex 16.8479 -1.76336 15.7
      vertex 16.8479 -1.76336 12.7
    endloop
  endfacet
  facet normal 0.951057 0.309017 0
    outer loop
      vertex 16.275 0 12.7
      vertex 16.275 0 15.7
      vertex 16.8479 -1.76336 12.7
    endloop
  endfacet
  facet normal 0.587785 0.809017 0
    outer loop
      vertex 18.3479 -2.85317 15.7
      vertex 18.3479 -2.85317 12.7
      vertex 16.8479 -1.76336 15.7
    endloop
  endfacet
  facet normal 0.587785 0.809017 0
    outer loop
      vertex 16.8479 -1.76336 15.7
      vertex 18.3479 -2.85317 12.7
      vertex 17.6764 -2.36526 12.7
    endloop
  endfacet
  facet normal 0.587785 0.809017 0
    outer loop
      vertex 16.8479 -1.76336 15.7
      vertex 17.6764 -2.36526 12.7
      vertex 16.8479 -1.76336 12.7
    endloop
  endfacet
  facet normal 0 1 0
    outer loop
      vertex 20.2021 -2.85317 15.7
      vertex 20.2021 -2.85317 12.7
      vertex 18.3479 -2.85317 15.7
    endloop
  endfacet
  facet normal 0 1 0
    outer loop
      vertex 18.3479 -2.85317 15.7
      vertex 20.2021 -2.85317 12.7
      vertex 18.3479 -2.85317 12.7
    endloop
  endfacet
  facet normal -0.587785 0.809017 0
    outer loop
      vertex 21.7021 -1.76336 15.7
      vertex 21.7021 -1.76336 12.7
      vertex 20.2021 -2.85317 15.7
    endloop
  endfacet
  facet normal -0.587785 0.809017 0
    outer loop
      vertex 20.2021 -2.85317 15.7
      vertex 21.7021 -1.76336 12.7
      vertex 20.2021 -2.85317 12.7
    endloop
  endfacet
  facet normal -0.951057 0.309017 0
    outer loop
      vertex 22.275 0 15.7
      vertex 22.275 0 12.7
      vertex 21.7021 -1.76336 15.7
    endloop
  endfacet
  facet normal -0.951057 0.309017 0
    outer loop
      vertex 21.7021 -1.76336 15.7
      vertex 22.275 0 12.7
      vertex 21.7021 -1.76336 12.7
    endloop
  endfacet
  facet normal -0.951057 -0.309017 0
    outer loop
      vertex 22.275 0 15.7
      vertex 21.7021 1.76336 15.7
      vertex 22.275 0 12.7
    endloop
  endfacet
  facet normal -0.951057 -0.309017 0
    outer loop
      vertex 22.275 0 12.7
      vertex 21.7021 1.76336 15.7
      vertex 21.7021 1.76336 12.7
    endloop
  endfacet
  facet normal -0.587785 -0.809017 0
    outer loop
      vertex 21.7021 1.76336 12.7
      vertex 21.7021 1.76336 15.7
      vertex 20.2021 2.85317 15.7
    endloop
  endfacet
  facet normal -0.587785 -0.809017 0
    outer loop
      vertex 20.2021 2.85317 12.7
      vertex 21.7021 1.76336 12.7
      vertex 20.2021 2.85317 15.7
    endloop
  endfacet
  facet normal 0 -1 0
    outer loop
      vertex 20.2021 2.85317 12.7
      vertex 20.2021 2.85317 15.7
      vertex 18.3479 2.85317 15.7
    endloop
  endfacet
  facet normal 0 -1 0
    outer loop
      vertex 18.3479 2.85317 12.7
      vertex 20.2021 2.85317 12.7
      vertex 18.3479 2.85317 15.7
    endloop
  endfacet
  facet normal 0.587785 -0.809017 0
    outer loop
      vertex 17.6764 2.36526 12.7
      vertex 18.3479 2.85317 12.7
      vertex 18.3479 2.85317 15.7
    endloop
  endfacet
  facet normal 0.587785 -0.809017 0
    outer loop
      vertex 16.8479 1.76336 12.7
      vertex 17.6764 2.36526 12.7
      vertex 16.8479 1.76336 15.7
    endloop
  endfacet
  facet normal 0.587785 -0.809017 0
    outer loop
      vertex 16.8479 1.76336 15.7
      vertex 17.6764 2.36526 12.7
      vertex 18.3479 2.85317 15.7
    endloop
  endfacet
  facet normal 0.951057 -0.309017 0
    outer loop
      vertex 16.8479 1.76336 12.7
      vertex 16.8479 1.76336 15.7
      vertex 16.275 0 15.7
    endloop
  endfacet
  facet normal 0.951057 -0.309017 0
    outer loop
      vertex 16.275 0 12.7
      vertex 16.8479 1.76336 12.7
      vertex 16.275 0 15.7
    endloop
  endfacet
  facet normal -0.951056 -0.309017 0
    outer loop
      vertex -17.5333 -3.72682 4.7
      vertex -16.3753 -7.29075 4.7
      vertex -17.5333 -3.72682 12.7
    endloop
  endfacet
  facet normal -0.951056 -0.309017 0
    outer loop
      vertex -17.5333 -3.72682 12.7
      vertex -16.3753 -7.29075 4.7
      vertex -16.3753 -7.29075 12.7
    endloop
  endfacet
  facet normal -0.994522 -0.104528 0
    outer loop
      vertex -17.925 0 4.7
      vertex -17.5333 -3.72682 4.7
      vertex -17.925 0 12.7
    endloop
  endfacet
  facet normal -0.994522 -0.104528 0
    outer loop
      vertex -17.925 0 12.7
      vertex -17.5333 -3.72682 4.7
      vertex -17.5333 -3.72682 12.7
    endloop
  endfacet
  facet normal -0.994522 0.104528 0
    outer loop
      vertex -17.925 0 4.7
      vertex -17.925 0 12.7
      vertex -17.5333 3.72682 4.7
    endloop
  endfacet
  facet normal -0.994522 0.104528 0
    outer loop
      vertex -17.5333 3.72682 4.7
      vertex -17.925 0 12.7
      vertex -17.5333 3.72682 12.7
    endloop
  endfacet
  facet normal -0.951056 0.309017 0
    outer loop
      vertex -17.5333 3.72682 4.7
      vertex -17.5333 3.72682 12.7
      vertex -16.3753 7.29075 4.7
    endloop
  endfacet
  facet normal -0.951056 0.309017 0
    outer loop
      vertex -16.3753 7.29075 4.7
      vertex -17.5333 3.72682 12.7
      vertex -16.3753 7.29075 12.7
    endloop
  endfacet
  facet normal -0.866026 0.5 0
    outer loop
      vertex -16.3753 7.29075 4.7
      vertex -16.3753 7.29075 12.7
      vertex -14.5016 10.5361 4.7
    endloop
  endfacet
  facet normal -0.866026 0.5 0
    outer loop
      vertex -14.5016 10.5361 4.7
      vertex -16.3753 7.29075 12.7
      vertex -14.5016 10.5361 12.7
    endloop
  endfacet
  facet normal -0.743145 0.669131 0
    outer loop
      vertex -14.5016 10.5361 4.7
      vertex -14.5016 10.5361 12.7
      vertex -11.9942 13.3209 4.7
    endloop
  endfacet
  facet normal -0.743145 0.669131 0
    outer loop
      vertex -11.9942 13.3209 4.7
      vertex -14.5016 10.5361 12.7
      vertex -11.9942 13.3209 12.7
    endloop
  endfacet
  facet normal -0.587785 0.809017 0
    outer loop
      vertex -11.9942 13.3209 4.7
      vertex -11.9942 13.3209 12.7
      vertex -8.9625 15.5235 4.7
    endloop
  endfacet
  facet normal -0.587785 0.809017 0
    outer loop
      vertex -8.9625 15.5235 4.7
      vertex -11.9942 13.3209 12.7
      vertex -8.9625 15.5235 12.7
    endloop
  endfacet
  facet normal -0.406737 0.913545 0
    outer loop
      vertex -8.9625 15.5235 4.7
      vertex -8.9625 15.5235 12.7
      vertex -5.53913 17.0477 4.7
    endloop
  endfacet
  facet normal -0.406737 0.913545 0
    outer loop
      vertex -5.53913 17.0477 4.7
      vertex -8.9625 15.5235 12.7
      vertex -5.53913 17.0477 12.7
    endloop
  endfacet
  facet normal -0.207912 0.978148 0
    outer loop
      vertex -5.53913 17.0477 4.7
      vertex -5.53913 17.0477 12.7
      vertex -1.87367 17.8268 4.7
    endloop
  endfacet
  facet normal -0.207912 0.978148 0
    outer loop
      vertex -1.87367 17.8268 4.7
      vertex -5.53913 17.0477 12.7
      vertex -1.87367 17.8268 12.7
    endloop
  endfacet
  facet normal 0 1 0
    outer loop
      vertex -1.87367 17.8268 4.7
      vertex -1.87367 17.8268 12.7
      vertex 1.87367 17.8268 4.7
    endloop
  endfacet
  facet normal 0 1 0
    outer loop
      vertex 1.87367 17.8268 4.7
      vertex -1.87367 17.8268 12.7
      vertex 1.87367 17.8268 12.7
    endloop
  endfacet
  facet normal 0.207912 0.978148 0
    outer loop
      vertex 1.87367 17.8268 4.7
      vertex 1.87367 17.8268 12.7
      vertex 5.53913 17.0477 4.7
    endloop
  endfacet
  facet normal 0.207912 0.978148 0
    outer loop
      vertex 5.53913 17.0477 4.7
      vertex 1.87367 17.8268 12.7
      vertex 5.53913 17.0477 12.7
    endloop
  endfacet
  facet normal 0.406737 0.913545 0
    outer loop
      vertex 5.53913 17.0477 4.7
      vertex 5.53913 17.0477 12.7
      vertex 8.9625 15.5235 4.7
    endloop
  endfacet
  facet normal 0.406737 0.913545 0
    outer loop
      vertex 8.9625 15.5235 4.7
      vertex 5.53913 17.0477 12.7
      vertex 8.9625 15.5235 12.7
    endloop
  endfacet
  facet normal 0.587785 0.809017 0
    outer loop
      vertex 8.9625 15.5235 4.7
      vertex 8.9625 15.5235 12.7
      vertex 11.9942 13.3209 4.7
    endloop
  endfacet
  facet normal 0.587785 0.809017 0
    outer loop
      vertex 11.9942 13.3209 4.7
      vertex 8.9625 15.5235 12.7
      vertex 11.9942 13.3209 12.7
    endloop
  endfacet
  facet normal 0.743145 0.669131 0
    outer loop
      vertex 14.5016 10.5361 4.7
      vertex 11.9942 13.3209 4.7
      vertex 11.9942 13.3209 12.7
    endloop
  endfacet
  facet normal 0.743145 0.669131 0
    outer loop
      vertex 14.5016 10.5361 12.7
      vertex 14.5016 10.5361 4.7
      vertex 11.9942 13.3209 12.7
    endloop
  endfacet
  facet normal 0.866026 0.5 0
    outer loop
      vertex 16.3753 7.29075 4.7
      vertex 14.5016 10.5361 4.7
      vertex 14.5016 10.5361 12.7
    endloop
  endfacet
  facet normal 0.866026 0.5 0
    outer loop
      vertex 16.3753 7.29075 12.7
      vertex 16.3753 7.29075 4.7
      vertex 14.5016 10.5361 12.7
    endloop
  endfacet
  facet normal 0.951056 0.309017 0
    outer loop
      vertex 17.5333 3.72682 4.7
      vertex 16.3753 7.29075 4.7
      vertex 16.3753 7.29075 12.7
    endloop
  endfacet
  facet normal 0.951056 0.309017 0
    outer loop
      vertex 17.5333 3.72682 12.7
      vertex 17.5333 3.72682 4.7
      vertex 16.3753 7.29075 12.7
    endloop
  endfacet
  facet normal 0.994522 0.104528 0
    outer loop
      vertex 17.925 0 4.7
      vertex 17.5333 3.72682 4.7
      vertex 17.5333 3.72682 12.7
    endloop
  endfacet
  facet normal 0.994522 0.104528 0
    outer loop
      vertex 17.925 0 12.7
      vertex 17.925 0 4.7
      vertex 17.6764 2.36526 12.7
    endloop
  endfacet
  facet normal 0.994522 0.104528 0
    outer loop
      vertex 17.6764 2.36526 12.7
      vertex 17.925 0 4.7
      vertex 17.5333 3.72682 12.7
    endloop
  endfacet
  facet normal 0 0 1
    outer loop
      vertex 16.8479 1.76336 12.7
      vertex 16.275 0 12.7
      vertex 16.8479 -1.76336 12.7
    endloop
  endfacet
  facet normal 0 0 1
    outer loop
      vertex 17.925 0 12.7
      vertex 16.8479 1.76336 12.7
      vertex 17.6764 -2.36526 12.7
    endloop
  endfacet
  facet normal 0 0 1
    outer loop
      vertex 17.6764 -2.36526 12.7
      vertex 16.8479 1.76336 12.7
      vertex 16.8479 -1.76336 12.7
    endloop
  endfacet
  facet normal 0 0 1
    outer loop
      vertex 17.6764 2.36526 12.7
      vertex 16.8479 1.76336 12.7
      vertex 17.925 0 12.7
    endloop
  endfacet
  facet normal 0.994522 -0.104528 0
    outer loop
      vertex 17.5333 -3.72682 12.7
      vertex 17.5333 -3.72682 4.7
      vertex 17.925 0 4.7
    endloop
  endfacet
  facet normal 0.994522 -0.104528 0
    outer loop
      vertex 17.6764 -2.36526 12.7
      vertex 17.5333 -3.72682 12.7
      vertex 17.925 0 4.7
    endloop
  endfacet
  facet normal 0.994522 -0.104528 0
    outer loop
      vertex 17.925 0 12.7
      vertex 17.6764 -2.36526 12.7
      vertex 17.925 0 4.7
    endloop
  endfacet
  facet normal 0.951056 -0.309017 0
    outer loop
      vertex 16.3753 -7.29075 12.7
      vertex 16.3753 -7.29075 4.7
      vertex 17.5333 -3.72682 4.7
    endloop
  endfacet
  facet normal 0.951056 -0.309017 0
    outer loop
      vertex 17.5333 -3.72682 12.7
      vertex 16.3753 -7.29075 12.7
      vertex 17.5333 -3.72682 4.7
    endloop
  endfacet
  facet normal 0.866026 -0.5 0
    outer loop
      vertex 14.5016 -10.5361 12.7
      vertex 14.5016 -10.5361 4.7
      vertex 16.3753 -7.29075 4.7
    endloop
  endfacet
  facet normal 0.866026 -0.5 0
    outer loop
      vertex 16.3753 -7.29075 12.7
      vertex 14.5016 -10.5361 12.7
      vertex 16.3753 -7.29075 4.7
    endloop
  endfacet
  facet normal 0.743145 -0.669131 0
    outer loop
      vertex 11.9942 -13.3209 12.7
      vertex 11.9942 -13.3209 4.7
      vertex 14.5016 -10.5361 4.7
    endloop
  endfacet
  facet normal 0.743145 -0.669131 0
    outer loop
      vertex 14.5016 -10.5361 12.7
      vertex 11.9942 -13.3209 12.7
      vertex 14.5016 -10.5361 4.7
    endloop
  endfacet
  facet normal 0.587785 -0.809017 0
    outer loop
      vertex 8.9625 -15.5235 12.7
      vertex 8.9625 -15.5235 4.7
      vertex 11.9942 -13.3209 4.7
    endloop
  endfacet
  facet normal 0.587785 -0.809017 0
    outer loop
      vertex 11.9942 -13.3209 12.7
      vertex 8.9625 -15.5235 12.7
      vertex 11.9942 -13.3209 4.7
    endloop
  endfacet
  facet normal 0.406737 -0.913545 0
    outer loop
      vertex 5.53913 -17.0477 12.7
      vertex 5.53913 -17.0477 4.7
      vertex 8.9625 -15.5235 4.7
    endloop
  endfacet
  facet normal 0.406737 -0.913545 0
    outer loop
      vertex 8.9625 -15.5235 12.7
      vertex 5.53913 -17.0477 12.7
      vertex 8.9625 -15.5235 4.7
    endloop
  endfacet
  facet normal 0.207912 -0.978148 0
    outer loop
      vertex 1.87367 -17.8268 12.7
      vertex 1.87367 -17.8268 4.7
      vertex 5.53913 -17.0477 4.7
    endloop
  endfacet
  facet normal 0.207912 -0.978148 0
    outer loop
      vertex 5.53913 -17.0477 12.7
      vertex 1.87367 -17.8268 12.7
      vertex 5.53913 -17.0477 4.7
    endloop
  endfacet
  facet normal 0 -1 0
    outer loop
      vertex -1.87367 -17.8268 12.7
      vertex -1.87367 -17.8268 4.7
      vertex 1.87367 -17.8268 4.7
    endloop
  endfacet
  facet normal 0 -1 0
    outer loop
      vertex 1.87367 -17.8268 12.7
      vertex -1.87367 -17.8268 12.7
      vertex 1.87367 -17.8268 4.7
    endloop
  endfacet
  facet normal -0.207912 -0.978148 0
    outer loop
      vertex -5.53913 -17.0477 12.7
      vertex -5.53913 -17.0477 4.7
      vertex -1.87367 -17.8268 4.7
    endloop
  endfacet
  facet normal -0.207912 -0.978148 0
    outer loop
      vertex -1.87367 -17.8268 12.7
      vertex -5.53913 -17.0477 12.7
      vertex -1.87367 -17.8268 4.7
    endloop
  endfacet
  facet normal -0.406737 -0.913545 0
    outer loop
      vertex -8.9625 -15.5235 12.7
      vertex -8.9625 -15.5235 4.7
      vertex -5.53913 -17.0477 4.7
    endloop
  endfacet
  facet normal -0.406737 -0.913545 0
    outer loop
      vertex -5.53913 -17.0477 12.7
      vertex -8.9625 -15.5235 12.7
      vertex -5.53913 -17.0477 4.7
    endloop
  endfacet
  facet normal -0.587785 -0.809017 0
    outer loop
      vertex -11.9942 -13.3209 12.7
      vertex -11.9942 -13.3209 4.7
      vertex -8.9625 -15.5235 4.7
    endloop
  endfacet
  facet normal -0.587785 -0.809017 0
    outer loop
      vertex -8.9625 -15.5235 12.7
      vertex -11.9942 -13.3209 12.7
      vertex -8.9625 -15.5235 4.7
    endloop
  endfacet
  facet normal -0.743145 -0.669131 0
    outer loop
      vertex -14.5016 -10.5361 4.7
      vertex -11.9942 -13.3209 4.7
      vertex -14.5016 -10.5361 12.7
    endloop
  endfacet
  facet normal -0.743145 -0.669131 0
    outer loop
      vertex -14.5016 -10.5361 12.7
      vertex -11.9942 -13.3209 4.7
      vertex -11.9942 -13.3209 12.7
    endloop
  endfacet
  facet normal -0.866026 -0.5 0
    outer loop
      vertex -16.3753 -7.29075 4.7
      vertex -14.5016 -10.5361 4.7
      vertex -16.3753 -7.29075 12.7
    endloop
  endfacet
  facet normal -0.866026 -0.5 0
    outer loop
      vertex -16.3753 -7.29075 12.7
      vertex -14.5016 -10.5361 4.7
      vertex -14.5016 -10.5361 12.7
    endloop
  endfacet
  facet normal 0 0 -1
    outer loop
      vertex -17.925 0 4.7
      vertex -17.5333 3.72682 4.7
      vertex -17.5333 -3.72682 4.7
    endloop
  endfacet
  facet normal 0 0 -1
    outer loop
      vertex -17.5333 -3.72682 4.7
      vertex -17.5333 3.72682 4.7
      vertex -16.3753 7.29075 4.7
    endloop
  endfacet
  facet normal 0 0 -1
    outer loop
      vertex -17.5333 -3.72682 4.7
      vertex -16.3753 7.29075 4.7
      vertex -14.5016 10.5361 4.7
    endloop
  endfacet
  facet normal 0 0 -1
    outer loop
      vertex -14.5482 6.47728 4.7
      vertex -14.5016 10.5361 4.7
      vertex -11.9942 13.3209 4.7
    endloop
  endfacet
  facet normal 0 0 -1
    outer loop
      vertex -10.6559 11.8346 4.7
      vertex -11.9942 13.3209 4.7
      vertex -8.9625 15.5235 4.7
    endloop
  endfacet
  facet normal 0 0 -1
    outer loop
      vertex -7.9625 13.7915 4.7
      vertex -8.9625 15.5235 4.7
      vertex -5.53913 17.0477 4.7
    endloop
  endfacet
  facet normal 0 0 -1
    outer loop
      vertex -4.9211 15.1456 4.7
      vertex -5.53913 17.0477 4.7
      vertex -1.87367 17.8268 4.7
    endloop
  endfacet
  facet normal 0 0 -1
    outer loop
      vertex -1.66462 15.8378 4.7
      vertex -1.87367 17.8268 4.7
      vertex 1.87367 17.8268 4.7
    endloop
  endfacet
  facet normal 0 0 -1
    outer loop
      vertex 1.66462 15.8378 4.7
      vertex 1.87367 17.8268 4.7
      vertex 5.53913 17.0477 4.7
    endloop
  endfacet
  facet normal 0 0 -1
    outer loop
      vertex 4.9211 15.1456 4.7
      vertex 5.53913 17.0477 4.7
      vertex 8.9625 15.5235 4.7
    endloop
  endfacet
  facet normal 0 0 -1
    outer loop
      vertex 7.9625 13.7915 4.7
      vertex 8.9625 15.5235 4.7
      vertex 11.9942 13.3209 4.7
    endloop
  endfacet
  facet normal 0 0 -1
    outer loop
      vertex 10.6559 11.8346 4.7
      vertex 11.9942 13.3209 4.7
      vertex 14.5016 10.5361 4.7
    endloop
  endfacet
  facet normal 0 0 -1
    outer loop
      vertex 12.8836 9.36048 4.7
      vertex 14.5016 10.5361 4.7
      vertex 16.3753 7.29075 4.7
    endloop
  endfacet
  facet normal 0 0 -1
    outer loop
      vertex 15.577 3.31099 4.7
      vertex 16.3753 7.29075 4.7
      vertex 17.5333 3.72682 4.7
    endloop
  endfacet
  facet normal 0 0 -1
    outer loop
      vertex 15.925 0 4.7
      vertex 17.5333 3.72682 4.7
      vertex 17.925 0 4.7
    endloop
  endfacet
  facet normal 0 0 -1
    outer loop
      vertex 15.577 -3.31099 4.7
      vertex 17.925 0 4.7
      vertex 17.5333 -3.72682 4.7
    endloop
  endfacet
  facet normal 0 0 -1
    outer loop
      vertex 14.5482 -6.47728 4.7
      vertex 17.5333 -3.72682 4.7
      vertex 16.3753 -7.29075 4.7
    endloop
  endfacet
  facet normal 0 0 -1
    outer loop
      vertex 12.8836 -9.36048 4.7
      vertex 16.3753 -7.29075 4.7
      vertex 14.5016 -10.5361 4.7
    endloop
  endfacet
  facet normal 0 0 -1
    outer loop
      vertex 10.6559 -11.8346 4.7
      vertex 14.5016 -10.5361 4.7
      vertex 11.9942 -13.3209 4.7
    endloop
  endfacet
  facet normal 0 0 -1
    outer loop
      vertex 7.9625 -13.7915 4.7
      vertex 11.9942 -13.3209 4.7
      vertex 8.9625 -15.5235 4.7
    endloop
  endfacet
  facet normal 0 0 -1
    outer loop
      vertex 4.9211 -15.1456 4.7
      vertex 8.9625 -15.5235 4.7
      vertex 5.53913 -17.0477 4.7
    endloop
  endfacet
  facet normal 0 0 -1
    outer loop
      vertex 1.66462 -15.8378 4.7
      vertex 5.53913 -17.0477 4.7
      vertex 1.87367 -17.8268 4.7
    endloop
  endfacet
  facet normal 0 0 -1
    outer loop
      vertex -1.66462 -15.8378 4.7
      vertex 1.87367 -17.8268 4.7
      vertex -1.87367 -17.8268 4.7
    endloop
  endfacet
  facet normal 0 0 -1
    outer loop
      vertex -7.9625 -13.7915 4.7
      vertex -1.87367 -17.8268 4.7
      vertex -5.53913 -17.0477 4.7
    endloop
  endfacet
  facet normal 0 0 -1
    outer loop
      vertex -10.6559 -11.8346 4.7
      vertex -5.53913 -17.0477 4.7
      vertex -8.9625 -15.5235 4.7
    endloop
  endfacet
  facet normal 0 0 -1
    outer loop
      vertex -17.5333 -3.72682 4.7
      vertex -8.9625 -15.5235 4.7
      vertex -11.9942 -13.3209 4.7
    endloop
  endfacet
  facet normal 0 0 -1
    outer loop
      vertex -17.5333 -3.72682 4.7
      vertex -11.9942 -13.3209 4.7
      vertex -14.5016 -10.5361 4.7
    endloop
  endfacet
  facet normal 0 0 -1
    outer loop
      vertex -17.5333 -3.72682 4.7
      vertex -14.5016 -10.5361 4.7
      vertex -16.3753 -7.29075 4.7
    endloop
  endfacet
  facet normal 0 0 -1
    outer loop
      vertex -15.577 -3.31099 4.7
      vertex -17.5333 -3.72682 4.7
      vertex -15.925 0 4.7
    endloop
  endfacet
  facet normal 0 0 -1
    outer loop
      vertex -14.5482 -6.47728 4.7
      vertex -17.5333 -3.72682 4.7
      vertex -15.577 -3.31099 4.7
    endloop
  endfacet
  facet normal 0 0 -1
    outer loop
      vertex -12.8836 -9.36048 4.7
      vertex -17.5333 -3.72682 4.7
      vertex -14.5482 -6.47728 4.7
    endloop
  endfacet
  facet normal 0 0 -1
    outer loop
      vertex -7.9625 -13.7915 4.7
      vertex -5.53913 -17.0477 4.7
      vertex -10.6559 -11.8346 4.7
    endloop
  endfacet
  facet normal 0 0 -1
    outer loop
      vertex -17.5333 -3.72682 4.7
      vertex -12.8836 -9.36048 4.7
      vertex -8.9625 -15.5235 4.7
    endloop
  endfacet
  facet normal 0 0 -1
    outer loop
      vertex -12.8836 -9.36048 4.7
      vertex -10.6559 -11.8346 4.7
      vertex -8.9625 -15.5235 4.7
    endloop
  endfacet
  facet normal 0 0 -1
    outer loop
      vertex -4.9211 -15.1456 4.7
      vertex -1.87367 -17.8268 4.7
      vertex -7.9625 -13.7915 4.7
    endloop
  endfacet
  facet normal 0 0 -1
    outer loop
      vertex -1.66462 -15.8378 4.7
      vertex -1.87367 -17.8268 4.7
      vertex -4.9211 -15.1456 4.7
    endloop
  endfacet
  facet normal 0 0 -1
    outer loop
      vertex 15.577 3.31099 4.7
      vertex 17.5333 3.72682 4.7
      vertex 15.925 0 4.7
    endloop
  endfacet
  facet normal 0 0 -1
    outer loop
      vertex 14.5482 6.47728 4.7
      vertex 16.3753 7.29075 4.7
      vertex 15.577 3.31099 4.7
    endloop
  endfacet
  facet normal 0 0 -1
    outer loop
      vertex 15.925 0 4.7
      vertex 17.925 0 4.7
      vertex 15.577 -3.31099 4.7
    endloop
  endfacet
  facet normal 0 0 -1
    outer loop
      vertex 15.577 -3.31099 4.7
      vertex 17.5333 -3.72682 4.7
      vertex 14.5482 -6.47728 4.7
    endloop
  endfacet
  facet normal 0 0 -1
    outer loop
      vertex 14.5482 -6.47728 4.7
      vertex 16.3753 -7.29075 4.7
      vertex 12.8836 -9.36048 4.7
    endloop
  endfacet
  facet normal 0 0 -1
    outer loop
      vertex 12.8836 -9.36048 4.7
      vertex 14.5016 -10.5361 4.7
      vertex 10.6559 -11.8346 4.7
    endloop
  endfacet
  facet normal 0 0 -1
    outer loop
      vertex 10.6559 -11.8346 4.7
      vertex 11.9942 -13.3209 4.7
      vertex 7.9625 -13.7915 4.7
    endloop
  endfacet
  facet normal 0 0 -1
    outer loop
      vertex 7.9625 -13.7915 4.7
      vertex 8.9625 -15.5235 4.7
      vertex 4.9211 -15.1456 4.7
    endloop
  endfacet
  facet normal 0 0 -1
    outer loop
      vertex 4.9211 -15.1456 4.7
      vertex 5.53913 -17.0477 4.7
      vertex 1.66462 -15.8378 4.7
    endloop
  endfacet
  facet normal 0 0 -1
    outer loop
      vertex 1.66462 -15.8378 4.7
      vertex 1.87367 -17.8268 4.7
      vertex -1.66462 -15.8378 4.7
    endloop
  endfacet
  facet normal 0 0 -1
    outer loop
      vertex -12.8836 9.36048 4.7
      vertex -11.9942 13.3209 4.7
      vertex -10.6559 11.8346 4.7
    endloop
  endfacet
  facet normal 0 0 -1
    outer loop
      vertex -14.5482 6.47728 4.7
      vertex -11.9942 13.3209 4.7
      vertex -12.8836 9.36048 4.7
    endloop
  endfacet
  facet normal 0 0 -1
    outer loop
      vertex -15.577 3.31099 4.7
      vertex -14.5016 10.5361 4.7
      vertex -14.5482 6.47728 4.7
    endloop
  endfacet
  facet normal 0 0 -1
    outer loop
      vertex -17.5333 -3.72682 4.7
      vertex -14.5016 10.5361 4.7
      vertex -15.577 3.31099 4.7
    endloop
  endfacet
  facet normal 0 0 -1
    outer loop
      vertex -10.6559 11.8346 4.7
      vertex -8.9625 15.5235 4.7
      vertex -7.9625 13.7915 4.7
    endloop
  endfacet
  facet normal 0 0 -1
    outer loop
      vertex -15.925 0 4.7
      vertex -17.5333 -3.72682 4.7
      vertex -15.577 3.31099 4.7
    endloop
  endfacet
  facet normal 0 0 -1
    outer loop
      vertex -7.9625 13.7915 4.7
      vertex -5.53913 17.0477 4.7
      vertex -4.9211 15.1456 4.7
    endloop
  endfacet
  facet normal 0 0 -1
    outer loop
      vertex -4.9211 15.1456 4.7
      vertex -1.87367 17.8268 4.7
      vertex -1.66462 15.8378 4.7
    endloop
  endfacet
  facet normal 0 0 -1
    outer loop
      vertex -1.66462 15.8378 4.7
      vertex 1.87367 17.8268 4.7
      vertex 1.66462 15.8378 4.7
    endloop
  endfacet
  facet normal 0 0 -1
    outer loop
      vertex 1.66462 15.8378 4.7
      vertex 5.53913 17.0477 4.7
      vertex 4.9211 15.1456 4.7
    endloop
  endfacet
  facet normal 0 0 -1
    outer loop
      vertex 4.9211 15.1456 4.7
      vertex 8.9625 15.5235 4.7
      vertex 7.9625 13.7915 4.7
    endloop
  endfacet
  facet normal 0 0 -1
    outer loop
      vertex 7.9625 13.7915 4.7
      vertex 11.9942 13.3209 4.7
      vertex 10.6559 11.8346 4.7
    endloop
  endfacet
  facet normal 0 0 -1
    outer loop
      vertex 10.6559 11.8346 4.7
      vertex 14.5016 10.5361 4.7
      vertex 12.8836 9.36048 4.7
    endloop
  endfacet
  facet normal 0 0 -1
    outer loop
      vertex 12.8836 9.36048 4.7
      vertex 16.3753 7.29075 4.7
      vertex 14.5482 6.47728 4.7
    endloop
  endfacet
  facet normal 0.994522 -0.104528 0
    outer loop
      vertex -15.577 3.31099 4.7
      vertex -15.577 3.31099 12.7
      vertex -15.925 0 12.7
    endloop
  endfacet
  facet normal 0.994522 -0.104528 0
    outer loop
      vertex -15.925 0 4.7
      vertex -15.577 3.31099 4.7
      vertex -15.925 0 12.7
    endloop
  endfacet
  facet normal 0.994522 0.104528 0
    outer loop
      vertex -15.925 0 12.7
      vertex -15.577 -3.31099 12.7
      vertex -15.577 -3.31099 4.7
    endloop
  endfacet
  facet normal 0.994522 0.104528 0
    outer loop
      vertex -15.925 0 4.7
      vertex -15.925 0 12.7
      vertex -15.577 -3.31099 4.7
    endloop
  endfacet
  facet normal 0.951056 -0.309017 0
    outer loop
      vertex -14.5482 6.47728 4.7
      vertex -14.5482 6.47728 12.7
      vertex -15.577 3.31099 12.7
    endloop
  endfacet
  facet normal 0.951056 -0.309017 0
    outer loop
      vertex -15.577 3.31099 4.7
      vertex -14.5482 6.47728 4.7
      vertex -15.577 3.31099 12.7
    endloop
  endfacet
  facet normal 0.866025 -0.5 0
    outer loop
      vertex -12.8836 9.36048 4.7
      vertex -12.8836 9.36048 12.7
      vertex -14.5482 6.47728 12.7
    endloop
  endfacet
  facet normal 0.866025 -0.5 0
    outer loop
      vertex -14.5482 6.47728 4.7
      vertex -12.8836 9.36048 4.7
      vertex -14.5482 6.47728 12.7
    endloop
  endfacet
  facet normal 0.743145 -0.669131 0
    outer loop
      vertex -10.6559 11.8346 4.7
      vertex -10.6559 11.8346 12.7
      vertex -12.8836 9.36048 12.7
    endloop
  endfacet
  facet normal 0.743145 -0.669131 0
    outer loop
      vertex -12.8836 9.36048 4.7
      vertex -10.6559 11.8346 4.7
      vertex -12.8836 9.36048 12.7
    endloop
  endfacet
  facet normal 0.587785 -0.809017 0
    outer loop
      vertex -7.9625 13.7915 4.7
      vertex -7.9625 13.7915 12.7
      vertex -10.6559 11.8346 12.7
    endloop
  endfacet
  facet normal 0.587785 -0.809017 0
    outer loop
      vertex -10.6559 11.8346 4.7
      vertex -7.9625 13.7915 4.7
      vertex -10.6559 11.8346 12.7
    endloop
  endfacet
  facet normal 0.406737 -0.913545 0
    outer loop
      vertex -4.9211 15.1456 4.7
      vertex -4.9211 15.1456 12.7
      vertex -7.9625 13.7915 12.7
    endloop
  endfacet
  facet normal 0.406737 -0.913545 0
    outer loop
      vertex -7.9625 13.7915 4.7
      vertex -4.9211 15.1456 4.7
      vertex -7.9625 13.7915 12.7
    endloop
  endfacet
  facet normal 0.207912 -0.978148 0
    outer loop
      vertex -1.66462 15.8378 4.7
      vertex -1.66462 15.8378 12.7
      vertex -4.9211 15.1456 12.7
    endloop
  endfacet
  facet normal 0.207912 -0.978148 0
    outer loop
      vertex -4.9211 15.1456 4.7
      vertex -1.66462 15.8378 4.7
      vertex -4.9211 15.1456 12.7
    endloop
  endfacet
  facet normal 0 -1 0
    outer loop
      vertex 1.66462 15.8378 4.7
      vertex 1.66462 15.8378 12.7
      vertex -1.66462 15.8378 12.7
    endloop
  endfacet
  facet normal 0 -1 0
    outer loop
      vertex -1.66462 15.8378 4.7
      vertex 1.66462 15.8378 4.7
      vertex -1.66462 15.8378 12.7
    endloop
  endfacet
  facet normal -0.207912 -0.978148 0
    outer loop
      vertex 4.9211 15.1456 4.7
      vertex 4.9211 15.1456 12.7
      vertex 1.66462 15.8378 12.7
    endloop
  endfacet
  facet normal -0.207912 -0.978148 0
    outer loop
      vertex 1.66462 15.8378 4.7
      vertex 4.9211 15.1456 4.7
      vertex 1.66462 15.8378 12.7
    endloop
  endfacet
  facet normal -0.406737 -0.913545 0
    outer loop
      vertex 7.9625 13.7915 4.7
      vertex 7.9625 13.7915 12.7
      vertex 4.9211 15.1456 12.7
    endloop
  endfacet
  facet normal -0.406737 -0.913545 0
    outer loop
      vertex 4.9211 15.1456 4.7
      vertex 7.9625 13.7915 4.7
      vertex 4.9211 15.1456 12.7
    endloop
  endfacet
  facet normal -0.587785 -0.809017 0
    outer loop
      vertex 10.6559 11.8346 4.7
      vertex 10.6559 11.8346 12.7
      vertex 7.9625 13.7915 12.7
    endloop
  endfacet
  facet normal -0.587785 -0.809017 0
    outer loop
      vertex 7.9625 13.7915 4.7
      vertex 10.6559 11.8346 4.7
      vertex 7.9625 13.7915 12.7
    endloop
  endfacet
  facet normal -0.743145 -0.669131 0
    outer loop
      vertex 12.8836 9.36048 12.7
      vertex 10.6559 11.8346 12.7
      vertex 12.8836 9.36048 4.7
    endloop
  endfacet
  facet normal -0.743145 -0.669131 0
    outer loop
      vertex 12.8836 9.36048 4.7
      vertex 10.6559 11.8346 12.7
      vertex 10.6559 11.8346 4.7
    endloop
  endfacet
  facet normal -0.866025 -0.5 0
    outer loop
      vertex 14.5482 6.47728 12.7
      vertex 12.8836 9.36048 12.7
      vertex 14.5482 6.47728 4.7
    endloop
  endfacet
  facet normal -0.866025 -0.5 0
    outer loop
      vertex 14.5482 6.47728 4.7
      vertex 12.8836 9.36048 12.7
      vertex 12.8836 9.36048 4.7
    endloop
  endfacet
  facet normal -0.951056 -0.309017 0
    outer loop
      vertex 15.577 3.31099 12.7
      vertex 14.5482 6.47728 12.7
      vertex 15.577 3.31099 4.7
    endloop
  endfacet
  facet normal -0.951056 -0.309017 0
    outer loop
      vertex 15.577 3.31099 4.7
      vertex 14.5482 6.47728 12.7
      vertex 14.5482 6.47728 4.7
    endloop
  endfacet
  facet normal -0.994522 -0.104528 0
    outer loop
      vertex 15.925 0 12.7
      vertex 15.577 3.31099 12.7
      vertex 15.925 0 4.7
    endloop
  endfacet
  facet normal -0.994522 -0.104528 0
    outer loop
      vertex 15.925 0 4.7
      vertex 15.577 3.31099 12.7
      vertex 15.577 3.31099 4.7
    endloop
  endfacet
  facet normal -0.994522 0.104528 0
    outer loop
      vertex 15.925 0 12.7
      vertex 15.925 0 4.7
      vertex 15.577 -3.31099 12.7
    endloop
  endfacet
  facet normal -0.994522 0.104528 0
    outer loop
      vertex 15.577 -3.31099 12.7
      vertex 15.925 0 4.7
      vertex 15.577 -3.31099 4.7
    endloop
  endfacet
  facet normal -0.951056 0.309017 0
    outer loop
      vertex 15.577 -3.31099 12.7
      vertex 15.577 -3.31099 4.7
      vertex 14.5482 -6.47728 12.7
    endloop
  endfacet
  facet normal -0.951056 0.309017 0
    outer loop
      vertex 14.5482 -6.47728 12.7
      vertex 15.577 -3.31099 4.7
      vertex 14.5482 -6.47728 4.7
    endloop
  endfacet
  facet normal -0.866025 0.5 0
    outer loop
      vertex 14.5482 -6.47728 12.7
      vertex 14.5482 -6.47728 4.7
      vertex 12.8836 -9.36048 12.7
    endloop
  endfacet
  facet normal -0.866025 0.5 0
    outer loop
      vertex 12.8836 -9.36048 12.7
      vertex 14.5482 -6.47728 4.7
      vertex 12.8836 -9.36048 4.7
    endloop
  endfacet
  facet normal -0.743145 0.669131 0
    outer loop
      vertex 12.8836 -9.36048 12.7
      vertex 12.8836 -9.36048 4.7
      vertex 10.6559 -11.8346 12.7
    endloop
  endfacet
  facet normal -0.743145 0.669131 0
    outer loop
      vertex 10.6559 -11.8346 12.7
      vertex 12.8836 -9.36048 4.7
      vertex 10.6559 -11.8346 4.7
    endloop
  endfacet
  facet normal -0.587785 0.809017 0
    outer loop
      vertex 10.6559 -11.8346 12.7
      vertex 10.6559 -11.8346 4.7
      vertex 7.9625 -13.7915 12.7
    endloop
  endfacet
  facet normal -0.587785 0.809017 0
    outer loop
      vertex 7.9625 -13.7915 12.7
      vertex 10.6559 -11.8346 4.7
      vertex 7.9625 -13.7915 4.7
    endloop
  endfacet
  facet normal -0.406737 0.913545 0
    outer loop
      vertex 7.9625 -13.7915 12.7
      vertex 7.9625 -13.7915 4.7
      vertex 4.9211 -15.1456 12.7
    endloop
  endfacet
  facet normal -0.406737 0.913545 0
    outer loop
      vertex 4.9211 -15.1456 12.7
      vertex 7.9625 -13.7915 4.7
      vertex 4.9211 -15.1456 4.7
    endloop
  endfacet
  facet normal -0.207912 0.978148 0
    outer loop
      vertex 4.9211 -15.1456 12.7
      vertex 4.9211 -15.1456 4.7
      vertex 1.66462 -15.8378 12.7
    endloop
  endfacet
  facet normal -0.207912 0.978148 0
    outer loop
      vertex 1.66462 -15.8378 12.7
      vertex 4.9211 -15.1456 4.7
      vertex 1.66462 -15.8378 4.7
    endloop
  endfacet
  facet normal 0 1 0
    outer loop
      vertex 1.66462 -15.8378 12.7
      vertex 1.66462 -15.8378 4.7
      vertex -1.66462 -15.8378 12.7
    endloop
  endfacet
  facet normal 0 1 0
    outer loop
      vertex -1.66462 -15.8378 12.7
      vertex 1.66462 -15.8378 4.7
      vertex -1.66462 -15.8378 4.7
    endloop
  endfacet
  facet normal 0.207912 0.978148 0
    outer loop
      vertex -1.66462 -15.8378 12.7
      vertex -1.66462 -15.8378 4.7
      vertex -4.9211 -15.1456 12.7
    endloop
  endfacet
  facet normal 0.207912 0.978148 0
    outer loop
      vertex -4.9211 -15.1456 12.7
      vertex -1.66462 -15.8378 4.7
      vertex -4.9211 -15.1456 4.7
    endloop
  endfacet
  facet normal 0.406737 0.913545 0
    outer loop
      vertex -4.9211 -15.1456 12.7
      vertex -4.9211 -15.1456 4.7
      vertex -7.9625 -13.7915 12.7
    endloop
  endfacet
  facet normal 0.406737 0.913545 0
    outer loop
      vertex -7.9625 -13.7915 12.7
      vertex -4.9211 -15.1456 4.7
      vertex -7.9625 -13.7915 4.7
    endloop
  endfacet
  facet normal 0.587785 0.809017 0
    outer loop
      vertex -7.9625 -13.7915 12.7
      vertex -7.9625 -13.7915 4.7
      vertex -10.6559 -11.8346 12.7
    endloop
  endfacet
  facet normal 0.587785 0.809017 0
    outer loop
      vertex -10.6559 -11.8346 12.7
      vertex -7.9625 -13.7915 4.7
      vertex -10.6559 -11.8346 4.7
    endloop
  endfacet
  facet normal 0.743145 0.669131 0
    outer loop
      vertex -12.8836 -9.36048 12.7
      vertex -10.6559 -11.8346 12.7
      vertex -10.6559 -11.8346 4.7
    endloop
  endfacet
  facet normal 0.743145 0.669131 0
    outer loop
      vertex -12.8836 -9.36048 4.7
      vertex -12.8836 -9.36048 12.7
      vertex -10.6559 -11.8346 4.7
    endloop
  endfacet
  facet normal 0.866025 0.5 0
    outer loop
      vertex -14.5482 -6.47728 12.7
      vertex -12.8836 -9.36048 12.7
      vertex -12.8836 -9.36048 4.7
    endloop
  endfacet
  facet normal 0.866025 0.5 0
    outer loop
      vertex -14.5482 -6.47728 4.7
      vertex -14.5482 -6.47728 12.7
      vertex -12.8836 -9.36048 4.7
    endloop
  endfacet
  facet normal 0.951056 0.309017 0
    outer loop
      vertex -15.577 -3.31099 12.7
      vertex -14.5482 -6.47728 12.7
      vertex -14.5482 -6.47728 4.7
    endloop
  endfacet
  facet normal 0.951056 0.309017 0
    outer loop
      vertex -15.577 -3.31099 4.7
      vertex -15.577 -3.31099 12.7
      vertex -14.5482 -6.47728 4.7
    endloop
  endfacet
  facet normal 0 0 -1
    outer loop
      vertex -14.5482 6.47728 12.7
      vertex -12.8836 9.36048 12.7
      vertex -15.577 3.31099 12.7
    endloop
  endfacet
  facet normal 0 0 -1
    outer loop
      vertex -15.577 3.31099 12.7
      vertex -12.8836 9.36048 12.7
      vertex -10.6559 11.8346 12.7
    endloop
  endfacet
  facet normal 0 0 -1
    outer loop
      vertex -15.577 3.31099 12.7
      vertex -10.6559 11.8346 12.7
      vertex -7.9625 13.7915 12.7
    endloop
  endfacet
  facet normal 0 0 -1
    outer loop
      vertex -15.577 3.31099 12.7
      vertex -7.9625 13.7915 12.7
      vertex -4.9211 15.1456 12.7
    endloop
  endfacet
  facet normal 0 0 -1
    outer loop
      vertex -15.577 3.31099 12.7
      vertex -4.9211 15.1456 12.7
      vertex -1.66462 15.8378 12.7
    endloop
  endfacet
  facet normal 0 0 -1
    outer loop
      vertex -15.577 3.31099 12.7
      vertex -1.66462 15.8378 12.7
      vertex 1.66462 15.8378 12.7
    endloop
  endfacet
  facet normal 0 0 -1
    outer loop
      vertex -15.577 3.31099 12.7
      vertex 1.66462 15.8378 12.7
      vertex 4.9211 15.1456 12.7
    endloop
  endfacet
  facet normal 0 0 -1
    outer loop
      vertex -15.577 3.31099 12.7
      vertex 4.9211 15.1456 12.7
      vertex 7.9625 13.7915 12.7
    endloop
  endfacet
  facet normal 0 0 -1
    outer loop
      vertex -15.577 3.31099 12.7
      vertex 7.9625 13.7915 12.7
      vertex 10.6559 11.8346 12.7
    endloop
  endfacet
  facet normal 0 0 -1
    outer loop
      vertex -15.577 3.31099 12.7
      vertex 10.6559 11.8346 12.7
      vertex 12.8836 9.36048 12.7
    endloop
  endfacet
  facet normal 0 0 -1
    outer loop
      vertex -15.577 3.31099 12.7
      vertex 12.8836 9.36048 12.7
      vertex 14.5482 6.47728 12.7
    endloop
  endfacet
  facet normal 0 0 -1
    outer loop
      vertex -15.577 3.31099 12.7
      vertex 14.5482 6.47728 12.7
      vertex 15.577 3.31099 12.7
    endloop
  endfacet
  facet normal 0 0 -1
    outer loop
      vertex -15.577 3.31099 12.7
      vertex 15.577 3.31099 12.7
      vertex 15.925 0 12.7
    endloop
  endfacet
  facet normal 0 0 -1
    outer loop
      vertex -15.577 3.31099 12.7
      vertex 15.925 0 12.7
      vertex 15.577 -3.31099 12.7
    endloop
  endfacet
  facet normal 0 0 -1
    outer loop
      vertex -15.577 3.31099 12.7
      vertex 15.577 -3.31099 12.7
      vertex 14.5482 -6.47728 12.7
    endloop
  endfacet
  facet normal 0 0 -1
    outer loop
      vertex -15.577 3.31099 12.7
      vertex 14.5482 -6.47728 12.7
      vertex 12.8836 -9.36048 12.7
    endloop
  endfacet
  facet normal 0 0 -1
    outer loop
      vertex -15.577 3.31099 12.7
      vertex 12.8836 -9.36048 12.7
      vertex 10.6559 -11.8346 12.7
    endloop
  endfacet
  facet normal 0 0 -1
    outer loop
      vertex -15.577 3.31099 12.7
      vertex 10.6559 -11.8346 12.7
      vertex 7.9625 -13.7915 12.7
    endloop
  endfacet
  facet normal 0 0 -1
    outer loop
      vertex -15.577 3.31099 12.7
      vertex 7.9625 -13.7915 12.7
      vertex 4.9211 -15.1456 12.7
    endloop
  endfacet
  facet normal 0 0 -1
    outer loop
      vertex -15.577 3.31099 12.7
      vertex 4.9211 -15.1456 12.7
      vertex 1.66462 -15.8378 12.7
    endloop
  endfacet
  facet normal 0 0 -1
    outer loop
      vertex -15.577 3.31099 12.7
      vertex 1.66462 -15.8378 12.7
      vertex -1.66462 -15.8378 12.7
    endloop
  endfacet
  facet normal 0 0 -1
    outer loop
      vertex -15.577 3.31099 12.7
      vertex -1.66462 -15.8378 12.7
      vertex -4.9211 -15.1456 12.7
    endloop
  endfacet
  facet normal 0 0 -1
    outer loop
      vertex -15.577 3.31099 12.7
      vertex -4.9211 -15.1456 12.7
      vertex -7.9625 -13.7915 12.7
    endloop
  endfacet
  facet normal 0 0 -1
    outer loop
      vertex -15.577 3.31099 12.7
      vertex -7.9625 -13.7915 12.7
      vertex -10.6559 -11.8346 12.7
    endloop
  endfacet
  facet normal 0 0 -1
    outer loop
      vertex -15.577 3.31099 12.7
      vertex -10.6559 -11.8346 12.7
      vertex -12.8836 -9.36048 12.7
    endloop
  endfacet
  facet normal 0 0 -1
    outer loop
      vertex -15.577 3.31099 12.7
      vertex -12.8836 -9.36048 12.7
      vertex -14.5482 -6.47728 12.7
    endloop
  endfacet
  facet normal 0 0 -1
    outer loop
      vertex -15.577 3.31099 12.7
      vertex -14.5482 -6.47728 12.7
      vertex -15.577 -3.31099 12.7
    endloop
  endfacet
  facet normal 0 0 -1
    outer loop
      vertex -15.577 3.31099 12.7
      vertex -15.577 -3.31099 12.7
      vertex -15.925 0 12.7
    endloop
  endfacet
endsolid OpenSCAD_Model
